<svg xmlns="http://www.w3.org/2000/svg" width="183.974" height="142.907" viewBox="0 0 183.974 142.907"><g data-name="Group 861"><g data-name="Group 786" transform="translate(161.127 .798)"><circle data-name="Ellipse 49" cx="11.423" cy="11.423" r="11.423" fill="#f38900"/><text data-name="4" transform="translate(10.012 15.202)" fill="#fff" font-size="15" font-family="Roboto-Bold, Roboto" font-weight="700"><tspan x="-4.303" y="0">4</tspan></text></g><g data-name="Group 601" transform="translate(0 9.694)"><circle data-name="Ellipse 48" cx="66.606" cy="66.606" r="66.606" transform="translate(22.844)" fill="#e0e0e0"/><g data-name="Group 600"><path data-name="Path 6980" d="M167.958 112.149c.893 1.589 1.782 3.181 2.682 4.766a6.041 6.041 0 0 1 .774 2.5c-.274 1.805-1.611 2.032-3.074 2.074-2.147-2.244-3.909-4.839-6.386-6.8-1.1-.867-2.151-1.8-3.28-2.633-.936-.913-2.287-1.419-2.755-2.795.448-2.494 3.8-4.836 6.536-4.57a7.387 7.387 0 0 1 2.264 2.541c1.033 1.526 2.043 3.068 3.062 4.6a.471.471 0 0 0 .177.317z" fill="#f29972"/><path data-name="Path 6981" d="M152.859 51.648a18.67 18.67 0 0 0 1.047 7.548q.628 2.016 1.326 4.008a7.972 7.972 0 0 1 .345 2.461 3.485 3.485 0 0 1-2.35 3.59c-.413.171-.834.326-1.251.488-2.792 1.48-5.7.856-8.591.464a5.318 5.318 0 0 1-1.788-.641 4.835 4.835 0 0 1-2.024-2.162c-1.244-3.163-1.248-6.523-1.55-9.836-.064-.7.01-1.412-.047-2.117-.076-.939-.5-1.062-1.272-.6a6.944 6.944 0 0 0-3.416 3.972c-.778 2.495-1.316 5.13-3.217 7.132a8.139 8.139 0 0 1-2.884 2.06 1.438 1.438 0 0 1-1.612-.475c-.643-1.815-.04-3.535.419-5.267.41-1.546 1.2-2.96 1.648-4.707-1.907.3-2.984 2.126-4.815 2.2a1.612 1.612 0 0 1-1.081-.711 5 5 0 0 0-3.076-2.2 1.214 1.214 0 0 1-.092-.827c.174-.551.625-.952.791-1.511.549-1.846-.059-2.9-1.914-3.367-1.026-.26-2.17-.252-2.937-1.176.125-1.037 1.037-1.064 1.726-1.221 4-.912 6.743-3.57 9.271-6.535a5.921 5.921 0 0 0 1.309-4.128 40.655 40.655 0 0 1 .988-8.777c.728-3.663 2.985-6.326 5.65-8.724.434-.39.918-.733 1.559-.424a2.438 2.438 0 0 1 .639 2.3 17.376 17.376 0 0 0-.107 2.88c.078 2.379 1.022 2.936 3.219 1.908a10.647 10.647 0 0 0 4.182-3.592c.859-1.206 1.911-2.089 3.541-1.849 5.333 1.614 7.939 5.134 8.024 10.6.065 4.127-.6 8.187-.957 12.274a69.742 69.742 0 0 0-.222 4.611 3.732 3.732 0 0 1-.481 2.351z" fill="#fefefe"/><path data-name="Path 6982" d="M143.187 69.677a24.735 24.735 0 0 0 8.789.066c-.568.894.035 1.759.171 2.591a12.138 12.138 0 0 1 .251 2.665 91.054 91.054 0 0 0 .45 10.565 16.514 16.514 0 0 0 3.063 8.2c1.283 1.913 2.675 3.754 4.051 5.6a10.926 10.926 0 0 1 2.492 5.33 12.206 12.206 0 0 0-5.058 2.629 2.549 2.549 0 0 0-1.216 2.063c-1.522 1.123-2.624 1.071-4.216-.38a44.8 44.8 0 0 1-6.789-8.35c-2.926-4.356-4.754-9.232-6.641-14.082-.454-1.167-.636-2.991-1.9-3.1-1.384-.123-1.68 1.724-2.2 2.832-2.509 5.313-4.511 10.784-4.727 16.751a8.955 8.955 0 0 1-.169 1.142c-.661 3.969-.66 3.97-4.71 4.255-2.1-.575-4.282-.725-6.419-1.123a2.168 2.168 0 0 1-1.245-2.385c.35-10.375 1.015-20.684 6.169-30.08.958-1.745 1.638-3.627 2.468-5.434a2.761 2.761 0 0 1 1.469-1.742l2.4-1.9c.466-.4.961-.225 1.441-.056a19.911 19.911 0 0 0 8.04 1.268 1.175 1.175 0 0 1 .866.339 5.852 5.852 0 0 0 1.624 1.809c-.035.054-.058.134-.107.158-3.633 1.743-4.341 3.206-3.446 7.281a31.656 31.656 0 0 0 3.563 8.925 94.1 94.1 0 0 1 5.479 11.264 20.478 20.478 0 0 0 2.239 4.038 4.421 4.421 0 0 0 1.183 1.256c.784.5 1.718 1 2.464.222.818-.853.156-1.766-.54-2.327-3.3-2.662-4.479-6.278-4.969-10.3a18.176 18.176 0 0 0-3.1-7.621c-.594-.917-1.229-1.806-1.773-2.757-1.917-3.328-1.486-6.516.553-9.612z" fill="#4ba3a7"/><path data-name="Path 6983" d="M84.061 122.488c-.59 2.089-1.225 4.166-1.75 6.27-.208.833-.551 1.238-1.428 1.134a9.8 9.8 0 0 0-1.155-.008q-38.731 0-77.46-.005A5.406 5.406 0 0 1 0 129.667l1.928-7.569c.411-.616-.221-1.171-.1-1.771a32.407 32.407 0 0 1 .915-4.133C8.61 92.817 14.2 69.37 20.086 45.994c.58-2.3 1.019-4.644 1.711-6.924.961-4.916 2.345-9.729 3.531-14.589.563-2.306 1.029-4.635 1.65-6.927.571-2.1 1.052-2.5 3.239-2.52 5.518-.049 11.036-.026 16.554-.015 7.635.014 15.27-.058 22.9.035.806-.04 1.612-.022 2.418 0q18.987-.039 37.973-.006c2.868 0 3.158.352 2.409 3.187-3.567 13.478-7.208 26.935-10.81 40.4-2.208 8.255-4.444 16.5-6.625 24.764-.361 1.366-.724 2.731-1.155 4.075-.133.61-.363 1.19-.545 1.787a9.472 9.472 0 0 0-.372 1.459c-1.8 7.18-3.822 14.3-5.654 21.473-.78 2.821-1.586 5.635-2.321 8.468a2.716 2.716 0 0 1-.928 1.827z" fill="#161330"/><path data-name="Path 6984" d="M114.543 124.414l1.161-.571a3.137 3.137 0 0 1 3.193.955.26.26 0 0 0 .193.072c.079 1.2.524 2.444-.344 3.558a25.021 25.021 0 0 1-7.322-.975c-.815-.212-1.768-.432-2.039-1.481a18.824 18.824 0 0 1 3.078-.809c.703-.226 1.524-.131 2.08-.749z" fill="#16656d"/><path data-name="Path 6985" d="M109.388 125.975c1.879 1.415 4.2 1.394 6.345 1.919.99.242 2.01.361 3.016.537-1.138.668-2.367.326-3.543.244a12.437 12.437 0 0 1-5.647-1.545c-.394-.241-1.268-.61-.171-1.155z" fill="#c69d0b"/><path data-name="Path 6986" d="M169.79 126.787a6.5 6.5 0 0 1-1.937 1.609l-.807-.056-.029-.037a.535.535 0 0 1 0-.526c.965-1.1 1.81-2.394 3.561-2.267a.352.352 0 0 1-.01.492l.007-.011a1.029 1.029 0 0 0-.4.405l.015-.015a1.15 1.15 0 0 0-.4.406z" fill="#c09e14"/><path data-name="Path 6987" d="M170.487 125.41a29.442 29.442 0 0 0-3.471 2.675 5.726 5.726 0 0 1-.322-.1 2.175 2.175 0 0 1 .291-1.988 7.38 7.38 0 0 0 1.4-4.79 3.7 3.7 0 0 0 3.029-1.786 4.1 4.1 0 0 1 2.894 1.82 16.38 16.38 0 0 1-3.177 3.843.559.559 0 0 1-.644.326z" fill="#17656d"/><path data-name="Path 6988" d="M170.755 125.15a17.875 17.875 0 0 1 3.553-3.912c.322 1.349-.679 2.087-1.412 2.9a8.163 8.163 0 0 1-1.538 1.083.412.412 0 0 1-.603-.071z" fill="#c59e11"/><path data-name="Path 6989" d="M170.755 125.151l.6.074a1.664 1.664 0 0 1-.791.777l-.079-.591z" fill="#c1a121"/><path data-name="Path 6990" d="M170.179 126.395l.4-.4a.524.524 0 0 1-.4.4z" fill="#c1a121"/><path data-name="Path 6991" d="M169.79 126.787a.565.565 0 0 1 .4-.406.541.541 0 0 1-.4.406z" fill="#c1a121"/><path data-name="Path 6992" d="M143.186 69.677a1.055 1.055 0 0 1-.055 1.387c-1.915 2.445-1.514 5.014-.291 7.591a7.7 7.7 0 0 0 .789 1.32 25.037 25.037 0 0 1 4.89 12.371 9.3 9.3 0 0 0 3.1 6.021 21.848 21.848 0 0 1 1.759 1.787 2.22 2.22 0 0 1 .392 2.486c-.53.784-1.368.673-2.107.565a3.907 3.907 0 0 1-2.451-1.7 30.355 30.355 0 0 1-3.677-7.179 78.912 78.912 0 0 0-3.96-7.923 35.537 35.537 0 0 1-4.01-9.759 12.063 12.063 0 0 1-.144-4.024c.263-2.343 1.506-3.3 4.216-3.459z" fill="#14646d"/><path data-name="Path 6993" d="M111.099 58.05c.283-.411-.088-.389-.3-.423-.5-.078-1.045-.054-1.2-.705.486-.7 1.358-.5 2.028-.858a3.5 3.5 0 0 1-2.826.072c-.494-.284-.954-.609-.2-1.083a13.007 13.007 0 0 1 3-1.237 5.083 5.083 0 0 0 2.824-1.534c-1.132-.824-2.481.077-3.666-.695a5.409 5.409 0 0 1 3.979-1.671 26.354 26.354 0 0 0 3.338.834c1.625.269 1.787.491 1.881 2.1a5.026 5.026 0 0 0 .032.765 1.95 1.95 0 0 1-1.24 2.446c-.179.305-.212.585.137.8a2.6 2.6 0 0 0 .947-.021c.671-.288 1.083-.178 1.285.558a5.761 5.761 0 0 0 1.606 2.119 10.386 10.386 0 0 0-2.9 2.131 5.629 5.629 0 0 1-1.922 1.238c-1.448.664-2.652.771-3.913-.62a6.428 6.428 0 0 0-4.379-2.5c-.152-.007-.294-.2-.419-.3.351-.8 1.015-.544 1.54-.654 1.152-.458 2.382.05 3.517-.278-.072-.029-.106.023-.161.027-1.011-.181-2.178.672-2.988-.511z" fill="#f29972"/><path data-name="Path 6994" d="M140.011 67.348a16.5 16.5 0 0 1-9.44-1.3 8.033 8.033 0 0 0-.907-.249 11.7 11.7 0 0 0 2.343-4.561c.183-.678.535-1.32.65-2.005.511-3.051 2.779-4.392 5.226-5.614a2.886 2.886 0 0 1 .6 2.39 62.262 62.262 0 0 0 .845 8.956 17.45 17.45 0 0 0 .683 2.383z" fill="#b6b6b7"/><path data-name="Path 6995" d="M141.097 16.448a16.3 16.3 0 0 0 3.88 4.365 3.463 3.463 0 0 1 1.254 1.39 3.23 3.23 0 0 0-2.822 1.676 10.781 10.781 0 0 1-4.916 4.1c-2.213.974-3.45.183-3.468-2.252a20.749 20.749 0 0 1 .139-3.056 4 4 0 0 0-.315-2.414v-.229a8.425 8.425 0 0 0 4.651-2.757c.398-.456.837-1 1.597-.823z" fill="#f29972"/><path data-name="Path 6996" d="M118.876 56.863c-.291.013-.651.087-.722-.3-.077-.417.323-.407.586-.5l.136.8z" fill="#6e97bc"/><path data-name="Path 6997" d="M117.921 112.021l.208-4.454a.628.628 0 0 1 .373-.464l.012.024a12.334 12.334 0 0 1 6.459 1.134 9.357 9.357 0 0 1-.241 3.705c-.85 4.354-3.435 7.922-5.344 11.8-.168.342-.326.689-.487 1.035a14.977 14.977 0 0 1-3.193-.955c.83-3.146 1.4-6.346 1.956-9.548.13-.753.174-1.519.257-2.277z" fill="#f29972"/><path data-name="Path 6998" d="M6.163 124.908c.822-3.375 1.633-6.733 2.459-10.087q11.286-45.816 22.576-91.633c.658-2.669.646-2.672 3.468-2.672q34.634 0 69.268.007a5.218 5.218 0 0 1 2.09.138c.241.611-.078 1.131-.223 1.672l-27.1 101.2c-.42 1.568-.427 1.58-2.042 1.58H7.777a3.2 3.2 0 0 1-1.614-.205z" fill="#fefefe"/><path data-name="Path 6999" d="M93.366 90.125a1.049 1.049 0 0 1-.777.484 1.568 1.568 0 0 1 .361-1.3 1.044 1.044 0 0 0 .416.816z" fill="#a48629"/><path data-name="Path 7000" d="M166.694 127.983a.976.976 0 0 1 .323.1.228.228 0 0 1 0 .218.343.343 0 0 1-.323-.318z" fill="#b6b6b7"/><path data-name="Path 7001" d="M141.097 16.443c-.919.867-1.809 1.767-2.765 2.589a3.513 3.513 0 0 1-3.477.994c-.294-.122-.592-.228-.875-.368-2.7-1.334-3.77-3.044-2.779-5.983a1 1 0 0 1 .528-.255c1.133.067 2.27.1 3.4.177 3.453.231 3.815-.052 4.129-3.426a9.93 9.93 0 0 0 .259-1.9c-.015-.776-.279-1.516-1.086-1.592-2.179-.2-4.462-.892-6.368.91a.719.719 0 0 1-.84-.1c-.271-1.759-.271-1.759-2.306-2.479.8-.643.615-1.306.226-2.092-.463-.934-.217-1.469.71-1.485 2.9-.051 5.673-1.108 8.6-.945a8.568 8.568 0 0 1 4.8 1.751 4.336 4.336 0 0 1 1.812 3.449 12.537 12.537 0 0 1-.839 5.284q-.141.209-.269.427h.011a.476.476 0 0 1-.5.05c-.531-.32-.543-1.153-1.258-1.3-1.022 1.847-.976 2.04.57 2.471a.881.881 0 0 1 .427.306c-.463 1.317-1.82 2.096-2.11 3.517z" fill="#161330"/><path data-name="Path 7002" d="M139.6 10.201c.672 2.009-.175 3.052-1.505 3.928a1.521 1.521 0 0 1-1.459.285 7.5 7.5 0 0 0-3.6-.387 2.225 2.225 0 0 1-1.455-.4c-.258-.2-.2-.458-.131-.717l.023-3.188.259-.07a.874.874 0 0 1 .473.213c.714 1.086 1.649.985 2.656.488a1.505 1.505 0 0 1 .527.032 2.8 2.8 0 0 1 .688.4c.928.724 1.609.158 2.284-.44.392-.249.78-.531 1.24-.144z" fill="#ef9771"/><path data-name="Path 7003" d="M108.796 56.137a10.9 10.9 0 0 0 3.92-.589c-.756 1.156-2.093.909-3.122 1.375z" fill="#6d8db5"/><path data-name="Path 7004" d="M111.099 58.051a3.622 3.622 0 0 0 3.493.007c.17.126.409.192.416.464-1.394.616-2.859.2-4.288.3.027-.309-.055-.667.379-.771z" fill="#bc9393"/><path data-name="Path 7005" d="M131.224 7.495h.666c.636.861.178 1.583-.294 2.3l-.121-.074a3.323 3.323 0 0 1-.251-2.226z" fill="#272944"/><path data-name="Path 7006" d="M143.205 12.926l-.384-.04c-.219-.5.11-.681.486-.833l.268.106c-.007.311-.042.609-.37.767z" fill="#2e3257"/><path data-name="Path 7007" d="M131.451 12.91l.131.717a3.455 3.455 0 0 1-.382.048.781.781 0 0 1 .251-.765z" fill="#4e4c67"/><path data-name="Path 7008" d="M143.586 11.356a1.529 1.529 0 0 1 .374.043c-.01.316-.048.616-.391.759l-.029-.028a.5.5 0 0 1 .046-.774z" fill="#262b48"/><path data-name="Path 7009" d="M143.954 11.404l.269-.427a.366.366 0 0 1-.269.427z" fill="#262b48"/><path data-name="Path 7010" d="M115.008 58.522l-.417-.465c.214-.05.445-.31.637-.087s.004.426-.22.552z" fill="#748db5"/><path data-name="Path 7011" d="M118.502 107.102l-.373.464a.472.472 0 0 1 .373-.464z" fill="#4ba3a7"/><path data-name="Path 7012" d="M51.288 87.61q-12.921 0-25.843-.005a11.033 11.033 0 0 1-2.109-.125 2.577 2.577 0 0 1-2.158-2.583 2.624 2.624 0 0 1 2.083-2.654 6.367 6.367 0 0 1 1.526-.144q26.712-.01 53.422-.006a5.04 5.04 0 0 1 1.713.2 2.691 2.691 0 0 1-.1 5.163 7.346 7.346 0 0 1-2.107.156z" fill="#0d1c3d"/><path data-name="Path 7013" d="M58.236 58.829h26.229a12.5 12.5 0 0 1 1.733.037 2.752 2.752 0 0 1 2.378 2.822 2.7 2.7 0 0 1-2.452 2.548 13.743 13.743 0 0 1-1.542.029h-52.65a14.232 14.232 0 0 1-1.542-.027 2.692 2.692 0 0 1-2.468-2.529 2.744 2.744 0 0 1 2.351-2.841 12.125 12.125 0 0 1 1.733-.04q13.116-.001 26.23.001z" fill="#0c1b3c"/><path data-name="Path 7014" d="M62.762 48.29H88.81c.578 0 1.161-.027 1.735.024a2.626 2.626 0 0 1 2.578 2.6 2.737 2.737 0 0 1-2.393 2.813 8.258 8.258 0 0 1-1.348.046H36.323a7.5 7.5 0 0 1-1.724-.116 2.756 2.756 0 0 1-2.13-2.839 2.721 2.721 0 0 1 2.51-2.49 16.825 16.825 0 0 1 1.734-.033z" fill="#0c1b3c"/><path data-name="Path 7015" d="M55.581 75.521H29.547c-.578 0-1.16.025-1.734-.03a2.557 2.557 0 0 1-2.483-2.469 2.658 2.658 0 0 1 2.081-2.849 6.561 6.561 0 0 1 1.53-.107q26.707-.008 53.416 0a4.57 4.57 0 0 1 1.711.184 2.8 2.8 0 0 1 1.87 2.84 2.718 2.718 0 0 1-2.4 2.389 14.637 14.637 0 0 1-1.733.045l-26.224-.003z" fill="#0d1b3c"/><path data-name="Path 7016" d="M51.04 116.576c.755-4.058 1.523-8.137 2.264-12.221.148-.812.606-1 1.356-.975 1.667.06 3.336.069 5.005.083 4.878.041 9.754.069 14.632.116a5.239 5.239 0 0 1 2.05.186c-.385 2.1-.766 4.218-1.162 6.334-.366 1.953-.78 3.9-1.107 5.856-.126.766-.4 1.114-1.227 1.1-7.122-.113-14.245-.192-21.367-.29a1.647 1.647 0 0 1-.444-.189z" fill="#0d1c3d"/><path data-name="Path 7017" d="M40.131 103.766a27.935 27.935 0 0 1-.77 4.668c-.428 2.4-.868 4.8-1.339 7.191-.276 1.4-.307 1.424-1.719 1.41-5.654-.053-11.309-.127-16.963-.187-1.4-.015-2.8 0-4.322 0a24.779 24.779 0 0 1 .748-4.684c.47-2.589 1-5.166 1.463-7.755.118-.658.312-1.036 1.077-1.025q10.789.152 21.578.267c.059-.001.116.051.247.115z" fill="#0d1c3d"/><path data-name="Path 7018" d="M68.644 35.602a6.033 6.033 0 0 1-.749.1c-2.348.041-3.5-.745-3.784-2.569-.317-2.019.8-3.545 2.993-4.1q.558-.1.373.431a2.649 2.649 0 0 0-1.629 1.954c-.5 2.03.139 3.12 2.29 3.792.378-.141.541-.004.506.392z" fill="#202b4a"/><path data-name="Path 7019" d="M37.11 34.954c.324-.027.689-.074.716-.465.1-1.521.212-3.045.218-4.568 0-.337-.4-.677-.687-1.128h2.985c-.01 1.062-.922 2.03-.325 3.155a2.789 2.789 0 0 1-.021.853 4.163 4.163 0 0 0-.055 1.112c0 .5.615 1.321-.126 1.439-.859.134-1.956.662-2.705-.398z" fill="#1f2847"/><path data-name="Path 7020" d="M76.431 35.288a.66.66 0 0 0 .748-.654 4.629 4.629 0 0 0-.187-2.84c.741-.925 1.669-.1 2.442-.394a.812.812 0 0 1 .812-.062.4.4 0 0 1 .12.332c-.016.12-.038.18-.066.18l-.1-.05c-.185.261-.291.659-.755.432-1.361.921-.927 2.11-.442 3.453-.881-.23-1.792.429-2.526-.44z" fill="#313d59"/><path data-name="Path 7021" d="M53.589 31.867c-2.4.242-3.038.558-2.214 3.446a3.453 3.453 0 0 1-1.929-.052 5.542 5.542 0 0 0 .329-2.743c-.064-1.133.246-1.65 1.206-1.4.935.242 1.751-.183 2.624-.1a.617.617 0 0 1-.016.849z" fill="#2b3452"/><path data-name="Path 7022" d="M39.73 32.503l-.018-.708c-.027-1.113.647-1.578 1.627-1.76a.673.673 0 0 1 .491.3c-1.106 1.329-1.141 1.359-.075 2.6.638.746.99 1.84 2.183 1.985-1.11.88-2.832.818-3.376-.212-.363-.685-1.118-1.262-.832-2.205z" fill="#1f2847"/><path data-name="Path 7023" d="M39.73 32.503c.387.893 1.437 1.413 1.421 2.531 0 .157.055.273.2.264.874-.06 1.833.458 2.592-.377.489-.242.263-.92.721-1.183a1 1 0 0 1 .11 1.536 3.456 3.456 0 0 1-1.053.392 212.25 212.25 0 0 1-6.283.011c-.474-.006-.971-.145-.322-.721.836.763 1.787.222 2.773.361a2.24 2.24 0 0 1-.159-2.814z" fill="#e4ebee"/><path data-name="Path 7024" d="M82.889 35.312a.959.959 0 0 0-.185.047c-.706.337-1.483.751-2.012-.157-.471-.81-.045-1.463.682-1.933a.514.514 0 0 1 .459 0 1.393 1.393 0 0 1 .271.376c.127.213.208.536.557.232a.71.71 0 0 0 .162-.352 2.6 2.6 0 0 1-.122-.382 1.257 1.257 0 0 1 .01-.406 1.337 1.337 0 0 1 .177-.366c.213-.239-.195-.284-.149-.472a.861.861 0 0 1 .116-.438.652.652 0 0 1 .658-.116.154.154 0 0 1 .213.131.709.709 0 0 1 .266.317 1.538 1.538 0 0 1 .08 1.179 1.741 1.741 0 0 0-.03 1.53l.448.47c.1.068.134.135.1.2s-.073.09-.109.09l-.015.01c-.188.248-.545.16-.748.377l-.389-.038a14.852 14.852 0 0 0-.44-.299z" fill="#2c3351"/><path data-name="Path 7025" d="M53.585 31.867l.015-.853c.319-.378.539-.851 1.007-1.087.417.305.119.717.217 1.056a.652.652 0 0 1 .021.785c.067 1.06-.716 2.257.514 3.13.271.193 0 .328-.1.41a1.033 1.033 0 0 1-1.783-.759 26.128 26.128 0 0 1 .109-2.682z" fill="#1e2d4b"/><path data-name="Path 7026" d="M59.862 35.342c-.6.391-1.273-.044-1.955.214-.665.252-1.192-.3-1.217-1.091-.029-.9-.042-1.794-.061-2.691-.071-.686.62-.421.875-.7.4-.043.574.124.549.539-.045.765-.094 1.532-.085 2.3.01.724.466.821 1.058.634a.95.95 0 0 1 .836.795z" fill="#2c3754"/><path data-name="Path 7027" d="M84.843 35.271c.457.05.746-.129.771-.61a18.864 18.864 0 0 0 .056-1.92c-.073-1.434.33-1.655 1.822-.955.4-.24.736-.228.937.257-1.238.937-1.059 2.344-1.2 3.644-.772-.2-1.712.456-2.341-.461z" fill="#232f4d"/><path data-name="Path 7028" d="M45.91 31.08c2.185-.2 2.3-.1 2.3 2.02a6.356 6.356 0 0 0 .069 1.311c.061.289.7.5.129.858-.434.27-.92.495-1.336-.067a1.09 1.09 0 0 1-.385-.649c-.066-.5-.112-1-.179-1.5a.511.511 0 0 1 .181-.44c.4-.831.267-1.022-.753-1.044a.329.329 0 0 1-.111-.319c.024-.114.053-.17.085-.17z" fill="#252e4c"/><path data-name="Path 7029" d="M88.309 32.273c-.13-.4-.463-.463-.817-.487a.991.991 0 0 1 1.409-.5c.568.219.634.718.641 1.246a7.508 7.508 0 0 0 .234 3.071 6.1 6.1 0 0 1-2.1.037 6.318 6.318 0 0 1 .633-3.367z" fill="#1f2847"/><path data-name="Path 7030" d="M92.571 35.225c.18-.939-.655-1.111-1.158-1.54-.975-.83-.975-1.11-.031-2.283.4-.211.484.039.511.362-.148.889.687.969 1.135 1.354 1.142.985 1.027 1.68-.447 2.523-.127-.089-.171-.181-.131-.275s.079-.141.121-.141z" fill="#232f4d"/><path data-name="Path 7031" d="M96.553 35.621a5.672 5.672 0 0 1-2.181-.009c.794-.88.549-1.888.543-2.833-.008-1.166-.068-1.165 1.355-1.348.152 1.379-.557 2.819.283 4.19z" fill="#222c4a"/><path data-name="Path 7032" d="M59.861 35.342a1.55 1.55 0 0 1-.836-.8 2.976 2.976 0 0 0 .263-2.225c-.5-1.365.286-1.26 1.192-1.23.411 1.259-.248 2.6.272 3.9.152.374-.549.302-.891.355z" fill="#273451"/><path data-name="Path 7033" d="M88.308 32.273c-.083 1.146.417 2.4-.629 3.367l-.456.046a3.9 3.9 0 0 1-.276-2.706c.135-.772.608-1.052 1.361-.707z" fill="#dedfe4"/><path data-name="Path 7034" d="M76.477 35.245c-.676.128-1.346.864-2.028.013a.724.724 0 0 1-.242-.432 2.182 2.182 0 0 1 .044-.508 2.961 2.961 0 0 0-.194-1.73 1.755 1.755 0 0 1-.068-1.08 1.048 1.048 0 0 1 1.308-.1c.727.6.442 1.418.365 2.123a1.893 1.893 0 0 0 .766 1.758z" fill="#1c2a49"/><path data-name="Path 7035" d="M74.466 32.65c.325.614.651 1.23.05 1.869-.133.007-.278-.246-.37-.052-.064.136.154.246.268.351l.035.439c-.224.106-.442.225-.671.314a1.118 1.118 0 0 1-1.368-.228 1.181 1.181 0 0 1-.061-1.542 3.08 3.08 0 0 1 .539-.507c.395-.546.795-1.063 1.578-.644z" fill="#2a3350"/><path data-name="Path 7036" d="M41.313 30.264l-1.6 1.534c-.716-1.2-.278-2.148.631-3l1.008-.005c.779.504.593.992-.039 1.471z" fill="#e1e3e7"/><path data-name="Path 7037" d="M68.644 35.599l-.507-.389.894-.312c.421-.551.069-1.209.24-1.779.323-1.075.831-.948 1.374-.136 0 .188.006.377 0 .565-.055 1.794-.055 1.794-2.001 2.051z" fill="#243553"/><path data-name="Path 7038" d="M46.994 34.415c.025.261.048.524.072.785-.764.049-1.51.745-2.3.072a3.6 3.6 0 0 1-.11-1.536l.676-.454a2.29 2.29 0 0 1 .5-.059c.5.289.545 1.02 1.162 1.192z" fill="#283b57"/><path data-name="Path 7039" d="M82.9 31.907a.368.368 0 0 0 .087.294.26.26 0 0 1-.06.369c-.125.174-.2.38-.334.547a1.354 1.354 0 0 1-.394.182 1.2 1.2 0 0 1-.433 0l-.391-.035c-.6-.289-.692-.964-1.074-1.419l-.173-.4a.2.2 0 0 1-.01-.318l.934.314a.576.576 0 0 0 .81.179 1.044 1.044 0 0 1 .714-.073.582.582 0 0 1 .324.36z" fill="#e7ebee"/><path data-name="Path 7040" d="M70.644 32.986c-.506-.513-.948-.625-1.172.229-.149.563.2 1.252-.441 1.687.133-1.646.133-1.646-.562-2.625a13.5 13.5 0 0 1 3-.065c-.138.545-.639.474-.825.774z" fill="#513754"/><path data-name="Path 7041" d="M41.314 30.263a1.233 1.233 0 0 0 .036-1.475 7.45 7.45 0 0 0 2.146-.009c.4.439-.152.491-.292.711-.607.039-.853.663-1.371.845z" fill="#26445f"/><path data-name="Path 7042" d="M94.946 29.755a.7.7 0 0 1 .718-.715.644.644 0 0 1 .779.619.706.706 0 0 1-.784.83.715.715 0 0 1-.713-.734z" fill="#3f4a64"/><path data-name="Path 7043" d="M69.478 29.027c1.2.257 1.2.257.978 2.086-.631-.611-.839-1.564-1.75-1.674-.054-.723.412-.465.772-.412z" fill="#25304e"/><path data-name="Path 7044" d="M74.466 32.646l-1.578.644-.359-.721c.28-.3.375-.757.795-.94a.905.905 0 0 1 .734-.019.77.77 0 0 1 .408 1.036z" fill="#c3ccd3"/><path data-name="Path 7045" d="M57.503 31.073l-.875.7c-.593-.369-1.19.162-1.782-.006-.006-.264-.014-.525-.021-.787z" fill="#6c3f5b"/><path data-name="Path 7046" d="M92.571 35.226c0 .139.006.278.01.417-.308.045-.615.108-.926.129-1.136.08-1.211-.543-.89-1.591.539.586.883 1.429 1.806 1.045z" fill="#292746"/><path data-name="Path 7047" d="M69.479 29.026c-.274.107-.594.125-.772.412l-1.23.029-.374-.43a2.783 2.783 0 0 1 2.376-.011z" fill="#285069"/><path data-name="Path 7048" d="M74.058 31.61l-.7.167-.181-.051a.356.356 0 0 1-.07-.357.374.374 0 0 1 .234-.277c.665.023 1.395-.354 1.957.313a2.424 2.424 0 0 0-1.24.205z" fill="#5a2c4a"/><path data-name="Path 7049" d="M91.892 31.765a46.68 46.68 0 0 0-.51-.361 1.58 1.58 0 0 1 2.063-.064l-.052.217a.772.772 0 0 1-.331.289l-.222-.031a1.166 1.166 0 0 0-.948-.05z" fill="#8a5971"/><path data-name="Path 7050" d="M45.909 31.079l.02.485c-.108.155-.211.315-.326.465s-.17.391-.418.284c-.194-.082-.208-.292-.18-.48.079-.514.34-.819.904-.754z" fill="#413d59"/><path data-name="Path 7051" d="M81.792 31.843c-.2.221-.326.708-.626.587-.441-.177-.1-.639-.114-.979l.722-.131a.349.349 0 0 1 .018.523z" fill="#333e5a"/><path data-name="Path 7052" d="M93.446 31.339c.445.368.445.822-.029 1.057-.39.192-.417-.34-.575-.582a.417.417 0 0 0 .183-.08c.094-.073.191-.142.29-.208.047-.06.09-.123.131-.187z" fill="#43536c"/><path data-name="Path 7053" d="M46.052 33.397l-.717-.114a2.4 2.4 0 0 1 1.348-.675c0 .129-.008.256-.018.385.106.606-.235.533-.613.404z" fill="#554e67"/><path data-name="Path 7054" d="M73.359 31.781c-.239.3-.362.728-.83.792a1.1 1.1 0 0 1 .4-1.285l.131.12a.267.267 0 0 0 .213.257z" fill="#414b65"/><path data-name="Path 7055" d="M84.041 34.505a.985.985 0 0 1 .03-1.529z" fill="#2c3955"/><path data-name="Path 7056" d="M82.9 31.906a.841.841 0 0 1-.332-.165.489.489 0 0 1-.392-.56 1.256 1.256 0 0 1 1.336.168 1.108 1.108 0 0 0-.612.557z" fill="#2c3955"/><path data-name="Path 7057" d="M82.176 31.182l.392.56-.776.1-.019-.522a.27.27 0 0 1 .403-.138z" fill="#2b5770"/><path data-name="Path 7058" d="M43.203 29.488l.292-.711c.2 0 .381.09.373.286-.018.42-.353.42-.665.425z" fill="#e1e3e7"/><path data-name="Path 7059" d="M79.445 32.232l.755-.433c.068.701-.219.786-.755.433z" fill="#555b73"/><path data-name="Path 7060" d="M80.117 31.137a1.571 1.571 0 0 1 .01.317l-.694-.054c.158-.267.434-.231.684-.263z" fill="#555b73"/><path data-name="Path 7061" d="M83.713 35.651a.812.812 0 0 1 .748-.377.671.671 0 0 1-.748.377z" fill="#2c3955"/><path data-name="Path 7062" d="M82.889 35.311l.435.3a.422.422 0 0 1-.435-.3z" fill="#2c3955"/><path data-name="Path 7063" d="M84.476 35.264c0-.1.007-.191.014-.288.244-.051.328.089.354.3l.04-.047c-.137.008-.272.022-.408.035z" fill="#2c3955"/><path data-name="Path 7064" d="M83.99 31.797l-.266-.317c.199.014.307.102.266.317z" fill="#2c3955"/><path data-name="Path 7065" d="M73.337 31.096a.992.992 0 0 0-.057.312.289.289 0 0 1-.366.09c0-.069 0-.14.007-.209a.292.292 0 0 1 .416-.193z" fill="#c3ccd3"/><path data-name="Path 7066" d="M131.596 9.796l.294-2.3c.319-1.288 1.16-1.665 2.426-1.539a26.273 26.273 0 0 0 3.045.013c2.33-.041 3.234 1.1 2.633 3.371a5.457 5.457 0 0 1-.394.863l-1.056.386c-.712-.7-1.242-1.864-2.561-.987a2.13 2.13 0 0 1-.517.148 2.019 2.019 0 0 1-.526-.027c-1.037-.7-2.044-.353-3.048.094a2.521 2.521 0 0 1-.296-.022z" fill="#ee9771"/><path data-name="Path 7067" d="M143.591 11.361l-.046.774q-.363.376-.724.754c-.246.058-.5.1-.739.177-.927.287-1.2-.24-1.09-.988.148-1 .426-1.97.669-3.041 1.352.261 1.638 1.293 1.93 2.324z" fill="#e28f6d"/><path data-name="Path 7068" d="M135.767 9.319c1.6-1.1 2.375-.743 2.774 1.269-1.247 1.43-1.428 1.461-2.768.479a1.678 1.678 0 0 1-.006-1.748z" fill="#3c312e"/><path data-name="Path 7069" d="M131.893 9.816c1.363-1.489 1.448-1.5 3.132-.376a.727.727 0 0 1-.033 1.118c-1.595 1.383-2.236 1.228-3.099-.742z" fill="#3e312e"/><path data-name="Path 7070" d="M135.77 9.319q0 .874.005 1.747a72.572 72.572 0 0 1-.4-.464 1.259 1.259 0 0 1 .02-1.187z" fill="#3e312e"/><path data-name="Path 7071" d="M135.392 9.415l-.019 1.188a2.574 2.574 0 0 1-.382-.043l.033-1.119a1.333 1.333 0 0 1 .368-.026z" fill="#cb8364"/><path data-name="Path 7072" d="M53.372 114.646c.521-2.786 1.045-5.606 1.576-8.426a.929.929 0 0 1 1.041-.872c5.961.017 11.923.01 18.092.01-.589 3.185-1.125 6.057-1.648 8.932-.137.756-.646.823-1.278.813-2.5-.038-5.006-.042-7.51-.073q-4.236-.05-8.472-.127a3.179 3.179 0 0 1-1.801-.257z" fill="#fefefe"/><path data-name="Path 7073" d="M37.705 105.492a5.4 5.4 0 0 1-.252 2.581c-.363 1.952-.782 3.894-1.091 5.853-.133.839-.4 1.209-1.326 1.191-5.7-.11-11.411-.159-17.116-.239a3.068 3.068 0 0 1-.671-.207c.547-2.893 1.1-5.772 1.63-8.656.109-.593.516-.66.988-.656 1.218.01 2.436.029 3.654.039q6.156.05 12.31.093c.634.005 1.264.001 1.874.001z" fill="#fefefe"/><path data-name="Path 7074" d="M82.998 33.737c-.027.119-.063.235-.08.355-.066.442-.176.914-.747.787-.6-.134-.323-.678-.356-1.066a1.591 1.591 0 0 1 .335-.557 1.141 1.141 0 0 1 .427-.09.372.372 0 0 1 .35.208.259.259 0 0 1 .121.23c-.01.088-.026.133-.05.133z" fill="#edf1f3"/><path data-name="Path 7075" d="M82.926 33.375a1.793 1.793 0 0 0-.373-.1c-.132-.069-.174-.137-.131-.2s.088-.1.133-.1l.37-.4z" fill="#2c3955"/><path data-name="Path 7076" d="M82.181 33.386a.527.527 0 0 1-.367.427l-.049-.509a.331.331 0 0 1 .406-.245c.11.07.149.14.115.214s-.065.113-.105.113z" fill="#2c3955"/><path data-name="Path 7077" d="M82.927 32.57a1.51 1.51 0 0 1 .06-.369c.14.073.182.173.1.284-.034.044-.107.057-.16.085z" fill="#2c3955"/><path data-name="Path 7078" d="M82.997 33.737a.8.8 0 0 1-.074-.367 2.2 2.2 0 0 1 .193.242c.008.013-.076.082-.119.125z" fill="#2c3955"/><path data-name="Path 7079" d="M46.05 33.397a.731.731 0 0 0 .613-.4c.685.34.22.948.331 1.423-.305.167-.581.651-.966.237-.35-.379-.178-.843.022-1.26z" fill="#d5d8de"/><path data-name="Path 7080" d="M74.414 34.818c-.55.148-1.078.178-1.044-.6.021-.47.344-.947.835-.836.582.133.18.755.311 1.138a.329.329 0 0 0-.102.298z" fill="#dde2e6"/><path data-name="Path 7081" d="M82.181 33.386a7.183 7.183 0 0 1-.01-.327l.385-.086v.3z" fill="#2c3351"/><path data-name="Path 7082" d="M72.918 31.499l.366-.09a2.81 2.81 0 0 0-.015.258c-.178.07-.278-.021-.351-.168z" fill="#131b3c"/><path data-name="Path 7083" d="M93.315 31.527c-.036.153-.115.248-.289.209-.002-.207.118-.244.289-.209z" fill="#0c1b3c"/></g></g></g></svg>