<svg xmlns="http://www.w3.org/2000/svg" width="190.79" height="150.189" viewBox="0 0 190.79 150.189"><g data-name="Group 859"><g data-name="Group 783" transform="translate(167.574 8.079)"><circle data-name="Ellipse 49" cx="11.5" cy="11.5" r="11.5" transform="translate(.216 -.342)" fill="#f38900"/><text data-name="2" transform="translate(11.216 16.658)" fill="#fff" font-size="16" font-family="Roboto-Bold, Roboto" font-weight="700"><tspan x="-4.59" y="0">2</tspan></text></g><g data-name="Group 597"><circle data-name="Ellipse 47" cx="70.123" cy="70.123" r="70.123" transform="translate(16.374 9.942)" fill="#e0e0e0"/><g data-name="Group 596"><path data-name="Path 6911" d="M154.715 0a11.626 11.626 0 0 0-1.311 5.227 58.977 58.977 0 0 0-.193 7.356c.509 9.159-.05 18.325.264 27.479.447 13.066.126 26.132.206 39.2.077 13.033-.045 26.068.065 39.1.026 2.956.166 5.92.222 8.883a8.552 8.552 0 0 0 .3 1.744.9.9 0 0 0 1.022.74c1.061-.03 2.122-.01 3.183-.008a.991.991 0 0 1 .829.222.829.829 0 0 1-.641.351 23.882 23.882 0 0 1-5.625-.12.92.92 0 0 1-.51-.822V3.116c-.006-1.882-.006-1.882-1.743-2.466-.048-.7.08-.756 1.082-.452l1.267.014a.321.321 0 0 1 .376 0 .157.157 0 0 1 .146 0 2.84 2.84 0 0 1 .267-.112z" fill="#bed6ec"/><path data-name="Path 6912" d="M153.913.092l-.267.112z" fill="#bbcae0"/><path data-name="Path 6913" d="M153.5.208h-.376a.384.384 0 0 1 .13-.162z" fill="#bbcae0"/><path data-name="Path 6914" d="M115.201 129.755a51.384 51.384 0 0 1-9.367-.571 6.289 6.289 0 0 1-4.392-2.525c-1.076-.763-1.181-1.96-1.336-3.107a6.061 6.061 0 0 0-.3-1.713 5.534 5.534 0 0 1-.277-1.5c-.4-8.309-.288-16.623-.243-24.937-.087-.572.049-1.146-.026-1.718-.029-11.817.007-23.634-.026-35.447a1.52 1.52 0 0 1 2.007-.517c.215.175.215.175-.14.978a4.374 4.374 0 0 0 3.783-.962 10.027 10.027 0 0 1 4.157-1.77 19.563 19.563 0 0 0 1.748 1.227 5.3 5.3 0 0 0 5.4-.073 2.742 2.742 0 0 0 1.132-1.075 20.53 20.53 0 0 1 3.881-3.141c.528-.327 1.107-.814 1.8-.285a12.848 12.848 0 0 1-.575 4.353c-.489 1.88-1.114 3.722-1.773 5.546a4.553 4.553 0 0 0-.2 3.078 65.588 65.588 0 0 1-1.975 12.8c-1.091 4.451-2.181 8.9-2.979 13.418a97.262 97.262 0 0 0-1.189 18.377c.177 3.788-.372 7.559-.256 11.343a8.735 8.735 0 0 1-.049.875c-.184 1.572.231 2.818 1.817 3.455a4.294 4.294 0 0 1 .367 3.17 1.08 1.08 0 0 1-.989.721z" fill="#398ac9"/><path data-name="Path 6915" d="M68.309 137.155c.57 1.484-.154 2.553-1.194 3.452a14.021 14.021 0 0 1-4.333 2.368 58.79 58.79 0 0 1-11.957 2.833c-7.835 1.206-15.719 1.145-23.6.929a81.873 81.873 0 0 1-9.214-.887 65.551 65.551 0 0 1-10.172-2.132 18.923 18.923 0 0 1-5.877-2.666c-.17-.126-.357-.231-.52-.365-1.871-1.548-1.915-3.289-.177-4.989.643-.63 1.51-.944 2.122-1.6a4.183 4.183 0 0 1 2.579 1.594 18.768 18.768 0 0 0 2.029 1.858c.385.287.8.678 1.335.234.5-.867-.079-1.534-.433-2.225a7.382 7.382 0 0 1-.975-2.038 1.351 1.351 0 0 1 .394-1.493 50.741 50.741 0 0 1 9.949-2.1 119.154 119.154 0 0 1 37.119.872 12.823 12.823 0 0 1 1.478.374 1.366 1.366 0 0 1 .947.915 13.923 13.923 0 0 0 1.389 2.493c-.539 1.192-.872 2.386-.018 3.585a3.14 3.14 0 0 0 2.213.3 24.149 24.149 0 0 0 5.944-1.266 1 1 0 0 1 .972-.046z" fill="#aaa"/><path data-name="Path 6916" d="M162.833 141.696a40.2 40.2 0 0 1-11.2 3.613c-2.575.511-5.178.811-7.772 1.169-1.085.15-2.191.192-3.287.283a121.551 121.551 0 0 1-13.35.26 106.688 106.688 0 0 1-11.885-.955 60.683 60.683 0 0 1-12.352-2.8 12.923 12.923 0 0 1-4.948-2.774c-1.568-1.56-1.561-2.913.01-4.482a12.464 12.464 0 0 1 4.591-2.648 56.5 56.5 0 0 1 10.455-2.6c.282-.048.6-.115.808.2a5.9 5.9 0 0 1-2.883 1.928c-.959.446-1.915.9-2.876 1.339a2.194 2.194 0 0 0-1.468 2.4c.107.7.612.855 1.2.858q6.327.035 12.655 0c.91 0 1.192-.471 1.006-1.308a32.77 32.77 0 0 0-.539-6.135.735.735 0 0 1 .347-.306 25.44 25.44 0 0 1 5.572-.1 178.915 178.915 0 0 0 18.274 0 4.737 4.737 0 0 1 1.137.022 1.2 1.2 0 0 1 .406.173.365.365 0 0 1 .133.367.579.579 0 0 1-.462.146.182.182 0 0 1-.138-.068c.165.216.732-.006.785.493a27.655 27.655 0 0 1 .126 4.261 1.87 1.87 0 0 0 .122.947 20.334 20.334 0 0 0 5.705 5.094 4.106 4.106 0 0 0 5.282-.707 2.96 2.96 0 0 0-.529-2.839c-1.035-1.627-2.264-3.121-3.245-4.785a1.7 1.7 0 0 1-.2-.538.679.679 0 0 1 .084-.377.947.947 0 0 1 .964-.1 25.737 25.737 0 0 1 7.9 3.078c.071.046.143.092.212.141 2.928 2.1 2.952 4.32.07 6.506-.211.14-.504.066-.71.244z" fill="#aaa"/><path data-name="Path 6917" d="M7.422 122.899c1.451-2.241 2.788-4.555 4.319-6.743a5.815 5.815 0 0 1 2.077-2.18 2.376 2.376 0 0 1 1.617.127 12.186 12.186 0 0 1 4.735 3.116c.462.506.9 1.059.454 1.811-1.443 1.654-3.382 2.72-4.976 4.2a29.954 29.954 0 0 0-4.086 3.86 22.81 22.81 0 0 0-2.293 2.727 2.531 2.531 0 0 1-2.849 1.167 2.149 2.149 0 0 1-1.3-1.552 3.994 3.994 0 0 1 .347-2.391 10.972 10.972 0 0 1 1.955-4.142z" fill="#f29972"/><path data-name="Path 6918" d="M59.921 123.048a12.151 12.151 0 0 0 .695 3.651 43.021 43.021 0 0 0 .962 5.347c.041.25.1.5.146.746a1.015 1.015 0 0 1 .055 1.044 2.868 2.868 0 0 1-2.777.815 5.05 5.05 0 0 1-1.334-2.076 2.773 2.773 0 0 0-.586-1.084 17.1 17.1 0 0 1-2.833-4.621 7.45 7.45 0 0 0-.79-1.679 4.906 4.906 0 0 0-.405-1.449c-.1-.359-.192-.721-.308-1.076a34.465 34.465 0 0 1-.693-3.194 2.357 2.357 0 0 1 .617-2.2 11.246 11.246 0 0 1 6.247-1.042c1.4.728 1.014 2.057 1.084 3.232.027.507-.01 1.015 0 1.521-.096.685.341 1.391-.08 2.065z" fill="#f29972"/><path data-name="Path 6919" d="M120.995 129.919a6 6 0 0 1 .826 3.1c.052 1.041.047 2.083.067 3.126a.986.986 0 0 1-.717.2 96.03 96.03 0 0 0-13.963.226 1.209 1.209 0 0 1-.857-.152 2.288 2.288 0 0 1 1.582-2.432 50.694 50.694 0 0 0 5.97-3.021c.576-.248.76-.918 1.3-1.207a2.111 2.111 0 0 1 .744-.578c1.697.137 3.471-.234 5.048.738z" fill="#14646d"/><path data-name="Path 6920" d="M5.112 129.43c.59.294.754 1 1.292 1.344a1.837 1.837 0 0 0 .853.1c1.2.043 1.309.215.916 1.432a3.239 3.239 0 0 0 .574 2.392c.329.587.7 1.156.991 1.759a1.215 1.215 0 0 1-.281 1.688 18.086 18.086 0 0 1-5.969-5.239 8.449 8.449 0 0 1-1.476-1.899 5.789 5.789 0 0 1 1.5-1.436 1.377 1.377 0 0 1 1.6-.141z" fill="#15646d"/><path data-name="Path 6921" d="M59.003 134.651a16.065 16.065 0 0 0 2.736-.919.582.582 0 0 1 .59-.153c1.107.595 2.4.766 3.424 1.548.581.41 1.3.124 1.935.408a8.067 8.067 0 0 1 1.15.457 2.757 2.757 0 0 1-1.821 1.056 26.554 26.554 0 0 1-8.114 1.375c-.923-1.056-.469-2.286-.407-3.458.006-.113.331-.208.507-.314z" fill="#15646d"/><path data-name="Path 6922" d="M58.904 138.428c.591-.442 1.309-.292 1.967-.4a33.753 33.753 0 0 0 7.969-2.034c.426.663-.238.829-.53 1.164a20.351 20.351 0 0 1-7.361 1.668 2.531 2.531 0 0 1-2.045-.398z" fill="#d09d06"/><path data-name="Path 6923" d="M2.015 131.012a4.044 4.044 0 0 1 1.455 1.377 20.183 20.183 0 0 0 5.1 4.879 2.551 2.551 0 0 1 .9.871c-.411.484-.818.261-1.223-.009a10.574 10.574 0 0 1-2.03-1.714 12.782 12.782 0 0 0-2.823-2.324 12.19 12.19 0 0 1-1.311-1.816c-.197-.407-.477-.821-.068-1.264z" fill="#d19d05"/><path data-name="Path 6924" d="M65.753 135.127a7.151 7.151 0 0 1-3.17-1.186c-.2-.168-.559-.144-.844-.209 0-.313-.009-.628-.014-.941a21.887 21.887 0 0 1 4.13 1.917c.4.28.18.341-.102.419z" fill="#89a2c3"/><path data-name="Path 6925" d="M99.384 14.555c.049-2.2.078-4.407.26-6.607a28.105 28.105 0 0 1 .409-2.89 4.35 4.35 0 0 1 4.152-3.944c.677-.068 1.351-.1 2.028-.123 8.7-.241 17.394-.166 26.09-.315q7.57-.132 15.141-.191c.466 0 .933.016 1.4.025a2.3 2.3 0 0 1 .4 1.692q.013 21.088 0 42.177a3.481 3.481 0 0 1-.212 1.5c-.52.621-.708.045-.874-.29a11.658 11.658 0 0 1-.8-2.271c-1.538-5.992-5.714-9.032-11.475-10.316a.648.648 0 0 1-.5-.337 8.953 8.953 0 0 1 .181-4.491c.892-1.394 2.134-2.518 3-3.935s1.592-2.811.878-4.533a7.285 7.285 0 0 1-.151-1.511 1.367 1.367 0 0 1 .811-1.647 3.367 3.367 0 0 0 1.748-2.794 2.15 2.15 0 0 0-1.09-2.145c-.761-.477-1.377-.04-1.982.364a5.439 5.439 0 0 0-2.072 2.188 1.7 1.7 0 0 1-1.4.943 24.376 24.376 0 0 1-4.564.252c-2.377-.022-4.269 2.243-4.115 5.138.024.438.431.6.664.895a1.591 1.591 0 0 1 .141 1.144 1.321 1.321 0 0 1-.53.68c-1.291 1.1-1.187 1.934.335 2.78a1.768 1.768 0 0 1 .314.214 3.613 3.613 0 0 1 .546 1.271 3.51 3.51 0 0 0 1.246 2.015c1.563.9 1.482 2.165.993 3.585a.776.776 0 0 1-.717.146c-3.22-.478-5.372 1.278-7.334 3.468-3.043 3.4-5.288 7.358-7.787 11.132a5.244 5.244 0 0 1-4.7 2.686 3.419 3.419 0 0 0-1.771.6 8.456 8.456 0 0 1-3.211-.6c-1.5-.483-2.658.18-3.984.943.686.565 1.274.2 1.819.22s1.182 0 1.387.632c.21.656-.317 1.03-.811 1.261a5.736 5.736 0 0 1-3.574.9c-.023-4.869.037-9.742-.088-14.609-.19-7.367-.1-14.734-.165-22.1 0-.3-.035-.591-.053-.886a11.947 11.947 0 0 0 .017-2.316z" fill="#398ac9"/><path data-name="Path 6926" d="M45.934 8.131c.588.07 1.18.118 1.762.216.738.126.918.42.684 1.144a5.522 5.522 0 0 1-.494 1.026c-.282.489-.359.873.357 1a.5.5 0 0 1 .357.331c-.218.415-.645.333-1 .426-1.141.294-1.351.539-1.429 1.748-.043.675-.048 1.353-.075 2.029a.922.922 0 0 1-.214.583.8.8 0 0 1-.224-.271c-.118-.276-.224-.558-.336-.837-.693-2.2-.693-2.2-2.974-2.2-.842 0-1.684-.005-2.526 0-2.1.013-2.608.574-2.435 2.674.056.242.131.479.2.716a2.1 2.1 0 0 1 .071.367c-.23 1.518-.032 2.869 1.411 3.766.367.229.774.539 1.169.378 1.668-.675 3.454-.177 5.141-.59a2.284 2.284 0 0 1 .364-.095h.19l.159.1c.91 3.3.1 5.02-3.014 6.376-.271.118-.548.221-.822.331-.977.943-1.9.254-2.738-.189a10.783 10.783 0 0 1-2.681-2.249 11.835 11.835 0 0 1-1.024-1.1 14.771 14.771 0 0 0-1.751-2.709 2.04 2.04 0 0 1-.572-1.213.617.617 0 0 1 .152-.322c.039-.011.081-.022.122-.031.631-.13 1.439.813 1.826.033.429-.867-.162-1.873-.317-2.813-.056-.338-.4-.226-.611-.062a2.768 2.768 0 0 0-.805 1.26c-.243.4-.032 1.074-.715 1.217-.82-.535-.781-1.482-1.092-2.263a2.041 2.041 0 0 1-.018-1.365 13.59 13.59 0 0 1 .038-3.9 3.825 3.825 0 0 1 1.063-1.976 8.205 8.205 0 0 1 5.086-2.312 23.84 23.84 0 0 1 5.786.485 4.192 4.192 0 0 0 1.929.291z" fill="#161330"/><path data-name="Path 6927" d="M148.601 46.115c.441-.42.243-.961.243-1.447q.018-21.25.01-42.5c0-.552.005-1.1.008-1.655l1.732-.056c.551.012 1.1.035 1.651.034.477 0 .7.214.695.69-.006.3 0 .594 0 .892q0 62.941-.01 125.883c0 .522.228 1.117-.291 1.554a1.089 1.089 0 0 1-1.192-.68 31.162 31.162 0 0 0-.531-4.081 5.134 5.134 0 0 0 .275-3.086 2.626 2.626 0 0 1-.1-.407c-.709-4.593-1.628-9.146-2.445-13.717a7.355 7.355 0 0 1-.161-1.763c-.1-16.025-.022-32.049-.048-48.074 0-.423-.022-.847.019-1.267a1.356 1.356 0 0 1 .674-1.273 3.144 3.144 0 0 0 .905-3.774c-.459-1.4-.913-2.807-1.414-4.2-.121-.349-.312-.709-.02-1.073z" fill="#f4f5f5"/><path data-name="Path 6928" d="M151.684 128.919l.957.587.3.486 1.471 2.015a.906.906 0 0 1 .077.238 1.367 1.367 0 0 0 .2.27l3.434 5.019a3.06 3.06 0 0 1 .519 2.868 7.911 7.911 0 0 1-7.45-1.179c-1.348-1.037-2.573-2.217-3.868-3.313a3.606 3.606 0 0 1-.475-.624l-.081-4.787c-.07-.072-.084-.129-.043-.169a.149.149 0 0 1 .1-.05l.04-.054c.158-.2.33-.432.59-.452a8.915 8.915 0 0 0 3.5-.987.724.724 0 0 1 .729.132z" fill="#14646d"/><path data-name="Path 6929" d="M148.601 46.115c.57 1.663 1.147 3.324 1.709 4.991a6.68 6.68 0 0 1 .315 1.212 2.892 2.892 0 0 1-1.073 2.917c-.332.251-.639.535-.958.8-.1.577-.616.771-1.008 1.079a60.678 60.678 0 0 1-5.2 3.433 1.619 1.619 0 0 0-.846 1.9c.146.748.179 1.519.338 2.261a1.7 1.7 0 0 1-.847 2.048 11.168 11.168 0 0 1-4.17 1.257 3.378 3.378 0 0 1-.613.1 11.257 11.257 0 0 0-2.713.179 6.132 6.132 0 0 1-1.3.108 65.487 65.487 0 0 1-7.174-.783 6.633 6.633 0 0 1-1.4-.355c-.746-.3-1.528-.5-2.272-.8-.469-.193-.946-.4-1.088-.969a1.945 1.945 0 0 1-.279-2.121c.672-2 1.375-4 1.964-6.029a34.81 34.81 0 0 0 .879-4.845c.4-.414.874-.25 1.316-.147a28.835 28.835 0 0 0 7.441.841 1.656 1.656 0 0 1 .255.016c2.193.255 2.748.668 1.426 2.627a3.649 3.649 0 0 0-.638 1.916c-.028.8.413 1.154 1.124.806a9.589 9.589 0 0 0 3.517-3.243 1.6 1.6 0 0 0-.093-1.59c-.351-.82-.716-1.633-1.031-2.469-.8-2.125-.434-3.4 1.386-4.785a10.94 10.94 0 0 0 2.888-2.465c.312-.477.983-1.059.51-1.536-.4-.409-.965.282-1.406.563-1.252.8-2.475 1.646-3.716 2.463a9.17 9.17 0 0 1-7.891 1.346c-1.51-.431-3.044-.792-4.515-1.345a1.864 1.864 0 0 0-2.5.712 46.834 46.834 0 0 1-4.079 4.2 3.211 3.211 0 0 0-1.068 1.833c-.1.806-.465 1.217-1.373 1.026-.758-.16-.992.317-.606.882.684 1 1.165 2.206 2.419 2.7.169.113.312.239.242.473-.337.174-.666.364-1.011.52a6.113 6.113 0 0 1-6.323-1.491.649.649 0 0 1-.067-.242 4.04 4.04 0 0 0-.98-5.21 1.308 1.308 0 0 1 1.377-.708 8.277 8.277 0 0 0 2.256-.276 3.069 3.069 0 0 0 2.015-1.614c1.83-2.744 3.679-5.475 5.5-8.226a23.422 23.422 0 0 1 5.2-5.834 5.907 5.907 0 0 1 5.708-1.129 3.632 3.632 0 0 0 2.756 1.879c1.319.112 1.808-.1 2.3-1.376.1-.272.145-.576.412-.76.625-.456 1.271-.105 1.818.091a21.452 21.452 0 0 1 6.432 3.5 11.068 11.068 0 0 1 3.111 4.726c.628 1.618 1.088 3.295 1.624 4.943z" fill="#fefefe"/><path data-name="Path 6930" d="M123.626 66.983l1.284.309c2.772.713 3.7 2.225 3.266 5.325-.489.972.054 1.955-.1 2.908.224.071.132.1.092-.014-.193-.509.02-1.074-.178-1.592a26.639 26.639 0 0 1 .92-4.2 2.042 2.042 0 0 1 1.876-1.484c.5-.079 1.02.067 1.489-.192l1.286-.048c.919-.237 1.875.095 2.791-.187l.535-.045a6.758 6.758 0 0 1 2.39-.061c.352.046.865.013.889.508.023.442-.434.58-.784.728a11.839 11.839 0 0 1-2.465.627 12.164 12.164 0 0 0-2.563.75c-.908.387-1.015.789-.4 1.546a16.187 16.187 0 0 1 1.527 1.874c.464.782.239 1.165-.685 1.213a3.855 3.855 0 0 1-.759-.076c-.509-.075-1.058-.184-1.393.332s0 .995.245 1.424c1.474 2.538 3.235 4.883 4.906 7.289a12.51 12.51 0 0 1 .974 1.492c.267.529.636 1.113.214 1.667-.464.608-1.162.386-1.772.221a21.721 21.721 0 0 1-2.41-.822c-.259-.1-.5-.345-.838-.173-.071.483.292.772.513 1.108 1.281 1.953 2.569 3.9 3.884 5.833a39.629 39.629 0 0 1 5.977 15.712 50.076 50.076 0 0 0 1.523 6.832 6.732 6.732 0 0 0 3.626 4.212 3.441 3.441 0 0 1 1.938 1.555c.351 1.1-.165 1.705-1.19 1.93a39.64 39.64 0 0 1-5.367.851c-1.511.12-2.252-.921-2.837-2.112a107.207 107.207 0 0 1-3.923-12.218c-1.9-6.422-3.741-12.864-5.937-19.194-.833-2.4-2.123-4.628-2.755-7.107a11.221 11.221 0 0 1-.21-1.366c.287.959-.11 2.108-.153 3.271-.532 2.889-1.517 5.656-2.259 8.487a61.434 61.434 0 0 0-1.5 11.082c-.416 5.535-.522 11.092-1.062 16.621a3.743 3.743 0 0 1-.351 1.347 2.271 2.271 0 0 1-2.365 1.342 29.26 29.26 0 0 1-5.429-.243c-1.777-.4-2.1-.713-2.374-2.427-.035-3.906.193-7.806.269-11.708a2.171 2.171 0 0 1 1.177-1.824c3.786-2.354 5.871-5.955 7.032-10.093.754-2.686.384-5.47-.011-8.207-.267-1.846-.553-3.69-.846-5.533a5.8 5.8 0 0 1 1.86-5.641 20.922 20.922 0 0 0 2.316-2.359c.721-.881.622-1.356-.366-1.916a5.8 5.8 0 0 1-1.635-1.191c-.665-.777-.563-1.193.368-1.657.533-.266 1.482-.211 1.384-1.037-.089-.743-.982-.834-1.6-1.082a16.809 16.809 0 0 1-2.374-.9c-.479-.284-.983-.658-.788-1.3s.821-.678 1.379-.64a9.758 9.758 0 0 1 1.749.253z" fill="#14646d"/><path data-name="Path 6931" d="M123.626 66.982c-.762.013-1.524.016-2.286.043-.307.011-.6.113-.673.465-.059.29.178.451.343.639a2.679 2.679 0 0 0 1.24.611 20.866 20.866 0 0 1 2.741 1c.415.218.912.428.891.971-.024.589-.553.818-1.025 1.013-.348.144-.737.189-1.088.33-.627.251-.659.4-.232.894a5.53 5.53 0 0 0 1.836 1.337c1.262.606 1.4 1.253.486 2.328-.438.516-.945.973-1.425 1.454-.36.359-.7.739-1.092 1.066-1.723 1.454-1.972 3.322-1.665 5.418.524 3.591 1.319 7.149 1.227 10.819a11.826 11.826 0 0 1-.8 4.339 19.147 19.147 0 0 1-4.693 7.321 14.665 14.665 0 0 1-2.048 1.5 3.075 3.075 0 0 0-1.385 1.576 119.013 119.013 0 0 1 .384-12.325 106.779 106.779 0 0 1 2.926-15.979c.86-3.712 1.867-7.394 2.358-11.182.168-1.3.253-2.613.387-3.919.042-.41-.09-.862.266-1.2.984.77 2.236.945 3.327 1.481z" fill="#4ba3a7"/><path data-name="Path 6932" d="M116.222 57.07a1.381 1.381 0 0 1-1.363-.764 21.394 21.394 0 0 0-1.324-1.863 1.6 1.6 0 0 1-.283-.566c-.24-.782.206-1.247 1.007-1.067 1.035.233 1.045.233 1.208-.833a2.682 2.682 0 0 1 .871-1.513q1.945-1.929 3.882-3.866a2.5 2.5 0 0 0 .845-1.093c.163-.664.668-.716 1.2-.646a6.143 6.143 0 0 1 1.226.315c1.477.525 3 .913 4.5 1.347a8.738 8.738 0 0 0 7.624-1.266c1.444-.967 2.9-1.921 4.348-2.875a4.232 4.232 0 0 1 .88-.5c.566-.2.89.129.721.733a5.519 5.519 0 0 1-1.91 2.77c-.814.679-1.754 1.177-2.548 1.892a2.816 2.816 0 0 0-.79 3.342c.334.915.719 1.811 1.107 2.7.695 1.6.653 1.928-.561 3.146a12.448 12.448 0 0 1-2.468 2.19 3.669 3.669 0 0 1-.91.433c-.751.182-1.12-.118-1.187-.886a4.2 4.2 0 0 1 .539-2.2c.165-.341.388-.654.584-.981.576-.961.513-1.056-.634-1.326a5.091 5.091 0 0 0-1.38-.178 27.217 27.217 0 0 1-7.529-.911 4.395 4.395 0 0 0-1.006-.108c-2.182.706-3.73 2.306-5.359 3.793a3.249 3.249 0 0 1-1.29.781z" fill="#d8d8d8"/><path data-name="Path 6933" d="M108.092 50.901c.246.063.489.14.739.186a1.155 1.155 0 0 1 .987 1.271c.038.974.068 1.95.17 2.919.081.76-.66.506-.916.834-.78.319-1.549.667-2.341.951a5.642 5.642 0 0 0-1.941 1.168c-1.238 1.137-2.724.959-4.2.857a.445.445 0 0 1-.3-.192c-.112-.185.042-.3.173-.407.22-.18.571-.176.722-.555h-1.714c-.223-.088-.534-.148-.483-.453.053-.322.4-.373.663-.471.768-.54 1.751-.483 2.507-.979a4.683 4.683 0 0 1-2.583.594 3.728 3.728 0 0 1-1.726-.3c-.481-.267-.529-.532-.065-.828.6-.383 1.251-.69 1.88-1.031.806-.24 1.621-.455 2.416-.727a9.3 9.3 0 0 0 1.373-.64c.249-.134.569-.3.489-.656-.092-.413-.473-.434-.811-.437a9.541 9.541 0 0 0-1.007.063 4.824 4.824 0 0 1-.747.106c-.417-.025-.948-.057-1.045-.528-.086-.421.389-.6.729-.752.693-.305 1.392-.6 2.1-.863a2.281 2.281 0 0 1 1.484.092 17.649 17.649 0 0 0 3.447.778z" fill="#f29972"/><path data-name="Path 6934" d="M108.273 72.13a3.566 3.566 0 0 1-3.743-3.488 3.7 3.7 0 0 1 3.71-3.433 3.825 3.825 0 0 1 3.665 3.495 3.516 3.516 0 0 1-3.632 3.426z" fill="#92a8cb"/><path data-name="Path 6935" d="M120.994 129.919a1.456 1.456 0 0 0-.971-.163 10.528 10.528 0 0 1-4.078-.579 13.945 13.945 0 0 0-.164-3.236c.006-.042 0-.093.02-.124 1.019-1.428 4.982-1.431 6.005-.007.16 1.423.4 2.864-.749 4.046z" fill="#f19972"/><path data-name="Path 6936" d="M121.592 125.934a1.136 1.136 0 0 0-1.127-.816 26.777 26.777 0 0 0-3.864.291 1.523 1.523 0 0 0-.824.533c-1.646-.375-2.061-.855-2.1-2.486-.015-.547.021-1.1.032-1.644a2.643 2.643 0 0 0 2.494 2.084 41.847 41.847 0 0 0 5.946.231c.782.025 1.068-.572 1.475-1.036a2.135 2.135 0 0 1-.232 2.658 1.231 1.231 0 0 1-1.8.185z" fill="#4ba3a7"/><path data-name="Path 6937" d="M116.222 57.07a2.8 2.8 0 0 1 1.284-.777 2.319 2.319 0 0 1-1.032 1.031z" fill="#eaf0f6"/><path data-name="Path 6938" d="M121.597 125.933c1.814-.07 1.889-.139 2.018-1.957.021-.293.007-.59.01-.886a63.227 63.227 0 0 0 .671-7.09c.244-3.427.392-6.862.572-10.293a62.557 62.557 0 0 1 2.917-16.606c.4-1.2.652-2.456.971-3.685.306-.6-.092-1.568.948-1.77 1.038 3.278 2.63 6.338 3.7 9.61 2.344 7.174 4.343 14.449 6.506 21.676.718 2.4 1.443 4.79 2.34 7.125a1.592 1.592 0 0 1 .115.357c.488 1.893 1.172 3.567 3.641 3.25.158-.02.306.125.429.249.441 1.327 1.168 2.628.375 4.068-5.921.449-11.855.289-17.776.167-2.653-.056-5.325.008-7.976-.292a9.844 9.844 0 0 0 .539-3.923z" fill="#398ac9"/><path data-name="Path 6939" d="M106.351 136.416a16.045 16.045 0 0 1 4.393-.528c2.834-.06 5.669-.03 8.5-.045a10.319 10.319 0 0 1 2.64.3 2.138 2.138 0 0 1 .213.857.725.725 0 0 1-.731.849 10.18 10.18 0 0 1-1.018.041q-6.305-.007-12.61-.019h-.255c-1.272-.042-1.304-.093-1.132-1.455z" fill="#d59e01"/><path data-name="Path 6940" d="M146.807 129.982c.2-1.4-.405-2.694-.558-4.048a10.362 10.362 0 0 1 4.834-1.312 8.939 8.939 0 0 1 .6 4.3 2.21 2.21 0 0 0-1.276.442 2.886 2.886 0 0 1-2.315.67 3.776 3.776 0 0 0-1.219.2 2.06 2.06 0 0 0-.066-.252z" fill="#f29972"/><path data-name="Path 6941" d="M147.34 135.551c1.1.922 2.228 1.805 3.283 2.773a7.916 7.916 0 0 0 6.508 2.141c.5-.056 1.01-.044 1.516-.064a2.519 2.519 0 0 1-2.308 1.511 5.5 5.5 0 0 1-4.114-.878 53.174 53.174 0 0 1-4.84-4.267 1 1 0 0 1-.338-.665c-.122-.298-.183-.569.293-.551z" fill="#d49e03"/><path data-name="Path 6942" d="M146.835 130.281a.559.559 0 0 1-.062.219l-.85-.051a.97.97 0 0 1 .912-.168z" fill="#6590ba"/><path data-name="Path 6943" d="M147.34 135.552c-.226.116-.253.337-.293.551a.824.824 0 0 1-.193-.817c.196.027.39.059.486.266z" fill="#a89b2b"/><path data-name="Path 6944" d="M154.695 132.515a.3.3 0 0 1-.2-.27z" fill="#39619a"/><path data-name="Path 6945" d="M13.773 114.173c.135-.256.463-.356.5-.706.191-1.9 1.327-3.353 2.372-4.835 1.458-2.069 3.13-3.979 4.428-6.17a20.69 20.69 0 0 0 2.955-8.8c.217-2.375.1-4.734.193-7.1.076-1.98.235-3.951.5-5.917.108-.8.607-1.5.531-2.337.368-.45.873-.285 1.29-.2a20.373 20.373 0 0 0 5.9-.059 2.755 2.755 0 0 1 1 0c1.153 1.9 2.414 3.727 2.091 6.177a12.519 12.519 0 0 1-2.182 5.237 24.965 24.965 0 0 0-3.606 6.984 31.767 31.767 0 0 0-.84 4.244 10.842 10.842 0 0 1-3.66 7.2 9.814 9.814 0 0 0-1.735 2.028 1.5 1.5 0 0 0-.229 1.667 1.613 1.613 0 0 0 1.663.693 2.632 2.632 0 0 0 1.666-.837 12.855 12.855 0 0 0 3.2-5.159c2.024-5.112 4.829-9.825 7.254-14.732 1.457-2.947 2.6-6.005 2.395-9.4a7.694 7.694 0 0 0-.4-2.245 2.551 2.551 0 0 0-2.47-1.858 2.269 2.269 0 0 1-1.355-.248 5.914 5.914 0 0 1 2.127-2.334 17.746 17.746 0 0 0 9.33-1.388 1.573 1.573 0 0 1 .741-.149 5.608 5.608 0 0 1 2.818 2.209c1.771 3.8 3.431 7.644 5.265 11.412a35.71 35.71 0 0 1 2.863 9.294 83.364 83.364 0 0 1 1.089 8.9 71.038 71.038 0 0 0 .676 7.547 6.592 6.592 0 0 1 .031 1.143c0 1.467 0 1.467-1.271 2.023a18.519 18.519 0 0 0-6.13.993c-3.444.708-4.185.15-4.659-3.374-.519-3.858-.666-7.787-2.047-11.49a71.089 71.089 0 0 0-3.96-9.229c-.368-.676-.663-1.668-1.624-1.574-.88.086-.991 1.068-1.262 1.755a122 122 0 0 1-5.5 12.859 51.4 51.4 0 0 1-8.572 11.64c-1.718 1.769-3.115 2-4.7.963a.988.988 0 0 0-.115-1.177 10.949 10.949 0 0 0-6.035-3.671 2.061 2.061 0 0 0-.526.021z" fill="#4ba3a7"/><path data-name="Path 6946" d="M33.627 78.252c-.79.092-1.583.16-2.368.281a20.837 20.837 0 0 1-6.015-.218 10.157 10.157 0 0 1-2.258-.84 3.536 3.536 0 0 1-1.858-3 9.934 9.934 0 0 1 .644-3.862c.568-1.686 1.232-3.342 1.65-5.076a28.16 28.16 0 0 0 .632-6.57 100.063 100.063 0 0 0-.766-11.289 65.065 65.065 0 0 1-.616-7.858 9.987 9.987 0 0 1 6.892-9.814 2.061 2.061 0 0 0 .906-.435c.822-.581 1.54-.167 2.212.283a5.034 5.034 0 0 1 1.48 1.55 9.772 9.772 0 0 0 5.158 3.9 1.685 1.685 0 0 0 2.474-1.17 3.61 3.61 0 0 0 .069-1.877 16 16 0 0 1-.119-3.538c.012-.424-.069-.989.622-1.048a2.322 2.322 0 0 1 1.389.832 36.09 36.09 0 0 1 3.081 3.386 14.644 14.644 0 0 1 2.613 6.678 30.926 30.926 0 0 1 .553 6.706 8.145 8.145 0 0 0 2.581 6.394c1 .981 2.012 1.944 3.09 2.84a14 14 0 0 0 5.669 2.759 3.431 3.431 0 0 1 1.415.517c-.479.663-1.251.642-1.929.751-1.073.171-1.636.637-1.636 1.807a9.056 9.056 0 0 0-.021 2.868 4.328 4.328 0 0 1-.074 1.816c-1.561.1-1.938 1.515-2.737 2.462a1.507 1.507 0 0 1-.847.521 9.287 9.287 0 0 1-2.507-1.181c-.805-.462-1.584-.971-2.392-1.43-.46-.262-1.007-.831-1.456-.493-.522.392.049 1 .2 1.5a13.69 13.69 0 0 0 .519 1.292 31.022 31.022 0 0 1 1.736 5.417 9.689 9.689 0 0 1 .216 2.138c-.014 1-.246 1.162-1.226.973l-.373-.07a16.9 16.9 0 0 1-2.568-1.991 3.6 3.6 0 0 1-1.723-1.947 28.322 28.322 0 0 1-1.881-5.523c-.573-2.275-2.331-3.228-4.119-4.192-.8-.432-.817.3-.834.785-.081 2.37-.307 4.728-.537 7.084a33.393 33.393 0 0 1-.567 3.765 2.3 2.3 0 0 1-.8 1.536 4.84 4.84 0 0 1-1.992 2.046 1.411 1.411 0 0 1-1.582.535z" fill="#fefefe"/><path data-name="Path 6947" d="M55.513 68.004a7.153 7.153 0 0 0 1.93-3.166c.541-.124.866.394 1.335.339a7.551 7.551 0 0 1 2.51-.823c.37.047.155-.262.207-.1.132.419-1.641-.319-2.534-1.055a1 1 0 0 1-.322-.911c.086-1 .159-2.008.248-3.011.055-.623.506-.813 1.035-.918.946-.188 1.891-.385 2.835-.58a3.517 3.517 0 0 0 .615-.144c1.623-.707 2.952.147 4.315.807a.545.545 0 0 1 .356.612c-.069.3-.348.354-.6.358-.549.007-1.1-.025-1.649-.028a4.477 4.477 0 0 0-.884.051.6.6 0 0 0-.38.29.424.424 0 0 0 .229.531 8.346 8.346 0 0 0 2.316 1.021 12.825 12.825 0 0 1 3.075 1.171c.954.529.945.665-.055 1.272a4.691 4.691 0 0 1-3.052-.169 16.383 16.383 0 0 1 1.547.625c.082.024.165.042.245.07.24.086.506.168.468.5-.029.261-.283.32-.473.354-.446.082-.9.112-1.364.166.113.4.629.319.719.691-.026.13-.08.248-.221.264a5.73 5.73 0 0 1-3.722-.375.7.7 0 0 0-.831.029.655.655 0 0 0-.331.517c.017.224.23.333.453.378a9.476 9.476 0 0 0 3.518.365 5.52 5.52 0 0 1 2.14.19.331.331 0 0 1 .29.353.454.454 0 0 1-.218.289 2.338 2.338 0 0 1-1.1.3 2.59 2.59 0 0 0-1.737.691 20.971 20.971 0 0 0-2.79 2.4 1.262 1.262 0 0 1-1.367.458 7.731 7.731 0 0 1-4.134-2.111 5.639 5.639 0 0 0-2.622-1.701z" fill="#f29972"/><path data-name="Path 6948" d="M42.366 27.669a1.577 1.577 0 0 0-.336 1.305 20.73 20.73 0 0 0 .2 3.409 3.93 3.93 0 0 1-.2 2.244 1.835 1.835 0 0 1-2.464 1.148 10.391 10.391 0 0 1-5.63-4.082 3.679 3.679 0 0 0-3.471-2.118 3.829 3.829 0 0 1 .511-.708 26.674 26.674 0 0 0 4.978-5.3 35.187 35.187 0 0 0 3.227 3.021 3.452 3.452 0 0 0 3.072.759z" fill="#f29972"/><path data-name="Path 6949" d="M45.648 20.864a3.408 3.408 0 0 1-1.971.256 5 5 0 0 0-2.949.419 1.2 1.2 0 0 1-.863.086 3.485 3.485 0 0 1-2.587-3.424c.045-.457.106-.912.159-1.368a.491.491 0 0 1 .319-.147 1.285 1.285 0 0 1 1.241.7c.31.719.768 1.261 1.638.982s.882-1.013.755-1.765a.9.9 0 0 1 .058-.495 1.017 1.017 0 0 1 1.178-.06.865.865 0 0 1 .086.611 1.173 1.173 0 0 0 .668 1.47c.742.289 1.19-.154 1.521-.762.266-.327.164-1.091.948-.808l.03.076.023 3.476c.106.177.153.348-.056.488h.005a1.173 1.173 0 0 1-.203.265z" fill="#f19872"/><path data-name="Path 6950" d="M68.589 64.178a3.29 3.29 0 0 1-2.515-1.03 11.39 11.39 0 0 0 4.021.573c-.396.503-1.095.008-1.506.457z" fill="#638db6"/><path data-name="Path 6951" d="M99.579 56.624l2.867-.856c-.714 1-1.774 1.067-2.792 1.242-.026-.128-.05-.257-.075-.386z" fill="#ced4e1"/><path data-name="Path 6952" d="M45.846 20.598l.056-.488a.5.5 0 0 1 .193.53 1 1 0 0 1-.249-.042z" fill="#363758"/><path data-name="Path 6953" d="M127.243 21.515c-1.084-.292-1.084-.292-.962-1.346a9.278 9.278 0 0 0 .119-1.009 4.524 4.524 0 0 1 4.706-4.18 27.685 27.685 0 0 0 4.186-.145c.423-.02.853-.032 1.021-.56a5.331 5.331 0 0 1 2.53-2.741 2.118 2.118 0 0 1 3.4 1.8 3.785 3.785 0 0 1-2.029 3.555 5.539 5.539 0 0 1-.785.308c.473 1.163.278 2.409.662 3.589a3.148 3.148 0 0 1-.492 2.311 16.388 16.388 0 0 1-3.745 4.907 1.54 1.54 0 0 1 .057-2.172 2.554 2.554 0 0 0 .6-2c-.034-.3-.1-.6-.464-.671a.682.682 0 0 0-.655.3c-.082.1-.143.208-.219.31-.264.354-.425.954-1.019.726-.545-.211-.589-.767-.577-1.3.038-1.591.033-1.626-1.583-1.5-1.2.1-1.675-.54-1.79-1.7-.745 1.72-1.246 1.96-2.961 1.518z" fill="#161330"/><path data-name="Path 6954" d="M127.242 21.515a.971.971 0 0 1 .735-.119c1.092.219 1.469-.05 1.8-1.241.091-.323.211-.637.317-.959.4.116.346.449.4.718.34 1.654.4 1.7 1.983 1.387.166-.033.328-.094.5-.111.823-.086 1.082.148 1.064.987-.006.294-.074.587-.109.881a1.334 1.334 0 0 0 .343 1.312c.474-.225.5-.758.764-1.116.292-.4.612-.735 1.15-.615s.686.576.742 1.063a2.141 2.141 0 0 1-.466 1.913 2.293 2.293 0 0 0-.613 2.387 19.5 19.5 0 0 0-.234 4.855c-.066 2.182-1.038 2.851-3.233 2.35-1.585-.362-1.986-.673-2.235-2.094.025-.167.045-.335.076-.5.216-1.2.216-2.219-1.14-2.9-.834-.422-1.087-1.467-1.361-2.364-.111-.363-.181-.737-.27-1.107a6.072 6.072 0 0 1 1.344-1.9 1.235 1.235 0 0 1 .895.014c.234.142.292.4.4.623.249.545.629.928 1.271.768a1.142 1.142 0 0 0 .827-1.142 1.2 1.2 0 0 0-.744-1.323.977.977 0 0 0-1.291.456c-.095.138-.175.287-.281.417-.371.215-.786.014-1.169.118-.556-.472-1.035-1.025-1.552-1.537a3.787 3.787 0 0 1 .087-1.221z" fill="#f29972"/><path data-name="Path 6955" d="M127.15 22.731a1.917 1.917 0 0 1 1.545 1.428.222.222 0 0 1 .035.391 2.463 2.463 0 0 1-1.275 1.688c-1.02-.175-1.664-.7-1.779-1.455-.126-.809.391-1.529 1.474-2.052z" fill="#f3f4f4"/><path data-name="Path 6956" d="M37.815 16.84l-.377-.009h.013c-.114-.163-.08-.4-.259-.529a2.134 2.134 0 0 1-.26-1.577 1.963 1.963 0 0 1 1.95-1.792c1.641.011 3.28.092 4.921-.015a1.239 1.239 0 0 1 1.387 1.023c.164.609.315 1.221.471 1.831a.339.339 0 0 1 .015.332.736.736 0 0 1-.394.336.818.818 0 0 1-.517-.03c-.654-.458-1.425-.2-2.131-.345a1.442 1.442 0 0 1-1.174.016c-.82.233-1.823-.279-2.485.608a1.444 1.444 0 0 1-.48.2.937.937 0 0 1-.68-.049z" fill="#f19972"/><path data-name="Path 6957" d="M33.587 17.839a2.8 2.8 0 0 1 1.229-1.691c.47-.269.759-.169.779.332.036.895.364 1.725.48 2.6.137 1.031-.21 1.327-1.187 1.063a3.594 3.594 0 0 1-1.226-.622 2.817 2.817 0 0 1-.075-1.682z" fill="#ec9570"/><path data-name="Path 6958" d="M45.575 16.049l.086-.28a.689.689 0 0 1 .189.786c-.242.026-.489.041-.5.378a.814.814 0 0 1-.221.657 1.051 1.051 0 0 1-.227-1.351l.464.056a1.017 1.017 0 0 0 .209-.246z" fill="#71524b"/><path data-name="Path 6959" d="M33.587 17.84l.076 1.68-.026.354a1.241 1.241 0 0 1-.457-.811c.388-.323.002-.905.407-1.223z" fill="#2f395b"/><path data-name="Path 6960" d="M37.196 16.302a.47.47 0 0 1 .259.53c-.288-.08-.264-.311-.259-.53z" fill="#f19872"/><path data-name="Path 6961" d="M45.647 20.863a.282.282 0 0 1 .2-.267.245.245 0 0 1-.2.267z" fill="#363758"/><path data-name="Path 6962" d="M151.421 121.55a9.522 9.522 0 0 0-2.383-1.43 6.285 6.285 0 0 1-3.293-3.691 41.631 41.631 0 0 1-1.734-7.4 42.763 42.763 0 0 0-3.576-11.611 75.528 75.528 0 0 0-5.075-8.066q-.781-1.16-1.549-2.33a6.913 6.913 0 0 1-.381-.661c-.1-.19-.176-.4-.009-.59s.394-.129.585-.034a21.267 21.267 0 0 0 3.2 1.231 3.126 3.126 0 0 0 .992.191c.652-.016.853-.265.635-.881a8.122 8.122 0 0 0-1.151-1.973c-1.554-2.171-3.108-4.342-4.542-6.594a16.55 16.55 0 0 1-.812-1.438c-.212-.415-.474-.877-.139-1.313a1.535 1.535 0 0 1 1.5-.51c.334.042.66.151.994.192a1.16 1.16 0 0 0 .815-.122 4.545 4.545 0 0 0-1.144-1.707c-.285-.368-.663-.667-.928-1.046-.558-.8-.407-1.307.5-1.683a17.571 17.571 0 0 1 3.792-1.022 9.757 9.757 0 0 0 2.494-.819 13.757 13.757 0 0 0-3.331-.484 23.731 23.731 0 0 1 2.324-.546 6.641 6.641 0 0 0 1.761-.7c.823-.268.787.441.89.858.324 1.319.485 2.671.72 4.009 1.8 10.241 3.832 20.439 5.742 30.659.249 1.334.287 2.689.5 4.025.222 2.276.8 4.491 1.178 6.74.428 2.542.92 5.073 1.368 7.611a8.867 8.867 0 0 1 .057 1.135z" fill="#4ba3a7"/><path data-name="Path 6963" d="M148.817 106.064a60.414 60.414 0 0 1-1.225-5.954q-1.373-6.979-2.677-13.975c-1.111-5.909-2.245-11.814-3.212-17.749-.081-.5-.191-1-.286-1.5-.048-.251-.238-.327-.453-.376a1.4 1.4 0 0 0 .6-1.724 33.547 33.547 0 0 1-.5-3.375c-.082-.5.286-.554.549-.723 2.355-1.506 4.714-3 6.976-4.65.355.29.255.7.255 1.064q.005 24.29 0 48.58c.009.129-.014.256-.027.382z" fill="#398ac9"/><path data-name="Path 6964" d="M151.084 124.622a27.1 27.1 0 0 1-4.834 1.311c-.668-.021-1.341 0-2-.075-1-.112-1.359-.467-1.568-1.469-.161-.773-.288-1.553-.43-2.33.265.175.32.485.474.732a2.176 2.176 0 0 0 2.528 1.142c1.586-.174 3.156-.445 4.717-.754 1.322-.262 1.322-.318 1.452-1.63.299 1.069.653 2.143-.339 3.073z" fill="#4ba3a7"/><path data-name="Path 6965" d="M124.821 60.731a5.984 5.984 0 0 1 4.616-.955 7.96 7.96 0 0 1 .958.339 2.985 2.985 0 0 0 2.9-.116 7.328 7.328 0 0 0 2.084 3.316 6.06 6.06 0 0 0-2.974 1.962 8.132 8.132 0 0 1-3.947 1.933 1.325 1.325 0 0 1-1.467-.512 23.937 23.937 0 0 0-2.979-2.547 3.627 3.627 0 0 0-1.768-.644c-.286-.068-.585-.094-.864-.183a.409.409 0 0 1-.287-.378c-.009-.213.154-.3.3-.366a3.206 3.206 0 0 1 1.378-.154 13.733 13.733 0 0 0 3.792-.246c.2-.061.419-.072.615-.146s.429-.123.427-.4c0-.233-.172-.373-.326-.517a1.15 1.15 0 0 0-.838-.216 4.267 4.267 0 0 1-1.62-.17z" fill="#f29972"/><path data-name="Path 6966" d="M127.94 72.606c0-.5.015-1 0-1.5a3.579 3.579 0 0 0-2.267-3.427c-.259-.113-.59-.094-.761-.385 2.442.371 4.9.549 7.361.749-.53.4-1.213.265-1.791.524-.649.291-1.235.618-1.326 1.395-.158 1.351-.723 2.6-.957 3.93-.66-.318-.33-.827-.259-1.286z" fill="#4ca3a7"/><path data-name="Path 6967" d="M140.278 53.772a4.291 4.291 0 0 1 1.021-3.5c.435-.564.979-.383 1.19.331a2.15 2.15 0 0 1-.591 2.081 4.561 4.561 0 0 1-1.62 1.088z" fill="#c7e0f5"/><path data-name="Path 6968" d="M136.346 67.806a5.909 5.909 0 0 1-2.791.187 8.235 8.235 0 0 1 2.791-.187z" fill="#4ba3a7"/><path data-name="Path 6969" d="M129.703 83.647c-.752.356-.467 1.268-.948 1.77a19.091 19.091 0 0 0 .154-4.133 5.564 5.564 0 0 1 .794 2.363z" fill="#40979c"/><path data-name="Path 6970" d="M127.94 72.606c.092.426-.156.92.255 1.283v1.744c-.023-1.016-.878-1.976-.255-3.027z" fill="#3f969a"/><path data-name="Path 6971" d="M33.627 78.253l1.575-.545h1.526a2.584 2.584 0 0 1 2.348 1.471 6.3 6.3 0 0 1 .7 2.678 17.326 17.326 0 0 1-1.5 7.784 62.657 62.657 0 0 1-3.9 7.712 74.761 74.761 0 0 0-3.785 8.047c-.617 1.446-1.329 2.844-2.078 4.223a9.842 9.842 0 0 1-1.947 2.336 2.691 2.691 0 0 1-2.356.682 1.628 1.628 0 0 1-1.25-2.554 12.941 12.941 0 0 1 1.249-1.6 6.645 6.645 0 0 1 .808-.811 10.508 10.508 0 0 0 3.565-7.21 21.427 21.427 0 0 1 3.919-10.334 12.909 12.909 0 0 0 2.522-4.948c.417-2.067.383-4.068-1.263-5.683a.884.884 0 0 1-.133-1.248z" fill="#14646d"/><path data-name="Path 6972" d="M37.196 75.662a25.762 25.762 0 0 0 1.066-5.843c.221-2.316.449-4.628.505-6.956a2.779 2.779 0 0 1 .093-.625c.117-.455.349-.659.819-.365 1.005.628 2.041 1.209 3.019 1.875a4 4 0 0 1 1.414 2.21c.5 1.528.991 3.06 1.5 4.585a9.673 9.673 0 0 0 2.051 3.61c-.469-.081-.782.26-1.167.413a18.481 18.481 0 0 1-8.068 1.375 7.608 7.608 0 0 1-1.232-.279z" fill="#b6b6b7"/><path data-name="Path 6973" d="M58.961 63.2c1.006.159 1.782.874 2.773 1.118-1 .313-1.842 1.062-2.956.861q.09-.99.183-1.979z" fill="#438cc7"/><path data-name="Path 6974" d="M37.815 16.841a.936.936 0 0 0 .671-.023c.072-.1.18-.165.247-.269.987-1.012 1.357-1.075 2.727-.468.116.309.361.548.38.917a1.619 1.619 0 0 1-1.256 1.787 1.494 1.494 0 0 1-1.787-1.024 1.1 1.1 0 0 0-.982-.92z" fill="#39302d"/><path data-name="Path 6975" d="M44.905 16.242a4.107 4.107 0 0 1 .227 1.351c-.651.969-1.265 1.217-2.03.818-.85-.441-1-1.194-.469-2.346.796-.425 1.575-.643 2.272.177z" fill="#362e2c"/><path data-name="Path 6976" d="M129.64 24.205c.473-1.4 1.366-1.811 2.315-1.07a1.764 1.764 0 0 1 .5 1.96 1.55 1.55 0 0 1-1.422 1.073 1.585 1.585 0 0 1-1.343-1.32 3.627 3.627 0 0 1-.066-.375.3.3 0 0 1 .016-.268z" fill="#f4f3f3"/><path data-name="Path 6977" d="M129.64 24.205l-.016.268-.9.077-.035-.39a.737.737 0 0 1 .951.045z" fill="#795248"/><path data-name="Path 6978" d="M38.733 16.55c-.012.154-.074.263-.247.269z" fill="#f19872"/><path data-name="Path 6979" d="M45.576 16.051a.2.2 0 0 1-.206.247z" fill="#f19872"/></g></g></g></svg>