<svg xmlns="http://www.w3.org/2000/svg" width="26.858" height="26.858" viewBox="0 0 26.858 26.858"><path data-name="Icon awesome-plus-circle" d="M13.429 0a13.429 13.429 0 1 0 13.429 13.429A13.427 13.427 0 0 0 13.429 0zm7.8 14.945a.652.652 0 0 1-.65.65h-4.985v4.982a.652.652 0 0 1-.65.65h-3.032a.652.652 0 0 1-.65-.65v-4.982H6.281a.652.652 0 0 1-.65-.65v-3.033a.652.652 0 0 1 .65-.65h4.982V6.281a.652.652 0 0 1 .65-.65h3.032a.652.652 0 0 1 .65.65v4.982h4.982a.652.652 0 0 1 .65.65z" fill="#1784cf"/></svg>