<svg xmlns="http://www.w3.org/2000/svg" width="25.046" height="28.623" viewBox="0 0 25.046 28.623"><path data-name="Icon metro-file-picture" d="M21.467 25.046H3.578v-3.574l5.367-8.945 7.356 8.945 5.171-3.578zm0-11.628a2.683 2.683 0 1 1-2.683-2.683 2.683 2.683 0 0 1 2.683 2.682zm2.4-7.014a25.347 25.347 0 0 0-2.437-2.787 25.352 25.352 0 0 0-2.787-2.437A4.458 4.458 0 0 0 16.101 0H2.236A2.239 2.239 0 0 0 .001 2.236v24.151a2.239 2.239 0 0 0 2.236 2.236h20.572a2.239 2.239 0 0 0 2.236-2.236V8.945a4.458 4.458 0 0 0-1.179-2.542zm-3.7-1.522a24.4 24.4 0 0 1 2.029 2.275h-4.3v-4.3a24.373 24.373 0 0 1 2.275 2.029zm3.092 21.506a.453.453 0 0 1-.447.447H2.236a.453.453 0 0 1-.447-.447V2.236a.453.453 0 0 1 .447-.447h13.865V8.05a.894.894 0 0 0 .894.894h6.261z" fill="gray"/></svg>