<svg xmlns="http://www.w3.org/2000/svg" width="24.523" height="28.516" viewBox="0 0 24.523 28.516"><path data-name="Icon zocial-appstore" d="M.029 14.229Q0 14.742 0 15.256a16.141 16.141 0 0 0 .57 4.106 18.072 18.072 0 0 0 2.367 5.247q2.538 3.878 4.9 3.907a5.9 5.9 0 0 0 2.224-.6 6.721 6.721 0 0 1 2.709-.6h.114a6.346 6.346 0 0 1 2.595.57 5.463 5.463 0 0 0 2.168.627 3.821 3.821 0 0 0 2.595-1.169 17.828 17.828 0 0 0 2.423-2.966 28.85 28.85 0 0 0 1.854-3.45 6.273 6.273 0 0 1-2.424-1.625 5.843 5.843 0 0 1-1.369-2.424 6.534 6.534 0 0 1-.256-2v-.684a5.388 5.388 0 0 1 .954-2.609 6.364 6.364 0 0 1 2.239-2.01A8 8 0 0 0 21.13 7.44a6.22 6.22 0 0 0-2.937-.77 8.655 8.655 0 0 0-3.008.613 7.865 7.865 0 0 1-2.437.613 8.627 8.627 0 0 1-2.581-.613 8.975 8.975 0 0 0-2.894-.613 6.336 6.336 0 0 0-3.263.958 8.11 8.11 0 0 0-3.978 6.6zm11.834-7.357a4.354 4.354 0 0 1-.086-.855 5.762 5.762 0 0 1 1.511-3.677 6.536 6.536 0 0 1 1.983-1.6 5.878 5.878 0 0 1 2.352-.741 6.416 6.416 0 0 1 .057.855 5.974 5.974 0 0 1-1.426 3.766 6.049 6.049 0 0 1-2 1.654 4.556 4.556 0 0 1-2.282.6h-.112z" fill="#fff"/></svg>