<svg width="511" height="512" viewBox="0 0 511 512" fill="none" xmlns="http://www.w3.org/2000/svg">
<path fill-rule="evenodd" clip-rule="evenodd" d="M206.921 0.27976C203.071 0.46676 190.021 1.10076 177.921 1.68776C136.174 3.71176 91.1678 7.82076 78.5438 10.7608C58.1218 15.5148 37.7548 29.3188 24.7987 47.1878C19.2817 54.7958 12.6997 69.3338 10.5107 78.7478C7.68875 90.8798 4.18675 128.407 1.23075 178.188C-0.41025 205.834 -0.41025 305.542 1.23075 333.188C4.18075 382.87 7.68875 420.495 10.4957 432.565C15.2427 452.98 29.0497 473.352 46.9207 486.31C54.5267 491.825 69.0648 498.408 78.4808 500.601C90.4048 503.377 129.62 507.055 177.421 509.88C205.834 511.56 304.064 511.568 332.421 509.894C383.987 506.849 419.936 503.508 432.361 500.606C441.783 498.406 456.323 491.82 463.921 486.31C481.792 473.352 495.599 452.98 500.346 432.565C503.157 420.477 506.685 382.614 509.604 333.188C511.243 305.437 511.249 205.697 509.613 178.188C506.653 128.42 503.152 90.8748 500.346 78.8108C492.745 46.1258 465.019 18.3948 432.298 10.7548C420.579 8.01776 389.759 5.02476 343.421 2.12476C320.838 0.71076 224.775 -0.58724 206.921 0.27976ZM319.421 112.506C319.421 131.012 320.321 135.86 325.612 145.856C329.289 152.802 337.386 160.98 345.369 165.808C354.409 171.276 361.593 172.688 380.377 172.688H396.421V197.688V222.688H380.493C371.733 222.688 361.046 222.207 356.743 221.618C347.708 220.383 334.122 216.08 325.477 211.716C322.178 210.051 319.26 208.688 318.993 208.688C318.726 208.688 318.363 236.251 318.187 269.938C317.876 329.372 317.802 331.418 315.682 338.951C310.472 357.455 302.03 372.084 288.944 385.278C259.202 415.267 215.604 423.773 176.394 407.236C160.923 400.711 143.789 386.979 133.909 373.188C109.152 338.63 108.363 292.55 131.923 257.142C145.858 236.199 166.853 221.355 192.246 214.494C198.452 212.817 203.893 212.328 220.671 211.941L241.421 211.461V236.575V261.688L225.171 261.712C216.234 261.726 206.909 262.201 204.449 262.767C186.237 266.964 170.366 283.097 165.927 301.928C158.347 334.074 183.243 365.688 216.137 365.688C241.622 365.688 262.746 348.757 267.914 324.188C269.159 318.27 269.389 300.075 269.404 206.438L269.421 95.6878H294.421H319.421V112.506Z" fill="white"/>
</svg>
