<svg xmlns="http://www.w3.org/2000/svg" width="31.526" height="22.068" viewBox="0 0 31.526 22.068"><path data-name="Icon awesome-user-friends" d="M9.458 11.034a5.517 5.517 0 1 0-5.517-5.517 5.514 5.514 0 0 0 5.517 5.517zm3.783 1.576h-.409a7.617 7.617 0 0 1-6.749 0h-.408A5.676 5.676 0 0 0 0 18.285v1.419a2.365 2.365 0 0 0 2.364 2.364h14.187a2.365 2.365 0 0 0 2.364-2.364v-1.419a5.676 5.676 0 0 0-5.674-5.675zm10.4-1.576a4.729 4.729 0 1 0-4.729-4.729 4.73 4.73 0 0 0 4.733 4.729zm2.364 1.576h-.187a6.212 6.212 0 0 1-4.355 0h-.183a5.471 5.471 0 0 0-2.744.759 7.209 7.209 0 0 1 1.956 4.916v1.892c0 .108-.025.212-.03.315h8.7a2.365 2.365 0 0 0 2.364-2.364 5.514 5.514 0 0 0-5.517-5.518z" fill="#1784cf"/></svg>