<svg xmlns="http://www.w3.org/2000/svg" width="25.261" height="25.255" viewBox="0 0 25.261 25.255"><path data-name="Icon awesome-instagram" d="M12.633 6.152a6.475 6.475 0 1 0 6.472 6.475 6.465 6.465 0 0 0-6.472-6.475zm0 10.685a4.21 4.21 0 1 1 4.21-4.21 4.217 4.217 0 0 1-4.21 4.21zm8.25-10.95a1.51 1.51 0 1 1-1.51-1.51 1.507 1.507 0 0 1 1.51 1.51zm4.289 1.533a7.474 7.474 0 0 0-2.04-5.292A7.523 7.523 0 0 0 17.84.088C15.755-.03 9.505-.03 7.42.088a7.513 7.513 0 0 0-5.291 2.035A7.5 7.5 0 0 0 .088 7.415C-.03 9.5-.03 15.75.088 17.835a7.474 7.474 0 0 0 2.04 5.292 7.533 7.533 0 0 0 5.292 2.035c2.085.118 8.335.118 10.42 0a7.474 7.474 0 0 0 5.292-2.04 7.523 7.523 0 0 0 2.04-5.292c.118-2.085.118-8.329 0-10.414zm-2.694 12.652a4.262 4.262 0 0 1-2.4 2.4c-1.662.659-5.607.507-7.444.507s-5.788.147-7.444-.507a4.262 4.262 0 0 1-2.4-2.4c-.659-1.662-.507-5.607-.507-7.444s-.147-5.788.507-7.444a4.262 4.262 0 0 1 2.4-2.4c1.662-.659 5.607-.507 7.444-.507s5.788-.147 7.444.507a4.262 4.262 0 0 1 2.4 2.4c.659 1.662.507 5.607.507 7.444s.153 5.787-.507 7.444z" fill="#fff"/></svg>