<svg xmlns="http://www.w3.org/2000/svg" width="29.239" height="27.007" viewBox="0 0 29.239 27.007"><g data-name="Icon ionic-ios-cart" fill="#1784cf"><path data-name="Path 7270" d="M9.556 25.32a1.688 1.688 0 1 1-1.687-1.688 1.688 1.688 0 0 1 1.688 1.688z"/><path data-name="Path 7271" d="M25.341 25.32a1.687 1.687 0 1 1-1.687-1.688 1.687 1.687 0 0 1 1.687 1.688z"/><path data-name="Path 7272" d="M29.229 4.807a.413.413 0 0 0-.366-.3l-22.9-2.215a.7.7 0 0 1-.527-.33A7.16 7.16 0 0 0 4.578.654C4.037-.007 3.017.014 1.147 0A1.024 1.024 0 0 0 .001.991a1 1 0 0 0 1.1.991 9.342 9.342 0 0 1 1.828.134c.33.1.6.64.7 1.111a.026.026 0 0 0 .007.021c.014.084.141.717.141.724l2.804 14.879a5.468 5.468 0 0 0 1.02 2.51A2.806 2.806 0 0 0 9.918 22.5H26.55a1 1 0 0 0 1.013-.942.98.98 0 0 0-.984-1.027H9.9a.817.817 0 0 1-.584-.2 3.155 3.155 0 0 1-.808-1.824l-.3-1.666a.039.039 0 0 1 .028-.042l19.526-3.3a.411.411 0 0 0 .345-.366l1.125-8.142a.4.4 0 0 0-.003-.184z"/></g></svg>