<svg xmlns="http://www.w3.org/2000/svg" width="27.145" height="27.146" viewBox="0 0 27.145 27.146"><path data-name="Icon awesome-question-circle" d="M27.145 13.573A13.573 13.573 0 1 1 13.572 0a13.572 13.572 0 0 1 13.573 13.573zM13.937 4.487a7.089 7.089 0 0 0-6.379 3.49.658.658 0 0 0 .149.89l1.9 1.44a.657.657 0 0 0 .912-.116c.978-1.24 1.648-1.959 3.136-1.959 1.118 0 2.5.72 2.5 1.8 0 .82-.677 1.241-1.781 1.86-1.287.722-2.991 1.62-2.991 3.867v.219a.657.657 0 0 0 .657.657h3.065a.657.657 0 0 0 .657-.657v-.073c0-1.558 4.553-1.623 4.553-5.838-.001-3.172-3.294-5.58-6.378-5.58zm-.364 13.573a2.518 2.518 0 1 0 2.517 2.518 2.52 2.52 0 0 0-2.518-2.518z" fill="#909090"/></svg>