<svg xmlns="http://www.w3.org/2000/svg" width="30.777" height="21.64" viewBox="0 0 30.777 21.64"><path data-name="Icon awesome-youtube" d="M30.134 3.386A3.867 3.867 0 0 0 27.413.647C25.013 0 15.389 0 15.389 0S5.765 0 3.364.647A3.867 3.867 0 0 0 .643 3.386 40.568 40.568 0 0 0 0 10.842 40.568 40.568 0 0 0 .643 18.3a3.81 3.81 0 0 0 2.721 2.695c2.4.647 12.025.647 12.025.647s9.624 0 12.025-.647a3.81 3.81 0 0 0 2.72-2.695 40.568 40.568 0 0 0 .643-7.456 40.568 40.568 0 0 0-.643-7.456zM12.241 15.418V6.266l8.044 4.576-8.044 4.576z" fill="#fff"/></svg>