<svg xmlns="http://www.w3.org/2000/svg" width="36.386" height="36.386" viewBox="0 0 36.386 36.386"><path d="M10.916 29.108a3.639 3.639 0 1 0 3.639 3.639 3.634 3.634 0 0 0-3.639-3.639zM0 0v3.639h3.639l6.549 13.808L7.732 21.9a3.517 3.517 0 0 0-.455 1.747 3.649 3.649 0 0 0 3.639 3.639h21.831v-3.635H11.68a.45.45 0 0 1-.455-.455l.055-.218 1.637-2.965h13.554a3.621 3.621 0 0 0 3.184-1.874l6.512-11.808a1.777 1.777 0 0 0 .218-.873 1.825 1.825 0 0 0-1.819-1.819H7.659L5.949 0zm29.108 29.108a3.639 3.639 0 1 0 3.639 3.639 3.634 3.634 0 0 0-3.639-3.639z" fill="#369be2"/></svg>