<svg xmlns="http://www.w3.org/2000/svg" width="24.624" height="24.624" viewBox="0 0 24.624 24.624"><path data-name="Icon ionic-md-call" d="M23.256 17.1a16.056 16.056 0 0 1-4.856-.752 1.28 1.28 0 0 0-1.368.342l-3.01 3.01a20.572 20.572 0 0 1-9.029-9.03l3.01-3.009a1.426 1.426 0 0 0 .342-1.368 14.878 14.878 0 0 1-.821-4.925A1.372 1.372 0 0 0 6.156 0H1.368A1.372 1.372 0 0 0 0 1.368a23.237 23.237 0 0 0 23.256 23.256 1.372 1.372 0 0 0 1.368-1.368v-4.788a1.372 1.372 0 0 0-1.368-1.368z" fill="#1784cf"/></svg>