<svg xmlns="http://www.w3.org/2000/svg" width="25.224" height="25.224" viewBox="0 0 25.224 25.224"><path data-name="Icon ionic-ios-paper" d="M4.608 1.94v19.525a.851.851 0 0 1-.849.849.851.851 0 0 1-.849-.849V3.881h-.97A1.938 1.938 0 0 0 0 5.825v17.459a1.938 1.938 0 0 0 1.94 1.94h21.41a1.875 1.875 0 0 0 1.875-1.873V1.94A1.938 1.938 0 0 0 23.285 0L6.425.125A1.738 1.738 0 0 0 4.608 1.94zm4 1.94h5.093a.851.851 0 0 1 .849.849.851.851 0 0 1-.849.849H8.61a.851.851 0 0 1-.849-.849.851.851 0 0 1 .849-.848zm0 9.7h8.974a.851.851 0 0 1 .849.849.851.851 0 0 1-.849.849H8.61a.851.851 0 0 1-.849-.849.851.851 0 0 1 .849-.847zm11.887 6.551H8.61a.851.851 0 0 1-.849-.849.851.851 0 0 1 .849-.849h11.885a.851.851 0 0 1 .849.849.851.851 0 0 1-.849.849zm0-9.7H8.61a.851.851 0 0 1-.849-.849.851.851 0 0 1 .849-.849h11.885a.851.851 0 0 1 .849.849.851.851 0 0 1-.849.843z" fill="#1784cf"/></svg>