<svg xmlns="http://www.w3.org/2000/svg" width="17.117" height="30.266" viewBox="0 0 17.117 30.266"><path data-name="Icon material-attach-money" d="M9.214 13.283c-3.817-.992-5.044-2.018-5.044-3.615 0-1.833 1.7-3.111 4.54-3.111 2.993 0 4.1 1.429 4.2 3.531h3.716a6.7 6.7 0 0 0-5.4-6.406V0H6.188v3.632C2.926 4.338.303 6.457.303 9.702c0 3.884 3.212 5.818 7.9 6.944 4.2 1.009 5.044 2.488 5.044 4.052 0 1.16-.824 3.01-4.54 3.01-3.464 0-4.826-1.547-5.011-3.531H0c.2 3.682 2.959 5.75 6.188 6.44v3.649h5.044V26.65c3.279-.622 5.885-2.522 5.885-5.969.003-4.775-4.086-6.406-7.903-7.398z" fill="#1784cf"/></svg>