<svg xmlns="http://www.w3.org/2000/svg" width="32.285" height="28.698" viewBox="0 0 32.285 28.698"><path data-name="Icon awesome-hammer" d="M32.022 10.87L30.754 9.6a.9.9 0 0 0-1.268 0l-.634.634-1.62-1.62a3.572 3.572 0 0 0-.916-3.453l-2.537-2.534a8.969 8.969 0 0 0-12.683 0l5.073 2.536v1.051A3.585 3.585 0 0 0 17.22 8.75l2.754 2.75a3.572 3.572 0 0 0 3.453.916l1.62 1.62-.634.634a.9.9 0 0 0 0 1.268l1.268 1.268a.9.9 0 0 0 1.268 0l5.073-5.073a.9.9 0 0 0 0-1.263zm-16.071-.852a5.44 5.44 0 0 1-.552-.67L1.1 22.7A3.466 3.466 0 1 0 6 27.6l13.347-14.3a5.449 5.449 0 0 1-.641-.527l-2.754-2.754z" fill="#909090"/></svg>