<svg xmlns="http://www.w3.org/2000/svg" width="29.632" height="21.166" viewBox="0 0 29.632 21.166"><g data-name="Icon ionic-md-cash" fill="#1784cf"><path data-name="Path 15" d="M0 0v16.933h29.632V0zm10.616 14.816H5.298a3.179 3.179 0 0 0-3.182-3.182V6.35A4.237 4.237 0 0 0 6.35 2.117h4.266a9.876 9.876 0 0 0-2.15 6.35 9.876 9.876 0 0 0 2.15 6.349zm16.9-3.182a3.2 3.2 0 0 0-3.175 3.182h-5.325a9.876 9.876 0 0 0 2.15-6.35 9.876 9.876 0 0 0-2.15-6.35h4.266a4.237 4.237 0 0 0 4.234 4.234z"/><path data-name="Path 16" d="M0 19.049h29.632v2.117H0z"/></g></svg>