<svg xmlns="http://www.w3.org/2000/svg" width="27.699" height="27.699" viewBox="0 0 27.699 27.699"><path data-name="Icon awesome-history" d="M27.699 13.823A13.85 13.85 0 0 1 5.157 24.637a1.339 1.339 0 0 1-.1-1.988l.629-.629a1.343 1.343 0 0 1 1.781-.111 10.276 10.276 0 1 0-.658-15.547l2.834 2.834a.894.894 0 0 1-.632 1.525H.893a.893.893 0 0 1-.894-.894V1.71a.894.894 0 0 1 1.525-.632l2.758 2.759a13.849 13.849 0 0 1 23.417 9.988zm-10.1 4.4l.549-.705a1.34 1.34 0 0 0-.235-1.881l-2.276-1.768V8.037a1.34 1.34 0 0 0-1.34-1.34h-.894a1.34 1.34 0 0 0-1.34 1.34v7.58l3.653 2.841a1.34 1.34 0 0 0 1.88-.235z" fill="#909090"/></svg>