<svg xmlns="http://www.w3.org/2000/svg" width="49.752" height="49.752" viewBox="0 0 49.752 49.752"><path data-name="Icon ionic-logo-whatsapp" d="M25.327 0A24.33 24.33 0 0 0 .903 24.236 23.985 23.985 0 0 0 4.408 36.75L0 49.75l13.522-4.3A24.466 24.466 0 0 0 49.75 24.236 24.33 24.33 0 0 0 25.327 0zm12.145 33.439c-.575 1.424-3.173 2.724-4.32 2.784s-1.178.888-7.423-1.825-10-9.311-10.3-9.736-2.419-3.448-2.3-6.492a6.921 6.921 0 0 1 2.377-5.078 2.392 2.392 0 0 1 1.692-.712c.492-.008.81-.015 1.174 0s.91-.076 1.383 1.182 1.6 4.348 1.749 4.663a1.132 1.132 0 0 1 .011 1.085 4.242 4.242 0 0 1-.662 1.009c-.326.35-.686.782-.976 1.049-.324.3-.663.619-.322 1.251a18.69 18.69 0 0 0 3.307 4.413 17.041 17.041 0 0 0 4.9 3.256c.612.334.978.3 1.358-.1s1.626-1.749 2.065-2.351.851-.486 1.415-.259 3.567 1.835 4.179 2.172 1.021.5 1.167.766a5.129 5.129 0 0 1-.474 2.923z" fill="#3eac39"/></svg>