<svg xmlns="http://www.w3.org/2000/svg" width="27.27" height="27.709" viewBox="0 0 27.27 27.709"><path data-name="Icon awesome-power-off" d="M21.552 2.974a13.633 13.633 0 1 1-15.845.006 1.324 1.324 0 0 1 1.925.42l.869 1.545a1.319 1.319 0 0 1-.363 1.7 9.236 9.236 0 1 0 10.99-.005 1.312 1.312 0 0 1-.357-1.7l.867-1.54a1.318 1.318 0 0 1 1.913-.429zm-5.714 11.54V1.319A1.316 1.316 0 0 0 14.515 0h-1.759a1.316 1.316 0 0 0-1.318 1.319v13.195a1.316 1.316 0 0 0 1.319 1.319h1.759a1.316 1.316 0 0 0 1.322-1.319z" fill="#909090"/></svg>