<svg xmlns="http://www.w3.org/2000/svg" width="38.593" height="38.6" viewBox="0 0 38.593 38.6"><g data-name="Icon ionic-ios-chatboxes" fill="#369be2"><path data-name="Path 7097" d="M35.067 11.358H14.503a3.54 3.54 0 0 0-3.535 3.535v14.319a3.533 3.533 0 0 0 3.535 3.526H26.27a1.014 1.014 0 0 1 .705.3l5.846 5.391c.325.316.863.186.863-.269v-4.7c0-.557.353-.733.909-.733h.089a3.862 3.862 0 0 0 3.907-3.526V14.894a3.521 3.521 0 0 0-3.522-3.536z"/><path data-name="Path 7098" d="M11.725 9.085h16.466v-6.06A3.026 3.026 0 0 0 25.166 0H3.025A3.026 3.026 0 0 0 0 3.025v15.33a3.026 3.026 0 0 0 3.025 3.025h5.67v-9.27a3.04 3.04 0 0 1 3.03-3.025z"/></g></svg>