<svg xmlns="http://www.w3.org/2000/svg" width="27.145" height="27.146" viewBox="0 0 27.145 27.146"><path data-name="Icon awesome-info-circle" d="M13.572 0a13.573 13.573 0 1 0 13.573 13.573A13.575 13.575 0 0 0 13.572 0zm0 6.02a2.3 2.3 0 1 1-2.3 2.3 2.3 2.3 0 0 1 2.3-2.3zm3.065 13.9a.657.657 0 0 1-.657.657h-4.816a.657.657 0 0 1-.657-.657v-1.312a.657.657 0 0 1 .657-.657h.657v-3.5h-.657a.657.657 0 0 1-.657-.657v-1.316a.657.657 0 0 1 .657-.657h3.5a.657.657 0 0 1 .657.657v5.473h.657a.657.657 0 0 1 .657.657z" fill="#909090"/></svg>