<svg xmlns="http://www.w3.org/2000/svg" width="24.48" height="24.48" viewBox="0 0 24.48 24.48"><path data-name="Icon awesome-download" d="M10.328 0h3.825A1.145 1.145 0 0 1 15.3 1.148V9.18h4.193a.954.954 0 0 1 .674 1.63L12.9 18.088a.926.926 0 0 1-1.305 0l-7.287-7.277a.954.954 0 0 1 .674-1.63h4.2V1.148A1.145 1.145 0 0 1 10.328 0zM24.48 17.978v5.355a1.145 1.145 0 0 1-1.148 1.148H1.148A1.145 1.145 0 0 1 0 23.333v-5.355a1.145 1.145 0 0 1 1.148-1.148h7.014l2.338 2.343a2.45 2.45 0 0 0 3.471 0l2.343-2.343h7.014a1.145 1.145 0 0 1 1.152 1.148zm-5.929 4.208a.956.956 0 1 0-.956.956.959.959 0 0 0 .957-.957zm3.06 0a.956.956 0 1 0-.956.956.959.959 0 0 0 .957-.957z" fill="#369be2"/></svg>