<svg xmlns="http://www.w3.org/2000/svg" width="28.854" height="23.434" viewBox="0 0 28.854 23.434"><path data-name="Icon awesome-twitter" d="M25.888 5.84c.018.256.018.513.018.769 0 7.818-5.95 16.825-16.825 16.825A16.711 16.711 0 0 1 0 20.78a12.233 12.233 0 0 0 1.428.073 11.843 11.843 0 0 0 7.342-2.527 5.924 5.924 0 0 1-5.529-4.1 7.457 7.457 0 0 0 1.117.092 6.254 6.254 0 0 0 1.556-.2 5.914 5.914 0 0 1-4.742-5.8v-.073a5.956 5.956 0 0 0 2.673.751A5.922 5.922 0 0 1 2.014 1.08a16.809 16.809 0 0 0 12.193 6.188 6.676 6.676 0 0 1-.146-1.355 5.919 5.919 0 0 1 10.234-4.046A11.643 11.643 0 0 0 28.048.439a5.9 5.9 0 0 1-2.6 3.259 11.855 11.855 0 0 0 3.405-.915 12.712 12.712 0 0 1-2.966 3.057z" fill="#fff"/></svg>