<svg xmlns="http://www.w3.org/2000/svg" width="22.644" height="25.879" viewBox="0 0 22.644 25.879"><path data-name="Icon awesome-building" d="M22.037 24.261h-1.011V1.213A1.213 1.213 0 0 0 19.813 0H2.83a1.213 1.213 0 0 0-1.213 1.213v23.048H.607a.607.607 0 0 0-.607.607v1.011h22.644v-1.011a.607.607 0 0 0-.607-.607zM6.47 3.841a.607.607 0 0 1 .607-.607H9.1a.607.607 0 0 1 .607.607v2.022a.607.607 0 0 1-.607.607H7.076a.607.607 0 0 1-.607-.607zm0 4.852a.607.607 0 0 1 .607-.607H9.1a.607.607 0 0 1 .607.607v2.022a.607.607 0 0 1-.607.607H7.076a.607.607 0 0 1-.607-.607zm2.63 7.481H7.076a.607.607 0 0 1-.607-.607v-2.021a.607.607 0 0 1 .607-.607H9.1a.607.607 0 0 1 .607.607v2.022a.607.607 0 0 1-.607.606zm3.841 8.087H9.7v-4.245a.607.607 0 0 1 .607-.607h2.022a.607.607 0 0 1 .607.607zm3.235-8.694a.607.607 0 0 1-.607.607h-2.023a.607.607 0 0 1-.607-.607v-2.021a.607.607 0 0 1 .607-.607h2.022a.607.607 0 0 1 .607.607zm0-4.852a.607.607 0 0 1-.607.607h-2.023a.607.607 0 0 1-.607-.607V8.694a.607.607 0 0 1 .607-.607h2.022a.607.607 0 0 1 .607.607zm0-4.852a.607.607 0 0 1-.607.607h-2.023a.607.607 0 0 1-.607-.607V3.841a.607.607 0 0 1 .607-.607h2.022a.607.607 0 0 1 .607.607z" fill="#1784cf"/></svg>