<svg xmlns="http://www.w3.org/2000/svg" width="36.757" height="40.586" viewBox="0 0 36.757 40.586"><path data-name="Icon ionic-md-share" d="M30.614 28.757a5.58 5.58 0 0 0-3.994 1.53l-14.641-8.464a6.857 6.857 0 0 0 .205-1.428 6.854 6.854 0 0 0-.205-1.428l14.437-8.361a6.127 6.127 0 1 0-1.946-4.488 6.817 6.817 0 0 0 .205 1.428l-14.436 8.36a6.163 6.163 0 0 0-4.2-1.631A6.062 6.062 0 0 0 0 20.395a6.164 6.164 0 0 0 10.341 4.487l14.539 8.464a5.115 5.115 0 0 0-.2 1.325 5.938 5.938 0 1 0 5.938-5.914z" fill="#a7a7a7"/></svg>