<svg xmlns="http://www.w3.org/2000/svg" width="34.667" height="34.667" viewBox="0 0 34.667 34.667"><path d="M0 0h34.667v34.667H0z" fill="none"/><path data-name="Vector" d="M28.903 22.215a16.529 16.529 0 0 1-5.1-.809 1.412 1.412 0 0 0-1.459.347l-2.268 2.846a21.931 21.931 0 0 1-9.951-9.866l2.817-2.4a1.474 1.474 0 0 0 .347-1.473 16.109 16.109 0 0 1-.809-5.1 1.443 1.443 0 0 0-1.43-1.427h-5c-.778 0-1.717.347-1.717 1.43a24.775 24.775 0 0 0 24.57 24.57 1.516 1.516 0 0 0 1.43-1.7v-4.988a1.443 1.443 0 0 0-1.43-1.43z" fill="#fff"/></svg>