<svg xmlns="http://www.w3.org/2000/svg" width="66.99" height="66.99" viewBox="0 0 66.99 66.99"><path data-name="Icon awesome-arrow-circle-left" d="M33.495 66.99a33.5 33.5 0 1 1 33.5-33.5 33.489 33.489 0 0 1-33.5 33.5zm3.9-19.395l-10.2-9.778h24.668a3.234 3.234 0 0 0 3.241-3.241v-2.162a3.234 3.234 0 0 0-3.241-3.241H27.201l10.2-9.778a3.245 3.245 0 0 0 .054-4.633l-1.486-1.472a3.228 3.228 0 0 0-4.579 0L13.465 31.199a3.228 3.228 0 0 0 0 4.579L31.388 53.7a3.228 3.228 0 0 0 4.579 0l1.486-1.472a3.245 3.245 0 0 0-.055-4.633z" fill="#45a1e2"/></svg>