<svg xmlns="http://www.w3.org/2000/svg" width="30.84" height="30.84" viewBox="0 0 30.84 30.84"><g data-name="Icon feather-copy" fill="none" stroke="#1784cf" stroke-linecap="round" stroke-linejoin="round" stroke-width="3"><path data-name="Path 7101" d="M14.028 11.244h12.528a2.784 2.784 0 0 1 2.788 2.784v12.528a2.784 2.784 0 0 1-2.788 2.788H14.028a2.784 2.784 0 0 1-2.784-2.788V14.028a2.784 2.784 0 0 1 2.784-2.784z"/><path data-name="Path 7102" d="M5.676 19.6H4.284A2.784 2.784 0 0 1 1.5 16.812V4.284A2.784 2.784 0 0 1 4.284 1.5h12.528A2.784 2.784 0 0 1 19.6 4.284v1.392"/></g></svg>