<svg xmlns="http://www.w3.org/2000/svg" width="38.408" height="43.895" viewBox="0 0 38.408 43.895"><path data-name="Icon awesome-building" d="M37.379 41.151h-1.714V2.058A2.058 2.058 0 0 0 33.607 0H4.8a2.058 2.058 0 0 0-2.057 2.058v39.093H1.029A1.029 1.029 0 0 0 0 42.18v1.715h38.408V42.18a1.029 1.029 0 0 0-1.029-1.029zM10.974 6.516A1.029 1.029 0 0 1 12 5.487h3.429a1.029 1.029 0 0 1 1.029 1.029v3.429a1.029 1.029 0 0 1-1.029 1.029H12a1.029 1.029 0 0 1-1.029-1.029zm0 8.23A1.029 1.029 0 0 1 12 13.717h3.429a1.029 1.029 0 0 1 1.029 1.029v3.429a1.029 1.029 0 0 1-1.026 1.025H12a1.029 1.029 0 0 1-1.029-1.029zm4.458 12.688H12a1.029 1.029 0 0 1-1.029-1.029v-3.429A1.029 1.029 0 0 1 12 21.947h3.429a1.029 1.029 0 0 1 1.029 1.029v3.429a1.029 1.029 0 0 1-1.026 1.029zm6.516 13.717h-5.487v-7.2a1.029 1.029 0 0 1 1.029-1.029h3.429a1.029 1.029 0 0 1 1.029 1.029zm5.487-14.746a1.029 1.029 0 0 1-1.029 1.029h-3.43a1.029 1.029 0 0 1-1.029-1.029v-3.429a1.029 1.029 0 0 1 1.029-1.029h3.429a1.029 1.029 0 0 1 1.029 1.029zm0-8.23a1.029 1.029 0 0 1-1.029 1.025h-3.43a1.029 1.029 0 0 1-1.029-1.029v-3.425a1.029 1.029 0 0 1 1.029-1.029h3.429a1.029 1.029 0 0 1 1.029 1.029zm0-8.23a1.029 1.029 0 0 1-1.029 1.029h-3.43a1.029 1.029 0 0 1-1.029-1.029V6.516a1.029 1.029 0 0 1 1.029-1.029h3.429a1.029 1.029 0 0 1 1.029 1.029z" fill="#de8d8d"/></svg>