<svg data-name="Group 857" xmlns="http://www.w3.org/2000/svg" width="67.281" height="61.775" viewBox="0 0 67.281 61.775"><path data-name="Icon awesome-broom" d="M26.962 30.738l9.118 11.478s-1.745 10.761-8.05 15.782S0 61.585 0 61.585s.4-2.435 1.156-5.828L11.1 43.965a.631.631 0 0 0-.7-1l-6.35 2.322c1.518-4.38 3.44-8.414 5.74-10.247 6.3-5.021 17.167-4.3 17.167-4.3zm39.954-19.526l-2.088-2.628a1.676 1.676 0 0 0-2.355-.269l-24.44 18.691-3.589-4.517a1.156 1.156 0 0 0-1.954.232l-2.663 5.735 9.118 11.478 6.181-1.309a1.156 1.156 0 0 0 .667-1.85l-3.584-4.512 24.439-18.692a1.68 1.68 0 0 0 .268-2.359z" fill="#6ab170"/><path data-name="Icon weather-stars" d="M2.183 18.615a3.67 3.67 0 0 0 2.57-1.168 3.661 3.661 0 0 0 1.059-2.617 3.78 3.78 0 0 0 3.614 3.785A3.78 3.78 0 0 0 5.812 22.4a3.6 3.6 0 0 0-1.059-2.617 3.67 3.67 0 0 0-2.57-1.168zm3.63-11.216a7.159 7.159 0 0 0 5-2.29A7.131 7.131 0 0 0 12.869 0a7.131 7.131 0 0 0 2.056 5.109 7.23 7.23 0 0 0 5.016 2.29 7.22 7.22 0 0 0-3.567 1.106 7.486 7.486 0 0 0-2.57 2.695 7.325 7.325 0 0 0-.935 3.63 7.167 7.167 0 0 0-2.056-5.125 7.112 7.112 0 0 0-5-2.306zm5.172 16.777a5.564 5.564 0 0 0 5.312-5.561 5.565 5.565 0 0 0 5.3 5.561 5.565 5.565 0 0 0-5.3 5.561 5.364 5.364 0 0 0-1.542-3.848 5.457 5.457 0 0 0-3.771-1.713zm10.608-7.384a5.538 5.538 0 0 0 5.281-5.577 5.564 5.564 0 0 0 5.312 5.561 5.564 5.564 0 0 0-5.312 5.561 5.51 5.51 0 0 0-5.281-5.546z" fill="#6ab170"/></svg>