<svg xmlns="http://www.w3.org/2000/svg" width="57.242" height="57.242" viewBox="0 0 57.242 57.242"><path data-name="Icon awesome-draw-polygon" d="M49.065 40.887c-.045 0-.086.013-.13.013l-5.009-8.35a7.889 7.889 0 0 0 0-7.866l5.009-8.346c.045 0 .086.013.13.013a8.178 8.178 0 1 0-7.043-12.262H15.22A8.153 8.153 0 1 0 4.089 15.22v26.8A8.153 8.153 0 1 0 15.22 53.15h26.8a8.163 8.163 0 1 0 7.044-12.266zm-36.8 1.135V15.22a8.155 8.155 0 0 0 2.954-2.954h26.624l-4.914 8.19c-.045 0-.086-.013-.13-.013a8.178 8.178 0 1 0 0 16.355c.045 0 .086-.013.13-.013l4.914 8.19H15.22a8.145 8.145 0 0 0-2.954-2.954zm22.488-13.4a2.044 2.044 0 1 1 2.047 2.044 2.047 2.047 0 0 1-2.046-2.045zM51.109 8.177a2.044 2.044 0 1 1-2.044-2.044 2.047 2.047 0 0 1 2.044 2.044zM8.177 6.133a2.044 2.044 0 1 1-2.044 2.044 2.047 2.047 0 0 1 2.044-2.044zM6.133 49.065a2.044 2.044 0 1 1 2.044 2.044 2.047 2.047 0 0 1-2.044-2.044zm42.932 2.044a2.044 2.044 0 1 1 2.044-2.044 2.047 2.047 0 0 1-2.044 2.044z" fill="#68b6b9"/></svg>