<svg xmlns="http://www.w3.org/2000/svg" width="56.447" height="43.895" viewBox="0 0 56.447 43.895"><path data-name="Icon awesome-home" d="M27.475 11.387L9.409 26.267v16.06a1.568 1.568 0 0 0 1.568 1.568l10.981-.028a1.568 1.568 0 0 0 1.56-1.568V32.92a1.568 1.568 0 0 1 1.568-1.568h6.271a1.568 1.568 0 0 1 1.568 1.568v9.372a1.568 1.568 0 0 0 1.568 1.573l10.977.03a1.568 1.568 0 0 0 1.568-1.568V26.256L28.974 11.387a1.2 1.2 0 0 0-1.499 0zm28.538 10.114l-8.192-6.755V1.175a1.176 1.176 0 0 0-1.176-1.176h-5.487a1.176 1.176 0 0 0-1.176 1.176V8.29l-8.773-7.217a4.7 4.7 0 0 0-5.977 0L.427 21.501a1.176 1.176 0 0 0-.157 1.656l2.5 3.038a1.176 1.176 0 0 0 1.657.16L27.475 7.369a1.2 1.2 0 0 1 1.5 0l23.05 18.985a1.176 1.176 0 0 0 1.656-.157l2.5-3.038a1.176 1.176 0 0 0-.167-1.659z" fill="#de8d8d"/></svg>