<svg xmlns="http://www.w3.org/2000/svg" width="57.242" height="57.242" viewBox="0 0 57.242 57.242"><path data-name="Icon awesome-envelope-open-text" d="M19.677 24.149h17.888a1.788 1.788 0 0 0 1.789-1.789v-1.789a1.788 1.788 0 0 0-1.789-1.789H19.677a1.788 1.788 0 0 0-1.789 1.789v1.789a1.788 1.788 0 0 0 1.789 1.789zm-1.789 8.944a1.788 1.788 0 0 0 1.789 1.789h17.888a1.788 1.788 0 0 0 1.789-1.789V31.3a1.788 1.788 0 0 0-1.789-1.789H19.677a1.788 1.788 0 0 0-1.789 1.789zm10.733 13.543a8.931 8.931 0 0 1-5.239-1.7L0 28.047v23.829a5.366 5.366 0 0 0 5.366 5.366h46.51a5.366 5.366 0 0 0 5.366-5.366V28.047L33.86 44.937a8.939 8.939 0 0 1-5.239 1.699zm26.565-28.418a205.232 205.232 0 0 0-3.31-2.55v-4.935a5.366 5.366 0 0 0-5.366-5.366h-8.67l-1.011-.733C34.949 3.261 31.215-.039 28.621 0c-2.594-.039-6.327 3.261-8.207 4.633l-1.014.734h-8.67a5.366 5.366 0 0 0-5.366 5.366v4.935a199.619 199.619 0 0 0-3.31 2.55A5.366 5.366 0 0 0 0 22.441v1.191l10.733 7.753V10.733h35.776v20.652l10.733-7.753v-1.191a5.366 5.366 0 0 0-2.056-4.223z" fill="#d1b173"/></svg>