<svg xmlns="http://www.w3.org/2000/svg" width="62.171" height="55.264" viewBox="0 0 62.171 55.264"><path data-name="Icon awesome-hammer" d="M61.665 20.933l-2.443-2.443a1.727 1.727 0 0 0-2.443 0l-1.221 1.221-3.118-3.119a6.879 6.879 0 0 0-1.765-6.65l-4.884-4.884a17.271 17.271 0 0 0-24.424 0l9.769 4.884v2.024a6.9 6.9 0 0 0 2.024 4.884l5.3 5.3a6.879 6.879 0 0 0 6.65 1.765l3.119 3.119-1.221 1.221a1.727 1.727 0 0 0 0 2.443l2.443 2.443a1.727 1.727 0 0 0 2.443 0l9.769-9.769a1.728 1.728 0 0 0 0-2.442zm-30.947-1.64A10.475 10.475 0 0 1 29.654 18L2.12 43.71a6.675 6.675 0 1 0 9.434 9.434l25.7-27.531a10.494 10.494 0 0 1-1.232-1.013l-5.3-5.3z" fill="#90a2cb"/></svg>