<svg xmlns="http://www.w3.org/2000/svg" width="62.207" height="62.61" viewBox="0 0 62.207 62.61"><path data-name="Path 2" d="M33.541 60.373h2.236v2.236h-2.236zm0 0" fill="#b191b4"/><path data-name="Path 3" d="M8.944 51.429h20.124v6.708H8.944zm0 0" fill="#b191b4"/><path data-name="Path 4" d="M31.305 44.721h6.708v13.416h-6.708zm0 0" fill="#b191b4"/><path data-name="Path 5" d="M33.541 42.485V32.423a3.354 3.354 0 0 0-3.354-3.354H7.826a3.354 3.354 0 0 0-3.354 3.354v10.062h3.354a1.118 1.118 0 0 1 1.118 1.118v5.59h20.128v-5.59a1.118 1.118 0 0 1 1.118-1.118zm0 0" fill="#b191b4"/><path data-name="Path 6" d="M0 44.721h6.708v13.416H0zm0 0" fill="#b191b4"/><path data-name="Path 7" d="M2.236 60.373h2.236v2.236H2.236zm0 0" fill="#b191b4"/><path data-name="Path 8" d="M5.59 20.124h26.833V4.472H5.59zM6.708 5.59h24.6v13.416h-24.6zm0 0" fill="#b191b4"/><path data-name="Path 9" d="M8.944 7.826h20.124v8.944H8.944zm0 0" fill="#b191b4"/><path data-name="Path 10" d="M16.604 2.237h4.805l-2.4-1.923zm0 0" fill="#b191b4"/><path data-name="Path 11" d="M45.839 60.373h15.652v2.236H45.839zm0 0" fill="#b191b4"/><path data-name="Path 12" d="M57.315 0h-7.3l-4.891 15.652h17.084zm0 0" fill="#b191b4"/><path data-name="Path 13" d="M52.547 17.888h2.236v40.249h-2.236zm0 0" fill="#b191b4"/><path data-name="Path 14" d="M45.839 60.373h15.652v2.236H45.839zm0 0" fill="#b191b4"/></svg>