<svg xmlns="http://www.w3.org/2000/svg" width="49.382" height="43.895" viewBox="0 0 49.382 43.895"><path data-name="Icon awesome-hotel" d="M48.01 5.487a1.371 1.371 0 0 0 1.372-1.372V1.372A1.371 1.371 0 0 0 48.01 0H1.372A1.371 1.371 0 0 0 0 1.372v2.743a1.371 1.371 0 0 0 1.372 1.372h1.37v32.921h-1.37A1.371 1.371 0 0 0 0 39.78v2.743a1.371 1.371 0 0 0 1.372 1.372h20.575v-6.859a1.376 1.376 0 0 1 1.372-1.372h2.743a1.376 1.376 0 0 1 1.372 1.372v6.859H48.01a1.371 1.371 0 0 0 1.372-1.372V39.78a1.371 1.371 0 0 0-1.372-1.372h-1.372V5.487zM21.947 9.328a1.18 1.18 0 0 1 1.1-1.1h3.292a1.18 1.18 0 0 1 1.1 1.1v3.292a1.18 1.18 0 0 1-1.1 1.1h-3.294a1.18 1.18 0 0 1-1.1-1.1zm0 8.23a1.18 1.18 0 0 1 1.1-1.1h3.292a1.18 1.18 0 0 1 1.1 1.1v3.292a1.18 1.18 0 0 1-1.1 1.1h-3.294a1.18 1.18 0 0 1-1.1-1.1zm-10.973-8.23a1.18 1.18 0 0 1 1.1-1.1h3.292a1.18 1.18 0 0 1 1.1 1.1v3.292a1.18 1.18 0 0 1-1.1 1.1h-3.295a1.18 1.18 0 0 1-1.1-1.1zm4.389 12.62h-3.292a1.18 1.18 0 0 1-1.1-1.1v-3.29a1.18 1.18 0 0 1 1.1-1.1h3.292a1.18 1.18 0 0 1 1.1 1.1v3.292a1.18 1.18 0 0 1-1.1 1.097zm1.1 10.974a8.23 8.23 0 0 1 16.461 0zM38.408 20.85a1.18 1.18 0 0 1-1.1 1.1h-3.289a1.18 1.18 0 0 1-1.1-1.1v-3.292a1.18 1.18 0 0 1 1.1-1.1h3.292a1.18 1.18 0 0 1 1.1 1.1zm0-8.23a1.18 1.18 0 0 1-1.1 1.1h-3.289a1.18 1.18 0 0 1-1.1-1.1V9.328a1.18 1.18 0 0 1 1.1-1.1h3.292a1.18 1.18 0 0 1 1.1 1.1z" fill="#de8d8d"/></svg>