<svg data-name="Group 819" xmlns="http://www.w3.org/2000/svg" width="340" height="190.412" viewBox="0 0 340 190.412"><path data-name="Path 7223" d="M235.802 60.417h-6.462a.831.831 0 0 1-.83-.753l-1.294-13.259h10.71l-1.294 13.259a.831.831 0 0 1-.83.753z" fill="#e6e6e6"/><path data-name="Path 7224" d="M237.909 48.074h-10.676a.835.835 0 0 1-.834-.834v-2a.835.835 0 0 1 .834-.834h10.676a.835.835 0 0 1 .834.834v2a.835.835 0 0 1-.834.834z" fill="#ccc"/><path data-name="Path 7225" d="M160.193 46.174h-25.6v-7.772c8.09-5.63 15.258-5.141 24.687.457z" fill="#1784cf"/><path data-name="Path 7226" d="M128.663 184.22h-5.6l-.838-21.619h6.444z" fill="#ffb8b8"/><path data-name="Path 7227" d="M130.092 189.653H112.02v-.229a7.034 7.034 0 0 1 7.034-7.034h11.038z" fill="#2f2e41"/><path data-name="Path 7228" d="M160.232 184.22h5.6l.838-21.619h-6.444z" fill="#ffb8b8"/><path data-name="Path 7229" d="M158.802 182.387h11.038a7.034 7.034 0 0 1 7.034 7.034v.228h-18.071z" fill="#2f2e41"/><path data-name="Path 7230" d="M160.38 181.449a2.067 2.067 0 0 1-2.009-1.61l-13.892-60.593a.666.666 0 0 0-.669-.537.667.667 0 0 0-.668.543l-12.76 60.185a2.067 2.067 0 0 1-2.013 1.63h-6.079a2.057 2.057 0 0 1-2.054-2.179l4.526-76.282 1.821-.539h.034l35.777.313 7.62 76.2a2.056 2.056 0 0 1-1.882 2.25l-7.591.613q-.079.006-.161.006z" fill="#2f2e41"/><circle data-name="Ellipse 72" cx="11.229" cy="11.229" r="11.229" transform="translate(134.376 9.788)" fill="#ffb8b8"/><path data-name="Path 7231" d="M138.727 110.971a19.38 19.38 0 0 1-5.819-.819 12.845 12.845 0 0 1-7.789-6.572 2.06 2.06 0 0 1-.153-1.534c1.238-4.227 7.223-26.2 3.4-43.661a18.508 18.508 0 0 1 2.631-14.225 18.276 18.276 0 0 1 11.853-7.972c.633-.124 1.27-.225 1.892-.3a18.212 18.212 0 0 1 14.747 4.852 18.662 18.662 0 0 1 5.859 14.794l-2.935 47.09a2.039 2.039 0 0 1-1.1 1.693c-3.371 1.77-13.523 6.654-22.586 6.654z" fill="#3f3d56"/><path data-name="Path 7232" d="M158.29 12.751a13.786 13.786 0 0 0-15.111-8.5l3.54 2.861c-4.4.148-9.029-.167-12.17 2.916 1-.028 2.31 2.111 3.31 2.083a5.243 5.243 0 0 0-4.39 3.028 8.624 8.624 0 0 0-.509 5.485c.369 1.833 3.186 6.127 3.944 7.836-.13-4.467 8.663-15.121 12.957-14.009a11.782 11.782 0 0 0-5.44 4.131 15.957 15.957 0 0 1 9.464-1.548 6.7 6.7 0 0 0 2.256.126 2.754 2.754 0 0 0 1.633-4.4z" fill="#2f2e41"/><path data-name="Path 7233" d="M137.953 108.144a2.059 2.059 0 0 1-.824-.174l-21.3-9.3a2.044 2.044 0 0 1-1.167-2.412l14.1-53.278a7.71 7.71 0 0 1 9.573-5.442l5.639 1.609-3.97 67.058a2.067 2.067 0 0 1-2.051 1.938z" fill="#1784cf"/><path data-name="Path 7234" d="M177.383 96.257l-.937-3.534-1.358-5.139-.654-2.464-1.358-5.125-9.8-37.017a7.7 7.7 0 0 0-9.573-5.44l-5.637 1.609 2.793 47.166.288 4.924.183 3.1.292 4.9.412 6.963a2.071 2.071 0 0 0 2.052 1.938 2.1 2.1 0 0 0 .823-.174l21.3-9.3a2.042 2.042 0 0 0 1.166-2.414z" fill="#1784cf"/><path data-name="Path 7235" d="M174.434 85.116l-23.283 6.117-.288-4.924 22.209-6.313z" fill="#ccc"/><path data-name="Path 7236" d="M176.445 92.724l-24.82 6.519-.292-4.9 23.755-6.757z" fill="#ccc"/><path data-name="Path 7237" d="M140.892 87.375l-.289 4.832-22.835-6.8 1.339-5.056z" fill="#ccc"/><path data-name="Path 7238" d="M140.416 95.388l-23.3-7.52-1.34 5.07 24.358 7.255z" fill="#ccc"/><path data-name="Path 7239" d="M117.52 100.438a4.911 4.911 0 0 0 3.22-6.808l10.954-34.386-7.768-1.627-10.043 33.721a4.938 4.938 0 0 0 3.637 9.108z" fill="#ffb8b8"/><path data-name="Path 7240" d="M131.999 42.337c2.23.228 3.485 2.736 2.931 5.858l-2.661 14.985c-.2 1.123-1.124 2.013-1.892 1.821l-9-2.25c-.693-.173-.948-1.157-.555-2.142l5.4-13.557c1.174-2.944 3.614-4.936 5.777-4.715z" fill="#3f3d56"/><path data-name="Path 7241" d="M145.563 0a14.626 14.626 0 0 1 14.622 14.171h2.755a.914.914 0 0 1 .914.914v3.657a.914.914 0 0 1-.914.914h-31.092a.914.914 0 0 1-.914-.914v-4.115A14.629 14.629 0 0 1 145.563 0z" fill="#1784cf"/><path data-name="Path 7242" d="M147.312 90.431h-6.462a.831.831 0 0 1-.83-.753l-1.294-13.259h10.708l-1.294 13.259a.831.831 0 0 1-.828.753z" fill="#e6e6e6"/><path data-name="Path 7243" d="M149.418 78.09h-10.675a.835.835 0 0 1-.834-.834v-2a.835.835 0 0 1 .834-.834h10.676a.835.835 0 0 1 .834.834v2a.835.835 0 0 1-.835.834z" fill="#ccc"/><path data-name="Path 7244" d="M144.219 83.32a4.813 4.813 0 0 1 .744.146l17.211-14.759-1.006-5.415 7.974-2.586 2.713 9.414a3.658 3.658 0 0 1-1.559 4.1l-21.8 13.793a4.8 4.8 0 1 1-4.28-4.695z" fill="#ffb8b8"/><path data-name="Path 7245" d="M162.216 43.575c2.383-.667 4.763 1.147 5.561 4.236l3.828 14.826c.287 1.111-.27 2.292-1.141 2.418l-10.2 1.467c-.785.113-1.476-.692-1.5-1.752l-.4-14.59c-.082-3.168 1.544-5.958 3.852-6.605z" fill="#3f3d56"/><path data-name="Path 7246" d="M299.294 138.28a76.58 76.58 0 0 1-11.007-20.542 1.967 1.967 0 0 1 .929-2.368l16.067-8.609a1.942 1.942 0 0 1 1.7-.069 1.975 1.975 0 0 1 1.125 1.318 46.782 46.782 0 0 0 10.269 19.151 1.974 1.974 0 0 1 .475 1.667 1.942 1.942 0 0 1-1 1.38l-16.075 8.61a1.967 1.967 0 0 1-2.483-.538z" fill="#ccc"/><path data-name="Path 7247" d="M300.39 137.457a.594.594 0 0 0 .742.153l16.068-8.609a.569.569 0 0 0 .3-.41.6.6 0 0 0-.149-.516 48.158 48.158 0 0 1-10.564-19.715.6.6 0 0 0-.347-.409.57.57 0 0 0-.508.021l-16.067 8.609a.594.594 0 0 0-.283.7 75.209 75.209 0 0 0 10.81 20.174z" fill="#fff"/><path data-name="Path 7248" d="M306.337 119.049l-8.751 3.863a1.373 1.373 0 0 1-1.809-.7l-.216-.49a1.373 1.373 0 0 1 .7-1.809l8.751-3.863a1.373 1.373 0 0 1 1.809.7l.216.49a1.373 1.373 0 0 1-.7 1.809z" fill="#ccc"/><path data-name="Path 7249" d="M309.538 124.992l-8.751 3.863a1.373 1.373 0 0 1-1.809-.7l-.216-.49a1.373 1.373 0 0 1 .7-1.809l8.751-3.863a1.373 1.373 0 0 1 1.809.7l.216.49a1.373 1.373 0 0 1-.7 1.809z" fill="#ccc"/><path data-name="Path 7250" d="M289.015 120.039a4.911 4.911 0 0 1-.943-7.471l-3.69-52.373 10.631 1.031.292 51.289a4.938 4.938 0 0 1-6.289 7.525z" fill="#a0616a"/><path data-name="Path 7251" d="M286.788 77.789a2.049 2.049 0 0 1-.85-1.555l-.779-14.116a5.668 5.668 0 0 1 11.13-1.8l3.422 12.62a2.06 2.06 0 0 1-1.447 2.524l-9.733 2.639a2.05 2.05 0 0 1-1.743-.312z" fill="#3f3d56"/><path data-name="Path 7252" d="M268.669 184.427h-5.6l-2.666-21.619h8.272z" fill="#a0616a"/><path data-name="Path 7253" d="M259.06 182.82h10.809v6.806h-17.615a6.806 6.806 0 0 1 6.806-6.806z" fill="#2f2e41"/><path data-name="Path 7254" d="M289.698 184.427h-5.6l-2.666-21.619h8.272z" fill="#a0616a"/><path data-name="Path 7255" d="M280.09 182.82h10.809v6.806h-17.615a6.806 6.806 0 0 1 6.806-6.806z" fill="#2f2e41"/><path data-name="Path 7256" d="M268.404 173.536l-6.17-.294a2.057 2.057 0 0 1-1.959-2.04c-1.627-25.108-3.88-52.029-.431-62.43a2.058 2.058 0 0 1 2.353-2.051l24.684 3.583a2.045 2.045 0 0 1 1.762 2.021c3.151 12.315 3.294 34.645 3.175 57.848a2.057 2.057 0 0 1-2.057 2.073h-6.652a2.048 2.048 0 0 1-2.032-1.738l-4.1-26.09a1.6 1.6 0 0 0-3.169.059l-3.258 27.249a2.065 2.065 0 0 1-2.043 1.813z" fill="#2f2e41"/><path data-name="Path 7257" d="M272.747 112.327a31.054 31.054 0 0 0-11.74-4.021 2.02 2.02 0 0 1-1.4-.765 2.048 2.048 0 0 1-.426-1.555l5.915-43.912a15.187 15.187 0 0 1 8.853-11.867 14.769 14.769 0 0 1 14.353 1.125q.3.2.6.413a15.168 15.168 0 0 1 5.777 15.806c-3.627 14.838-4.873 39.162-5.086 43.888a2.041 2.041 0 0 1-1.334 1.831 20.611 20.611 0 0 1-6.961 1.239 17.43 17.43 0 0 1-8.551-2.182z" fill="#3f3d56"/><circle data-name="Ellipse 73" cx="11.229" cy="11.229" r="11.229" transform="translate(266.466 21.788)" fill="#a0616a"/><path data-name="Path 7258" d="M285.64 41.901a3.627 3.627 0 0 1-6.258-2.015 3.687 3.687 0 0 1 0-.711c.141-1.35.921-2.576.734-4a2.1 2.1 0 0 0-.384-.982c-1.669-2.235-5.588 1-7.163-1.024-.966-1.241.169-3.194-.572-4.581-.978-1.83-3.876-.927-5.694-1.93-2.022-1.115-1.9-4.217-.57-6.1a9.6 9.6 0 0 1 7.28-3.706 19.528 19.528 0 0 1 8.226 1.605c2.981 1.162 5.938 2.767 7.772 5.389 2.231 3.188 2.446 7.474 1.33 11.2-.673 2.263-2.99 5.034-4.701 6.855z" fill="#2f2e41"/><path data-name="Path 7259" d="M294.532 52.817c-.2-.923-1.884-2.185-4.3-3.214a26.578 26.578 0 0 0-24 2.057 1.134 1.134 0 0 0-1.047.892l-8.12 35.911-1.056 4.677-.7 3.1-1.056 4.663-.562 2.492a1.146 1.146 0 0 0 1.015 1.394l35.06 3.026h.1a1.143 1.143 0 0 0 1.134-1.07l.334-5.079.357-5.431.155-2.354.352-5.417 2.336-35.586v-.032z" fill="#1784cf"/><path data-name="Path 7260" d="M237.005 55.077a4.8 4.8 0 0 1 .109.75l19.639 11.33 4.774-2.748 5.089 6.662-10.212 7.278-22.405-17.676a4.8 4.8 0 1 1 3.006-5.6z" fill="#a0616a"/><path data-name="Path 7261" d="M257.455 66.194a2.049 2.049 0 0 1 .591-1.67l10-10a5.668 5.668 0 0 1 8.763 7.094l-7.118 10.969a2.06 2.06 0 0 1-2.846.606l-8.46-5.49a2.05 2.05 0 0 1-.93-1.509z" fill="#3f3d56"/><path data-name="Path 7262" d="M292.201 88.463l-.352 5.417-35.838-.741 1.056-4.677z" fill="#ccc"/><path data-name="Path 7263" d="M291.694 96.235l-.357 5.431-37.081-.768 1.057-4.663z" fill="#ccc"/><path data-name="Path 7264" d="M277.914 11.201a14.626 14.626 0 0 0-14.618 14.171h-2.755a.914.914 0 0 0-.914.914v3.657a.914.914 0 0 0 .914.914h31.088a.914.914 0 0 0 .914-.914v-4.115a14.629 14.629 0 0 0-14.629-14.627z" fill="#1784cf"/><path data-name="Path 7265" d="M49.427 156.835a17.859 17.859 0 0 1-17.245-3.038c-6.04-5.07-7.934-13.422-9.475-21.156l-4.558-22.875 9.542 6.57c6.862 4.725 13.879 9.6 18.63 16.445s6.825 16.186 3.008 23.591" fill="#e6e6e6"/><path data-name="Path 7266" d="M48.611 184.531c.966-7.035 1.959-14.16 1.281-21.27a33.453 33.453 0 0 0-6.45-17.539 29.176 29.176 0 0 0-7.486-6.783c-.749-.472-1.438.714-.692 1.184a27.737 27.737 0 0 1 10.972 13.238c2.389 6.076 2.772 12.7 2.361 19.152-.249 3.9-.776 7.78-1.308 11.653a.71.71 0 0 0 .479.844.69.69 0 0 0 .843-.479z" fill="#f2f2f2"/><path data-name="Path 7267" d="M39.309 172.082a13.146 13.146 0 0 1-11.457 5.912c-5.8-.275-10.632-4.322-14.984-8.164L0 158.466l8.518-.408c6.126-.293 12.41-.567 18.245 1.322s11.216 6.436 12.283 12.475" fill="#e6e6e6"/><path data-name="Path 7268" d="M51.343 188.574c-4.648-8.225-10.04-17.366-19.674-20.288a21.953 21.953 0 0 0-8.275-.854c-.879.076-.659 1.43.218 1.354a20.4 20.4 0 0 1 13.206 3.494 34.325 34.325 0 0 1 9.077 9.795c1.5 2.289 2.849 4.675 4.2 7.058.43.761 1.688.212 1.253-.559z" fill="#f2f2f2"/><path data-name="Path 7269" d="M339.543 190.412H14.037a.457.457 0 0 1 0-.914h325.506a.457.457 0 0 1 0 .914z" fill="#ccc"/></svg>