<svg xmlns="http://www.w3.org/2000/svg" width="272.47" height="200.211" viewBox="0 0 272.47 200.211"><g data-name="Group 814"><g data-name="Group 813"><path data-name="Path 7121" d="M127.458 158.49l4.3-1.926-5.388-17.925-6.353 2.843z" fill="#ffb6b6"/><path data-name="Path 7122" d="M124.375 153.624l6.439-4.547 1.777 2.865 9.081.447a2.106 2.106 0 0 1 1.007 3.893l-7.961 4.938-3.13-1.983 1.222 3.166-3 1.862z" fill="#2f2e41"/><path data-name="Path 7123" d="M238.028 124.563c0-1.8-.605-3.266-1.349-3.269H34.045c-.747 0-1.349 1.466-1.352 3.269v74.209a.674.674 0 0 1-.608.671q-.816.078-1.631.146h-.04c-.3.027-.592.047-.888.071q-.228-.422-.451-.852a.677.677 0 0 1-.077-.312v-78.174c0-.5.02-1 .054-1.493a19.126 19.126 0 0 1 .252-2.025c.568-3.124 1.853-5.24 3.313-5.247h205.5a1.574 1.574 0 0 1 .619.131 2.412 2.412 0 0 1 .764.535 4.728 4.728 0 0 1 .75 1.026 13.5 13.5 0 0 1 1.405 5.36v.061c.047.545.071 1.1.067 1.655l.047 7.208.03 4.3.091 13.487.034 4.789.148 49.171a.673.673 0 0 1-.673.673h-2.7a.673.673 0 0 1-.673-.673z" fill="#e6e6e6"/><path data-name="Path 7124" d="M182.966 77.831h-21.835a1.165 1.165 0 0 0-1.163 1.166v34.492h24.164V78.998a1.166 1.166 0 0 0-1.166-1.166zm-10.844 19.6a2.59 2.59 0 0 1-2.578-2.578v-3.978a2.578 2.578 0 1 1 5.156 0v3.978a2.59 2.59 0 0 1-2.578 2.576z" fill="#2f2e41"/><path data-name="Path 7125" d="M159.893 112.386v3.328a.652.652 0 0 0 .651.651h23.008a.654.654 0 0 0 .651-.651v-3.328z" fill="#3f3d56"/><path data-name="Path 7126" d="M131.84 29.799a4.656 4.656 0 0 1-6.78 2.239L94.24 53.509l-.851-8.556 30.3-19.634a4.681 4.681 0 0 1 8.147 4.48z" fill="#ffb6b6"/><path data-name="Path 7127" d="M62.835 43.336s-3.337 4.931 1.9 9.295 26.463 3.5 29.888 3.458 19.141-16.3 19.141-16.3l-.1-9.389-18.975 11.259z" fill="#1784cf"/><path data-name="Path 7128" d="M60.945 76.077l.336 6.39s-.993 5.661-.176 6.882 23.062 3.024 23.062 3.024-.7-9.53.561-16.424z" fill="#ffb6b6"/><path data-name="Path 7129" d="M129.235 141.139l-8.565 7.5-16.787-34.333c-16.647 2.863-32.351 3.78-45.935.317a8.78 8.78 0 0 1-6.279-10.607q.079-.33.183-.652c1.626-4.96 5.881-8.47 9.234-13.925l24.49.372-2.735 9.438 23.791-3.079a8.773 8.773 0 0 1 9.759 7.735q.048.387.063.778z" fill="#2f2e41"/><circle data-name="Ellipse 57" cx="9.944" cy="9.944" r="9.944" transform="translate(60.563 13.182)" fill="#ffb6b6"/><path data-name="Path 7130" d="M64.678 36.662l9.118 1.073a1.861 1.861 0 0 1 1.6 1.451l1.45 6.635 9.039 10.645a22.32 22.32 0 0 1 2.029 12.984 48.86 48.86 0 0 1-3.77 12.023s-22.23 9.092-23.042 7.874-1.075-6.746-1.075-6.746l-2.86-31.817a11.416 11.416 0 0 1 3.281-9.173 3.449 3.449 0 0 1 2.015-1.211c1.309-.041 1.141-2.988 2.215-3.738z" fill="#1784cf"/><path data-name="Path 7131" d="M84.243 171.822l4.231 2.072 10.186-15.7-6.245-3.059z" fill="#ffb6b6"/><path data-name="Path 7132" d="M94.383 168.274l-8.693-3.3 11.931-35.834a103.71 103.71 0 0 1-39.11-21.493c-3.621-3.062-6.337-6.994-3.253-10.719q.216-.261.452-.505c3.642-3.739 12.885-3.02 18.3-6.444l12.1 12.92-.758 3.461 22.719 7.7a8.773 8.773 0 0 1 5.362 11.24q-.127.369-.286.726z" fill="#2f2e41"/><path data-name="Path 7133" d="M84.099 169.32l7.273 3.04-1.483 3.028 4.445 7.931a2.106 2.106 0 0 1-2.763 2.921l-8.413-4.121.017-3.705-2.033 2.717-3.172-1.554z" fill="#2f2e41"/><path data-name="Path 7134" d="M69.876 114.453a4.656 4.656 0 0 1-.852-7.089L54.081 72.902l8.555.86 13.244 33.592a4.682 4.682 0 0 1-6 7.1z" fill="#ffb6b6"/><path data-name="Path 7135" d="M70.271 44.133s-4.173-4.248-9.487.021-8.666 25.246-9.308 28.611 12.182 21.989 12.182 21.989l9.224 1.758-7.279-20.829z" fill="#1784cf"/><path data-name="Path 7136" d="M219.119 24.003h-93.331a3.03 3.03 0 0 0-3.025 3.025v62.981a3.028 3.028 0 0 0 3.025 3.025h93.331a3.028 3.028 0 0 0 3.025-3.025V27.028a3.03 3.03 0 0 0-3.025-3.025z" fill="#3f3d56"/><path data-name="Path 7137" d="M218.342 26.189h-91.774a1.621 1.621 0 0 0-1.618 1.621v61.42a1.621 1.621 0 0 0 1.618 1.618h91.774a1.621 1.621 0 0 0 1.618-1.618V27.81a1.621 1.621 0 0 0-1.618-1.621z" fill="#fff"/><path data-name="Path 7138" d="M200.465 117.523h-54.6a1 1 0 0 1-.983-1.211l.847-4.024a1.009 1.009 0 0 1 .983-.8h52.902a1.009 1.009 0 0 1 .983.8l.847 4.024a1 1 0 0 1-.983 1.211z" fill="#2f2e41"/><rect data-name="Rectangle 1682" width="1.682" height="1.009" rx=".488" transform="translate(147.1 112.214)" fill="#3f3d56"/><rect data-name="Rectangle 1683" width="1.682" height="1.009" rx=".488" transform="translate(150.463 112.214)" fill="#3f3d56"/><rect data-name="Rectangle 1684" width="1.682" height="1.009" rx=".488" transform="translate(153.827 112.214)" fill="#3f3d56"/><rect data-name="Rectangle 1685" width="1.682" height="1.009" rx=".488" transform="translate(157.19 112.214)" fill="#3f3d56"/><rect data-name="Rectangle 1686" width="1.682" height="1.009" rx=".488" transform="translate(160.553 112.214)" fill="#3f3d56"/><rect data-name="Rectangle 1687" width="1.682" height="1.009" rx=".488" transform="translate(163.917 112.214)" fill="#3f3d56"/><rect data-name="Rectangle 1688" width="1.682" height="1.009" rx=".488" transform="translate(167.28 112.214)" fill="#3f3d56"/><rect data-name="Rectangle 1689" width="1.682" height="1.009" rx=".488" transform="translate(170.643 112.214)" fill="#3f3d56"/><rect data-name="Rectangle 1690" width="1.682" height="1.009" rx=".488" transform="translate(174.006 112.214)" fill="#3f3d56"/><rect data-name="Rectangle 1691" width="1.682" height="1.009" rx=".488" transform="translate(177.37 112.214)" fill="#3f3d56"/><rect data-name="Rectangle 1692" width="1.682" height="1.009" rx=".488" transform="translate(180.733 112.214)" fill="#3f3d56"/><rect data-name="Rectangle 1693" width="1.682" height="1.009" rx=".488" transform="translate(184.096 112.214)" fill="#3f3d56"/><rect data-name="Rectangle 1694" width="1.682" height="1.009" rx=".488" transform="translate(187.46 112.214)" fill="#3f3d56"/><rect data-name="Rectangle 1695" width="1.682" height="1.009" rx=".488" transform="translate(190.823 112.214)" fill="#3f3d56"/><rect data-name="Rectangle 1696" width="1.682" height="1.009" rx=".488" transform="translate(194.186 112.214)" fill="#3f3d56"/><rect data-name="Rectangle 1697" width="1.682" height="1.009" rx=".488" transform="translate(197.549 112.214)" fill="#3f3d56"/><rect data-name="Rectangle 1698" width="1.682" height="1.009" rx=".488" transform="translate(147.06 113.896)" fill="#3f3d56"/><rect data-name="Rectangle 1699" width="1.682" height="1.009" rx=".488" transform="translate(150.424 113.896)" fill="#3f3d56"/><rect data-name="Rectangle 1700" width="1.682" height="1.009" rx=".488" transform="translate(153.787 113.896)" fill="#3f3d56"/><rect data-name="Rectangle 1701" width="1.682" height="1.009" rx=".488" transform="translate(157.15 113.896)" fill="#3f3d56"/><rect data-name="Rectangle 1702" width="1.682" height="1.009" rx=".488" transform="translate(160.514 113.896)" fill="#3f3d56"/><rect data-name="Rectangle 1703" width="1.682" height="1.009" rx=".488" transform="translate(163.877 113.896)" fill="#3f3d56"/><rect data-name="Rectangle 1704" width="1.682" height="1.009" rx=".488" transform="translate(167.24 113.896)" fill="#3f3d56"/><rect data-name="Rectangle 1705" width="1.682" height="1.009" rx=".488" transform="translate(170.603 113.896)" fill="#3f3d56"/><rect data-name="Rectangle 1706" width="1.682" height="1.009" rx=".488" transform="translate(173.967 113.896)" fill="#3f3d56"/><rect data-name="Rectangle 1707" width="1.682" height="1.009" rx=".488" transform="translate(177.33 113.896)" fill="#3f3d56"/><rect data-name="Rectangle 1708" width="1.682" height="1.009" rx=".488" transform="translate(180.693 113.896)" fill="#3f3d56"/><rect data-name="Rectangle 1709" width="1.682" height="1.009" rx=".488" transform="translate(184.057 113.896)" fill="#3f3d56"/><rect data-name="Rectangle 1710" width="1.682" height="1.009" rx=".488" transform="translate(187.42 113.896)" fill="#3f3d56"/><rect data-name="Rectangle 1711" width="1.682" height="1.009" rx=".488" transform="translate(190.783 113.896)" fill="#3f3d56"/><rect data-name="Rectangle 1712" width="1.682" height="1.009" rx=".488" transform="translate(194.146 113.896)" fill="#3f3d56"/><rect data-name="Rectangle 1713" width="1.682" height="1.009" rx=".488" transform="translate(197.51 113.896)" fill="#3f3d56"/><rect data-name="Rectangle 1714" width="13.453" height="1.009" rx=".488" transform="translate(163.204 115.914)" fill="#3f3d56"/><path data-name="Path 7139" d="M212.021 194.284l-2.593-4.167-.518 2.381a74.13 74.13 0 0 0-.266 1.261c-.737-.629-1.52-1.211-2.287-1.769q-3.532-2.563-7.06-5.132l.737 4.271a30.3 30.3 0 0 0 2.052 7.719c.125.272.259.542.4.8h10.948a3.521 3.521 0 0 0 .182-.753.25.25 0 0 0 0-.05c.178-1.627-.727-3.165-1.595-4.561z" fill="#f0f0f0"/><path data-name="Path 7140" d="M64.037 194.284l-2.593-4.167-.518 2.381a74.13 74.13 0 0 0-.266 1.261c-.737-.629-1.52-1.211-2.287-1.769q-3.532-2.563-7.06-5.132l.737 4.271a30.306 30.306 0 0 0 2.052 7.719c.124.272.259.542.4.8H65.45a3.525 3.525 0 0 0 .182-.753.261.261 0 0 0 0-.05c.178-1.627-.727-3.165-1.595-4.561z" fill="#f0f0f0"/><path data-name="Path 7141" d="M272.07 200.108l-92.743.1a.4.4 0 0 1 0-.8l92.743-.1a.4.4 0 1 1 0 .8z" fill="#cacaca"/><path data-name="Path 7142" d="M93.143 200.108l-92.743.1a.4.4 0 0 1 0-.8l92.743-.1a.4.4 0 1 1 0 .8z" fill="#cacaca"/><path data-name="Path 7143" d="M59.992 14.263c-1.6.478-3.1-.864-4.218-2.136l.4.471c-2.627 1.85-4.2 4.863-5.216 7.914s-1.587 6.239-2.738 9.242-3.007 5.9-5.849 7.4c-3.807 2-8.472 1.093-12.522-.353l-.158-.057a25.8 25.8 0 0 0 2.953-9.888 23.462 23.462 0 0 1-7.016 8.23 53.859 53.859 0 0 1-7.608-4.231c-1.564-1.046-3.212-2.4-3.394-4.271s1.2-3.558 2.842-4.453a27.037 27.037 0 0 1 5.311-1.735 7.524 7.524 0 0 0 4.547-3.027c2.163-3.713-1.477-8.95.844-12.569 1.144-1.779 3.363-2.492 5.422-2.987A71.679 71.679 0 0 1 43.137.202a20.053 20.053 0 0 1 8.422.521c2.684.908 5.119 3.017 5.694 5.795 1.567.824 3.225 1.735 4.066 3.3s.371 3.94-1.327 4.445z" fill="#2f2e41"/><path data-name="Path 7144" d="M57.597 13.637a9.836 9.836 0 0 0-2.372 5.252c-3.191 5.833 1.372 10.843 7.205 14.034a11.95 11.95 0 0 0 7.635 1.331l.244-1.042.331.938s3.8 12.543 5.05 13.278c-.475-2.232-1.02-12.567-1.284-14.746-.366-2.965.911-7.379 1.832-10.064a15.844 15.844 0 0 0 .867-5.142v-.078l.9 2.881 3.266-1.393c-.608-3.485 0-7.441-7.284-7.1-3.939-2.709-7.408-3.122-10.258-2.354-.368-.569-2.488.5-3.1.2" fill="#2f2e41"/><path data-name="Path 7145" d="M219.96 27.81v61.42a1.62 1.62 0 0 1-1.618 1.618H185.98a39.712 39.712 0 0 1-8.664-11.657q-.212-.424-.4-.858a39.359 39.359 0 0 1-3.5-13.463 22.213 22.213 0 0 1-.057-.861 37.85 37.85 0 0 1-.064-2.243 39.53 39.53 0 0 1 2.788-14.634c.111-.289.229-.575.35-.861a39.821 39.821 0 0 1 18.952-20.082h22.958a1.621 1.621 0 0 1 1.617 1.621z" fill="#1784cf"/><path data-name="Path 7146" d="M213.729 34.651h-85.873a.342.342 0 0 1 0-.683h85.873a.342.342 0 1 1 0 .683z" fill="#cacaca"/><ellipse data-name="Ellipse 58" cx="2.001" cy="2.046" rx="2.001" ry="2.046" transform="translate(131.7 28.132)" fill="#3f3d56"/><ellipse data-name="Ellipse 59" cx="2.001" cy="2.046" rx="2.001" ry="2.046" transform="translate(138.614 28.132)" fill="#3f3d56"/><ellipse data-name="Ellipse 60" cx="2.001" cy="2.046" rx="2.001" ry="2.046" transform="translate(145.527 28.132)" fill="#3f3d56"/><path data-name="Path 7147" d="M209.566 28.639h-4.908a.372.372 0 0 0 0 .744h4.911a.372.372 0 1 0 0-.744z" fill="#3f3d56"/><path data-name="Path 7148" d="M209.566 30.035h-4.908a.372.372 0 1 0 0 .744h4.911a.372.372 0 1 0 0-.744z" fill="#3f3d56"/><path data-name="Path 7149" d="M209.566 31.429h-4.908a.372.372 0 1 0 0 .744h4.911a.372.372 0 0 0 0-.744z" fill="#3f3d56"/><rect data-name="Rectangle 1715" width="13.649" height="2.919" rx="1.459" transform="translate(141.32 54.601)" fill="#1784cf"/><rect data-name="Rectangle 1716" width="27.512" height="2.919" rx="1.459" transform="translate(134.389 60.438)" fill="#e6e6e6"/><rect data-name="Rectangle 1717" width="27.512" height="2.919" rx="1.459" transform="translate(134.389 66.276)" fill="#e6e6e6"/><path data-name="Path 7150" d="M136.634 87.326a10.029 10.029 0 0 1-.632 3.521h-9.434a1.621 1.621 0 0 1-1.618-1.613v-11.87a9.965 9.965 0 0 1 1.594-.13 10.089 10.089 0 0 1 10.09 10.091z" fill="#1784cf"/><path data-name="Path 7151" d="M220.044 47.129v-.861h-14.432v-9.979h-.858v9.979h-16.54v-9.979h-.858v9.979h-10.924c-.121.286-.239.572-.35.861h11.274v16.877h-14c.013.289.034.575.057.861h13.941v13.462h-10.441q.192.434.4.858h10.039v11.317h.858V79.19h16.541v11.317h.858V79.19h14.432v-.861h-14.429v-13.46h14.432v-.861h-14.432V47.129zm-15.29 31.2h-16.54v-13.46h16.541zm0-14.324h-16.54V47.129h16.541z" opacity=".2"/><path data-name="Path 7152" d="M208.424 84.476a.9.9 0 0 1-.651-1.558l.062-.245-.024-.059a2.414 2.414 0 0 0-4.452.017 21.432 21.432 0 0 0-1.883 5.365 7.139 7.139 0 0 0 .125 2.456 28.629 28.629 0 0 1-2.6-11.89 27.651 27.651 0 0 1 .172-3.082q.142-1.258.394-2.5a28.959 28.959 0 0 1 5.743-12.273 7.706 7.706 0 0 0 3.205-3.325 5.881 5.881 0 0 0 .535-1.606 7.49 7.49 0 0 1-.471.043l-.148.008h-.018a.891.891 0 0 1-.731-1.451l.2-.249c.1-.128.207-.253.31-.381a.431.431 0 0 0 .033-.038l.353-.435a2.575 2.575 0 0 0-.844-.816 2.968 2.968 0 0 0-3.658.854 4.653 4.653 0 0 0-.719 3.9 10.321 10.321 0 0 0 1.427 3.182c-.064.082-.13.161-.194.243a29.137 29.137 0 0 0-3.042 4.819 12.117 12.117 0 0 0-.723-5.628 20.3 20.3 0 0 0-3.133-4.521 2.487 2.487 0 0 0-4.429 1.221l-.007.064q.255.144.5.3a1.219 1.219 0 0 1-.492 2.219h-.025a12.122 12.122 0 0 0 .32 1.814 12.489 12.489 0 0 0 6.219 7.828l.3.151a29.75 29.75 0 0 0-1.6 7.536 28.215 28.215 0 0 0 .021 4.556l-.008-.054a7.456 7.456 0 0 0-2.545-4.305c-1.959-1.609-4.726-2.2-6.839-3.495a1.4 1.4 0 0 0-2.143 1.361l.009.056a8.18 8.18 0 0 1 .918.443q.255.144.5.3a1.219 1.219 0 0 1-.492 2.219h-.025l-.051.008a12.141 12.141 0 0 0 2.233 3.5 12.5 12.5 0 0 0 9.066 3.978 29.751 29.751 0 0 0 2 5.832h7.137c.026-.079.049-.161.072-.24a8.106 8.106 0 0 1-1.975-.118c.53-.65 1.059-1.3 1.589-1.954a.442.442 0 0 0 .033-.038c.269-.332.54-.663.808-1a11.88 11.88 0 0 0-.348-3.026zm-8.173-16.077v-.005.01zM198.67 82.65l-.061-.138v-.3c0-.028-.005-.056-.005-.084.023.176.043.353.069.53z" fill="#2f2e41"/></g></g></svg>