<svg xmlns="http://www.w3.org/2000/svg" width="370.612" height="184.695" viewBox="0 0 370.612 184.695"><g data-name="Group 812"><g data-name="Group 811"><circle data-name="Ellipse 55" cx="18.218" cy="18.218" r="18.218" transform="translate(82.972 114.623)" fill="#e4e4e4"/><path data-name="Path 7104" d="M87.738 120.673a18.219 18.219 0 0 0 30.356 19.281 18.219 18.219 0 1 1-30.356-19.281z" opacity=".2" style="isolation:isolate"/><path data-name="Path 7105" d="M101.239 132.841h.05l.9 51.65h-1.9z" fill="#3f3d56"/><circle data-name="Ellipse 56" cx="36.73" cy="36.73" r="36.73" transform="translate(27.6 43.625)" fill="#e4e4e4"/><path data-name="Path 7106" d="M37.21 55.823a36.733 36.733 0 0 0 61.2 38.874 36.733 36.733 0 1 1-61.2-38.874z" opacity=".2" style="isolation:isolate"/><path data-name="Path 7107" d="M64.431 80.355h.1l1.816 104.136h-3.835z" fill="#3f3d56"/><path data-name="Rectangle 1674" fill="#f0f0f0" d="M138.137 130.591h168.354v49.907H138.137z"/><path data-name="Rectangle 1675" fill="#cacaca" d="M212.499 140.905h19.63v39.593h-19.63z"/><path data-name="Rectangle 1676" fill="#f0f0f0" d="M147.952 71.7h148.724v45.915H147.952z"/><path data-name="Path 7108" d="M311.754 74.528H132.875a1.5 1.5 0 0 1-1.038-2.577l48.888-46.992V4.492a1.5 1.5 0 0 1 1.5-1.5h9.649a1.5 1.5 0 0 1 1.5 1.5v8.316l3.693-3.549a33.177 33.177 0 0 1 45.175-.751l70.52 63.411a1.5 1.5 0 0 1-1 2.611z" fill="#cacaca"/><path data-name="Path 7109" d="M187.211 83.346a9.482 9.482 0 0 1 9.482 9.482v12.81H177.73V92.825a9.482 9.482 0 0 1 9.481-9.479z" fill="#fff"/><path data-name="Path 7110" d="M222.315 83.512a9.482 9.482 0 0 1 9.482 9.482v12.81h-18.965v-12.81a9.482 9.482 0 0 1 9.483-9.482z" fill="#fff"/><path data-name="Path 7111" d="M257.416 83.678a9.482 9.482 0 0 1 9.482 9.482v12.81h-18.964V93.16a9.482 9.482 0 0 1 9.482-9.482z" fill="#fff"/><path data-name="Path 7112" d="M271.39 140.406a9.482 9.482 0 0 1 9.482 9.482v12.81h-18.964v-12.81a9.482 9.482 0 0 1 9.482-9.482z" fill="#fff"/><path data-name="Path 7113" d="M177.564 140.406a9.482 9.482 0 0 1 9.482 9.482v12.81h-18.964v-12.81a9.482 9.482 0 0 1 9.482-9.482z" fill="#fff"/><path data-name="Path 7114" d="M331.087 131.37l-31.577-13.974a1.33 1.33 0 0 0-.538-.114H148.456a1.331 1.331 0 0 0-.5.1l-34.378 13.972a1.331 1.331 0 0 0 .5 2.564h8.919v45.915h-1v4.658h200.631v-4.658h-1.664v-45.915h9.584a1.331 1.331 0 0 0 .538-2.548zm-12.784 48.463H125.66v-45.915h192.643z" fill="#cacaca"/><path data-name="Rectangle 1677" fill="#cacaca" d="M174.736 103.807h24.288v3.993h-24.288z"/><path data-name="Rectangle 1678" fill="#cacaca" d="M210.337 103.807h24.288v3.993h-24.288z"/><path data-name="Rectangle 1679" fill="#cacaca" d="M245.937 103.807h24.288v3.993h-24.288z"/><path data-name="Rectangle 1680" fill="#cacaca" d="M259.246 161.367h24.288v3.993h-24.288z"/><path data-name="Rectangle 1681" fill="#cacaca" d="M165.087 161.367h24.288v3.993h-24.288z"/><path data-name="Path 7115" d="M370.2 184.694H.4a.408.408 0 1 1 0-.815h369.8a.408.408 0 1 1 0 .815z" fill="#3f3d56"/><path data-name="Path 7116" d="M277.191 71.016c0 .261 0 .526-.008.787 0 .314-.012.624-.025.938-.012.273-.024.542-.041.811a43.115 43.115 0 0 1-.318 3.381c-.025.175-.049.355-.077.534-.029.2-.057.4-.09.6q-.1.636-.22 1.272c-.041.212-.081.424-.126.636-.086.42-.18.844-.277 1.264-.008.033-.016.069-.025.1-.049.208-.1.412-.151.62-.016.061-.029.118-.049.179-.037.155-.078.31-.118.465a38.46 38.46 0 0 1-.175.644l-.3 1a1.052 1.052 0 0 0-.033.106c-.2.632-.4 1.256-.632 1.875a51.6 51.6 0 0 1-1.162 2.895c-.033.073-.065.147-.1.22-.143.322-.29.636-.44.95 0 0 0 .012-.008.016-.118.253-.245.506-.371.754a.031.031 0 0 1-.008.02c-.122.245-.249.489-.379.73l-.208.4-.025.045c-.261.485-.53.966-.815 1.443-.061.106-.122.212-.183.314s-.126.212-.192.314q-.061.11-.135.22c-.086.139-.171.281-.261.42-.016.029-.037.057-.053.086l-.465.718c-.192.289-.387.575-.587.86l-4.428 7.086-.192-.159-.053-.049-.175-.147-.481-.408c-.147.143-.29.285-.436.424-.057.057-.118.11-.175.167l-.13.122a42.7 42.7 0 0 1-28.532 12.129h-.014a46.6 46.6 0 0 1-23.252-5.488 7.662 7.662 0 0 1-.469-.257 45.358 45.358 0 0 1-2.732-1.61s-.008 0-.012-.008q-1.553-1.1-3.033-2.348a44.819 44.819 0 0 1-15.872-36.609c.012-.273.029-.542.049-.815q.1-1.48.3-2.948c.037-.273.078-.546.118-.815h87.161q.257 1.871.355 3.763c.04.783.06 1.563.06 2.353z" fill="#f0f0f0"/><path data-name="Path 7117" d="M276.776 64.896a44.071 44.071 0 0 0-87.161 0 40.94 40.94 0 0 0-.118.815q-.2 1.468-.3 2.948h87.936q-.101-1.89-.357-3.763z" fill="#1784cf"/><path data-name="Path 7118" d="M236.05 110.305h-25.253v-20.2c.466-9.232 8.356-9.977 15.771-9.482a9.482 9.482 0 0 1 9.482 9.483z" fill="#1784cf"/><path data-name="Path 7119" d="M210.795 95.943h.008zm-10.156-31.047c-.016.1-.037.2-.053.306.016-.1.037-.2.057-.306zm-.506 3.763c-.012.155-.024.31-.033.465q.012-.232.037-.465a.608.608 0 0 1 0-.086.413.413 0 0 1-.004.086zm10.662 27.288h.008l-.008-.008zm-10.156-31.052c-.016.1-.037.2-.053.306.016-.1.037-.2.057-.306zm-.538 4.228q.012-.232.037-.465a.608.608 0 0 1 0-.086c0 .029 0 .057-.008.086a18.49 18.49 0 0 0-.029.466zm125.959 75a2.74 2.74 0 0 0-.253-.237l-20.189-17.038-.522-.44-1.986-1.676-.5-.42-2.83-2.389-.775-.652-1.6-1.354-.82-.693-7.73-6.519-4.432-3.739-.6-.5-13.059-11.021c.2-.285.4-.571.587-.86l.465-.718c.016-.029.037-.057.053-.086.09-.139.175-.281.261-.42q.074-.11.135-.22c.065-.1.13-.208.192-.314l.183-.314c.285-.477.555-.958.815-1.443l.024-.045.208-.4c.13-.241.257-.485.379-.73a.03.03 0 0 0 .008-.02c.126-.249.253-.5.371-.754 0 0 0-.012.008-.016.151-.314.3-.628.44-.95.037-.073.069-.147.1-.22.134-.31.269-.624.4-.938s.265-.648.391-.975.253-.656.371-.983q.336-.936.632-1.875a1.037 1.037 0 0 1 .033-.106l.3-1c.061-.216.118-.428.175-.644.041-.155.082-.31.118-.465.02-.061.033-.118.049-.179.053-.208.1-.412.151-.62l.024-.1c.1-.42.192-.844.277-1.264.045-.212.086-.424.126-.636.077-.424.155-.848.22-1.272.033-.2.061-.4.09-.6.029-.179.053-.359.077-.534a43.115 43.115 0 0 0 .318-3.381 36.698 36.698 0 0 0 .065-1.749c0-.261.008-.526.008-.787 0-.787-.02-1.57-.061-2.357q-.1-1.89-.355-3.763a44.87 44.87 0 0 0-88.792-.815 40.94 40.94 0 0 0-.118.815q-.2 1.468-.3 2.948c-.02.273-.037.542-.049.815a44.819 44.819 0 0 0 15.875 36.617q1.48 1.248 3.033 2.348s.008 0 .012.008c.347.245.693.485 1.044.722.559.367 1.121.726 1.688 1.068.045.024.09.053.135.077.489.294.983.575 1.476.848a44.1 44.1 0 0 0 5.7 2.626 45.005 45.005 0 0 0 18.033 2.83h.012a44.752 44.752 0 0 0 20.357-6.027c.9-.522 1.79-1.08 2.658-1.676.216-.147.436-.3.648-.448.261-.184.522-.375.783-.567h.008a.588.588 0 0 1 .061-.045c.175-.135.355-.269.526-.4.045-.033.09-.065.134-.1a.2.2 0 0 0 .033-.029c.1-.073.2-.155.3-.232s.2-.159.3-.241a.375.375 0 0 0 .049-.037c.114-.094.228-.183.342-.277a57.739 57.739 0 0 0 .981-.827c.032-.025.061-.053.094-.082a.293.293 0 0 1 .041-.033c.135-.114.265-.232.4-.351l.094-.086c.2-.179.4-.359.6-.546l.139-.126.13-.122c.057-.057.118-.11.175-.167.147-.139.29-.281.436-.424l.481.408.175.147.053.049.192.159 2.846 2.406.061.053.049.037.322.273.644.546.644.542.094.077 3 2.528.416.351 2.891 2.438 14.963 12.627.522.44 20.479 17.279 5.251 4.432 1.953 1.647a4.131 4.131 0 0 0 5.826-.489 4.014 4.014 0 0 0 .689-1.158 4.114 4.114 0 0 0-.931-4.436zm-118.1-94.512a33.615 33.615 0 0 1 58.69 15.281c.053.273.1.542.147.815.167.974.29 1.961.363 2.948.02.273.041.542.053.815.037.612.053 1.227.053 1.839a33.464 33.464 0 0 1-1.818 10.9 33.435 33.435 0 0 1-6.1 10.756c-.057.065-.114.135-.175.2-.538.636-1.1 1.248-1.688 1.831l-.012.016c-.2.2-.4.4-.608.591-.416.4-.84.787-1.272 1.154q-.972.85-1.994 1.594a42.874 42.874 0 0 1-1.382.966 30.938 30.938 0 0 1-2.137 1.305c-.241.135-.485.269-.73.4s-.489.257-.738.379c-.493.249-.991.481-1.5.7q-.379.171-.758.318c-.159.065-.314.13-.473.188a1.529 1.529 0 0 1-.192.073q-.128.055-.257.1a.741.741 0 0 1-.086.033c-.175.069-.347.13-.526.192-.257.094-.514.179-.775.261s-.518.167-.779.241-.526.155-.787.224-.526.143-.791.2c-.281.073-.563.139-.848.2-.249.057-.493.106-.742.151-.232.049-.469.09-.7.13-.326.057-.652.11-.983.155-.18.029-.355.053-.534.069-.077.012-.151.02-.224.029-.228.033-.457.057-.681.077-.061 0-.118.012-.175.016-.249.025-.5.045-.75.065a34.12 34.12 0 0 1-1.6.073c-.269 0-.542.008-.811.008s-.538 0-.807-.012 0 0-.008 0a.069.069 0 0 1-.041 0 8.97 8.97 0 0 1-.571-.02c-.139 0-.281-.008-.424-.02q-.287-.012-.575-.037c-.061 0-.122-.008-.184-.012a.6.6 0 0 1-.086-.008c-.2-.016-.4-.033-.591-.053-.1-.008-.2-.016-.3-.029-.3-.033-.6-.069-.889-.11-.334-.041-.669-.09-1-.151-.155-.02-.306-.049-.457-.077q-.3-.049-.6-.11c-.208-.041-.416-.082-.624-.13-.167-.037-.338-.073-.505-.114-.082-.016-.163-.037-.241-.057-.428-.1-.852-.212-1.272-.334-.265-.073-.53-.151-.791-.232-.359-.11-.714-.228-1.068-.355-.139-.045-.273-.094-.412-.147s-.273-.1-.412-.151-.253-.094-.375-.143c-.2-.077-.4-.159-.6-.24a27.358 27.358 0 0 1-1.219-.53c-.228-.11-.457-.216-.681-.326q-1.327-.642-2.614-1.427a17.1 17.1 0 0 1-.636-.4 24.162 24.162 0 0 1-.779-.506c-.143-.1-.281-.192-.42-.289a34.2 34.2 0 0 1-1.145-.835c-.453-.342-.9-.7-1.333-1.068a25.927 25.927 0 0 1-.62-.538c-.086-.073-.171-.151-.257-.228s-.2-.175-.289-.269l-.008-.008a9.284 9.284 0 0 1-.424-.4c-.216-.2-.428-.412-.632-.624s-.416-.424-.616-.636-.4-.428-.591-.648-.387-.436-.575-.66-.363-.432-.534-.648q-.624-.771-1.19-1.57c-.175-.245-.342-.489-.506-.738s-.343-.51-.5-.767-.326-.518-.481-.783a.087.087 0 0 0-.016-.024c-.306-.518-.6-1.04-.873-1.57s-.546-1.082-.8-1.631c-.126-.273-.249-.55-.363-.828a32.419 32.419 0 0 1-.66-1.684c-.1-.273-.2-.546-.289-.824a.206.206 0 0 0-.016-.053 27.831 27.831 0 0 1-.51-1.7c0-.008 0-.016-.008-.024a20.235 20.235 0 0 1-.216-.848c-.065-.249-.122-.5-.175-.75a28.915 28.915 0 0 1-.257-1.288 12.003 12.003 0 0 1-.065-.371l-.061-.375q-.061-.373-.11-.746c-.041-.294-.073-.587-.106-.885a60.432 60.432 0 0 1-.1-1.068c-.02-.241-.033-.485-.045-.73-.012-.224-.024-.448-.029-.673a.056.056 0 0 1 0-.037v-.008a.006.006 0 0 1 0-.008c0-.09-.008-.179-.008-.269q-.012-.4-.012-.8c0-.241 0-.477.008-.718q.012-.5.037-1c0-.073.008-.143.012-.216l.012-.216q.012-.232.037-.465a.608.608 0 0 1 0-.086 31.56 31.56 0 0 1 .163-1.582c.025-.175.045-.351.073-.526.016-.122.037-.249.057-.375s.037-.253.061-.379c.028-.167.057-.338.09-.51.016-.1.037-.2.057-.306q.116-.612.257-1.223a35.72 35.72 0 0 1 .677-2.462c.061-.208.126-.412.2-.616.134-.412.277-.819.436-1.223a38.548 38.548 0 0 1 .746-1.8c.09-.2.179-.4.277-.6.183-.4.375-.791.583-1.178s.416-.783.636-1.166.448-.766.689-1.146c.11-.188.232-.379.359-.563.245-.375.5-.75.763-1.117a31.653 31.653 0 0 1 1.69-2.183zm-7.824 19.044c-.012.155-.024.31-.033.465q.012-.232.037-.465a.608.608 0 0 1 0-.086c-.002.033-.002.061-.007.09zm.506-3.763c-.016.1-.037.2-.053.306.016-.1.037-.2.057-.306zm10.156 31.047h.008z" fill="#3f3d56"/><path data-name="Path 7120" d="M211.969 96.987a33.618 33.618 0 0 1-5.7-45.191q-.964.971-1.864 2.034a33.616 33.616 0 1 0 51.384 43.358q.9-1.064 1.691-2.18a33.618 33.618 0 0 1-45.511 1.979z" opacity=".3" style="isolation:isolate"/></g></g></svg>