<svg xmlns="http://www.w3.org/2000/svg" width="220.258" height="236.998" viewBox="0 0 220.258 236.998"><g data-name="Group 815" transform="translate(14453.943 589.998)"><path data-name="Path 7153" d="M-14314.227-455.535l-95.21 24.518a12.59 12.59 0 0 1-15.314-9.042l-28.795-111.815a12.59 12.59 0 0 1 9.042-15.314l88.577-22.81 22.672 10.149 28.069 109a12.59 12.59 0 0 1-9.041 15.314z" fill="#f2f2f2"/><path data-name="Path 7154" d="M-14443.601-563.682a8.965 8.965 0 0 0-6.439 10.905l28.794 111.817a8.965 8.965 0 0 0 10.905 6.439l95.215-24.521a8.965 8.965 0 0 0 6.439-10.905l-27.639-107.31-19.924-8.92z" fill="#fff"/><path data-name="Path 7155" d="M-14333.492-579.272l-14.735 3.794a4.188 4.188 0 0 1-5.1-3.011l-2.8-10.883a.262.262 0 0 1 .36-.3l22.319 9.912a.262.262 0 0 1-.041.493z" fill="#f2f2f2"/><path data-name="Path 7156" d="M-14341.249-483.783l-43.348 11.163a2.094 2.094 0 1 1-1.044-4.056l43.348-11.163a2.094 2.094 0 0 1 1.045 4.056z" fill="#ccc"/><path data-name="Path 7157" d="M-14331.12-479.093l-51.713 13.317a2.094 2.094 0 0 1-1.044-4.056l51.713-13.317a2.094 2.094 0 0 1 1.044 4.056z" fill="#ccc"/><circle data-name="Ellipse 44" cx="7.402" cy="7.402" r="7.402" transform="translate(-14409.69 -473.979)" fill="#e6e6e6"/><path data-name="Path 7158" d="M-14345.858-503.153l-57.57 14.819a6.486 6.486 0 0 1-7.889-4.659l-12.065-46.868a6.485 6.485 0 0 1 4.659-7.889l57.57-14.82a6.486 6.486 0 0 1 7.889 4.659l12.065 46.868a6.486 6.486 0 0 1-4.659 7.89z" fill="#fff"/><path data-name="Path 7159" d="M-14345.858-503.153l-57.57 14.819a6.486 6.486 0 0 1-7.889-4.659l-12.065-46.868a6.485 6.485 0 0 1 4.659-7.889l57.57-14.82a6.486 6.486 0 0 1 7.889 4.659l12.065 46.868a6.486 6.486 0 0 1-4.659 7.89zm-72.675-43.858a5.723 5.723 0 0 0-4.111 6.961l12.065 46.868a5.723 5.723 0 0 0 6.961 4.111l57.57-14.82a5.723 5.723 0 0 0 4.111-6.961l-12.065-46.868a5.723 5.723 0 0 0-6.961-4.111z" fill="#e6e6e6"/><path data-name="Path 411" d="M-14364.073-546.81l-29.055 7.478a1.041 1.041 0 0 1-1.261-.655 1 1 0 0 1 .706-1.272l29.576-7.613c1.195.605.88 1.844.033 2.062z" fill="#f2f2f2"/><path data-name="Path 412" d="M-14362.761-541.709l-29.055 7.479a1.041 1.041 0 0 1-1.261-.655 1 1 0 0 1 .706-1.273l29.576-7.613c1.195.605.88 1.844.033 2.062z" fill="#f2f2f2"/><path data-name="Path 413" d="M-14397.35-529.715l-8.867 2.283a1.129 1.129 0 0 1-1.373-.811l-2.694-10.464a1.129 1.129 0 0 1 .811-1.373l8.867-2.283a1.129 1.129 0 0 1 1.373.811l2.694 10.464a1.129 1.129 0 0 1-.811 1.373z" fill="#e6e6e6"/><path data-name="Path 414" d="M-14360.16-531.256l-44.343 11.415a1.041 1.041 0 0 1-1.261-.655 1 1 0 0 1 .706-1.273l44.865-11.549c1.195.605.881 1.843.033 2.062z" fill="#f2f2f2"/><path data-name="Path 415" d="M-14358.848-526.158l-44.343 11.415a1.041 1.041 0 0 1-1.261-.655 1 1 0 0 1 .706-1.272l44.865-11.549c1.195.605.88 1.844.033 2.062z" fill="#f2f2f2"/><path data-name="Path 416" d="M-14357.536-521.064l-44.344 11.416a1.041 1.041 0 0 1-1.261-.655 1 1 0 0 1 .706-1.272l44.865-11.549c1.195.605.88 1.844.033 2.062z" fill="#f2f2f2"/><path data-name="Path 417" d="M-14356.224-515.966l-44.343 11.414a1.041 1.041 0 0 1-1.261-.655 1 1 0 0 1 .706-1.273l44.865-11.547c1.194.6.88 1.843.033 2.061z" fill="#f2f2f2"/><path data-name="Path 418" d="M-14354.911-510.871l-44.343 11.415a1.041 1.041 0 0 1-1.261-.655 1 1 0 0 1 .706-1.272l44.863-11.55c1.2.605.882 1.844.035 2.062z" fill="#f2f2f2"/><path data-name="Path 395" d="M-14401.743-463.983a.768.768 0 0 1-.486-.034h-.01l-2.016-.855a.773.773 0 1 1 .6-1.423l1.307.556 1.712-4.028a.773.773 0 0 1 1.013-.409l-.01.026.011-.026a.774.774 0 0 1 .409 1.014l-2.014 4.736a.773.773 0 0 1-.52.445z" fill="#fff"/><path data-name="Path 7160" d="M-14277.709-412.922h-98.316a12.59 12.59 0 0 1-12.575-12.575v-115.465a12.59 12.59 0 0 1 12.575-12.575h91.467l19.424 15.485v112.554a12.59 12.59 0 0 1-12.575 12.576z" fill="#e6e6e6"/><path data-name="Path 7161" d="M-14376.025-549.917a8.965 8.965 0 0 0-8.955 8.955v115.464a8.965 8.965 0 0 0 8.955 8.955h98.316a8.965 8.965 0 0 0 8.955-8.955v-110.813l-17.07-13.606z" fill="#fff"/><path data-name="Path 7162" d="M-14296.83-516.344h-44.763a2.094 2.094 0 0 1 0-4.188h44.762a2.094 2.094 0 0 1 0 4.188z" fill="#1784cf"/><path data-name="Path 7163" d="M-14288.192-509.276h-53.4a2.094 2.094 0 1 1 0-4.188h53.4a2.094 2.094 0 0 1 0 4.188z" fill="#1784cf"/><path data-name="Path 7164" d="M-14296.831-488.859h-44.761a2.094 2.094 0 0 0 0 4.188h44.761a2.094 2.094 0 0 0 0-4.188z" fill="#ccc"/><path data-name="Path 7165" d="M-14288.192-481.79h-53.4a2.094 2.094 0 0 0 0 4.188h53.4a2.094 2.094 0 1 0 0-4.188z" fill="#ccc"/><path data-name="Path 7166" d="M-14296.83-452.996h-44.763a2.094 2.094 0 0 1 0-4.188h44.762a2.094 2.094 0 0 1 0 4.188z" fill="#ccc"/><path data-name="Path 7167" d="M-14288.192-445.927h-53.4a2.094 2.094 0 1 1 0-4.188h53.4a2.094 2.094 0 0 1 0 4.188z" fill="#ccc"/><circle data-name="Ellipse 44" cx="7.402" cy="7.402" r="7.402" transform="translate(-14367.635 -522.305)" fill="#1784cf"/><path data-name="Path 395" d="M-14360.967-512.081a.768.768 0 0 1-.462-.153l-.008-.006-1.74-1.331a.773.773 0 0 1 .941-1.227l1.127.864 2.662-3.473a.773.773 0 0 1 1.083-.143l-.016.023.017-.023a.774.774 0 0 1 .143 1.084l-3.132 4.084a.773.773 0 0 1-.615.3z" fill="#fff"/><path data-name="Path 7168" d="M-14352.07-483.231a7.4 7.4 0 0 1-7.4 7.4 1.6 1.6 0 0 1-.191-.008 7.4 7.4 0 1 1 7.591-7.4z" fill="#ccc"/><circle data-name="Ellipse 44" cx="7.402" cy="7.402" r="7.402" transform="translate(-14367.635 -458.958)" fill="#ccc"/><path data-name="Path 7169" d="M-14265.512-537.557h-15.216a4.188 4.188 0 0 1-4.188-4.188v-11.239a.262.262 0 0 1 .424-.205l19.142 15.161a.262.262 0 0 1-.163.467z" fill="#ccc"/><path data-name="Path 7170" d="M-14352.071-483.231a7.4 7.4 0 0 1-7.4 7.4 1.6 1.6 0 0 1-.19-.008 16.025 16.025 0 0 1 1.437-14.694 7.405 7.405 0 0 1 6.154 7.3z" fill="#1784cf"/><path data-name="Path 7171" d="M-14343.687-486.763a2.1 2.1 0 0 1 2.1-2.1h11.154a15.843 15.843 0 0 1 1.376 4.188h-12.534a2.1 2.1 0 0 1-2.1-2.092z" fill="#1784cf"/><path data-name="Path 7172" d="M-14328.803-481.79a15.978 15.978 0 0 1-.556 4.188h-12.233a2.094 2.094 0 0 1 0-4.188z" fill="#1784cf"/><path data-name="Path 7173" d="M-14301.209-455.962a2.286 2.286 0 0 1-3.143.761l-26.677-16.272a2.286 2.286 0 1 1 2.381-3.9l26.677 16.272a2.286 2.286 0 0 1 .762 3.139z" fill="#3f3d56"/><path data-name="Path 7174" d="M-14327.882-472.234a18.291 18.291 0 1 1-6.091-25.141 18.291 18.291 0 0 1 6.091 25.141zm-27.328-16.669a13.719 13.719 0 1 0 18.856-4.568 13.719 13.719 0 0 0-18.855 4.568z" fill="#3f3d56"/><circle data-name="Ellipse 61" cx="9.359" cy="9.359" r="9.359" transform="translate(-14278.636 -497.545)" fill="#ffb6b6"/><path data-name="Path 7175" d="M-14269.882-435.716a4.193 4.193 0 0 1 3.172-5.394 3.991 3.991 0 0 1 .556-.068l9.859-15.823-9.006-8.561a3.594 3.594 0 1 1 5-5.165l12.43 12.261.025.031a3.256 3.256 0 0 1-.227 3.881l-13.814 16.338a3.932 3.932 0 0 1 .1.4 4.193 4.193 0 0 1-3.763 5q-.179.016-.355.016a4.206 4.206 0 0 1-3.984-2.912z" fill="#ffb6b6"/><path data-name="Path 7176" d="M-14284.693-357.926h-4.672l-2.222-18.02h6.9z" fill="#ffb6b6"/><path data-name="Path 7177" d="M-14283.501-353.396h-15.064v-.189a5.863 5.863 0 0 1 5.863-5.863h9.2z" fill="#2f2e41"/><path data-name="Path 7178" d="M-14238.256-364.387l-4.014 2.39-11.129-14.346 5.925-3.528z" fill="#ffb6b6"/><path data-name="Path 7179" d="M-14234.916-361.103l-12.943 7.707-.1-.164a5.863 5.863 0 0 1 2.038-8.038l7.905-4.707z" fill="#2f2e41"/><path data-name="Path 7180" d="M-14292.176-365.857c-3.13-36.852-4.991-71.087 6.449-85.052l.088-.108 19.254 7.7.032.069c.065.141 6.468 14.227 4.975 23.7l4.749 21.846 15.485 25.928a1.715 1.715 0 0 1-.781 2.449l-6.729 2.961a1.723 1.723 0 0 1-2.152-.673l-16.846-27.47-9.514-21.068a.572.572 0 0 0-1.089.175l-5.274 49.576a1.712 1.712 0 0 1-1.705 1.534h-5.231a1.726 1.726 0 0 1-1.711-1.567z" fill="#2f2e41"/><path data-name="Path 7181" d="M-14285.661-450.622l-.092-.044-.014-.1c-.719-5.034.132-10.627 2.53-16.624a13.2 13.2 0 0 1 15.32-7.9 13.182 13.182 0 0 1 8.407 6.464 13.04 13.04 0 0 1 .9 10.451c-3.023 8.841-6.945 17.113-6.985 17.2l-.082.173z" fill="#1784cf"/><path data-name="Path 7182" d="M-14306.668-463.16a4.193 4.193 0 0 1 6.162 1.082 3.979 3.979 0 0 1 .259.5l18.274 3.693 4.866-11.433a3.594 3.594 0 1 1 6.589 2.875l-7.13 15.94-.02.034a3.256 3.256 0 0 1-3.715 1.147l-20.141-7.218a3.922 3.922 0 0 1-.337.236 4.193 4.193 0 0 1-6-1.774q-.077-.162-.139-.327a4.206 4.206 0 0 1 1.332-4.755z" fill="#ffb6b6"/><path data-name="Path 7183" d="M-14235.465-478.163a7.631 7.631 0 0 0-3.951-3.651c-2.243-.763-4.671.049-6.976.591a12.926 12.926 0 0 1-5.423.321 6.09 6.09 0 0 1-4.332-3.027c-1.2-2.4-.189-5.267-.262-7.95a9.654 9.654 0 0 0-12.165-9.074c-2.208-.637-4.207-.7-5.572 1a6.478 6.478 0 0 0-6.478 6.478h6.194a6.154 6.154 0 0 0 .935 4.547c1.094 1.607 2.995 2.769 3.361 4.677.355 1.85-.9 3.6-2.221 4.949s-2.849 2.677-3.26 4.514a5.6 5.6 0 0 0 .8 4.026 13.112 13.112 0 0 0 2.815 3.1 41.309 41.309 0 0 0 17.163 8.78c4.46 1.074 9.339 1.352 13.479-.623a13.385 13.385 0 0 0 5.893-18.66z" fill="#2f2e41"/><path data-name="Path 7184" d="M-14234.067-353h-72.4a.381.381 0 1 1 0-.762h72.4a.381.381 0 1 1 0 .762z" fill="#ccc"/></g></svg>