<svg xmlns="http://www.w3.org/2000/svg" width="248.24" height="200" viewBox="0 0 248.24 200"><g data-name="Group 817"><g data-name="Group 816"><ellipse data-name="Ellipse 62" cx="122.646" cy="9.582" rx="122.646" ry="9.582" transform="translate(2.948 180.837)" fill="#3f3d56"/><path data-name="Path 7185" d="M229.775 172.619l1.149 8.43-8.047.766 1.149-10.346z" fill="#a0616a"/><path data-name="Path 7186" d="M191.841 56.9s.766 10.346.766 10.729-5.364 26.822-5.364 26.822-7.663 14.56 0 14.177 5.364-13.794 5.364-13.794l8.047-22.224-3.449-15.71z" fill="#a0616a"/><path data-name="Path 7187" d="M204.486 172.619l-1.15 8.43 8.047.766-1.15-10.347z" fill="#a0616a"/><path data-name="Path 7188" d="M195.673 93.687l-1.916 2.682s-1.15 11.5 0 15.327 3.449 21.458 3.449 22.607.383 1.916 0 2.3-1.533.383-.766 1.149.766 3.065.766 3.065v1.916l4.981 28.355s-3.065 3.449-.766 3.449 10.729 0 10.346-3.832l-.766-.383s-1.15-25.289-.766-26.439a9.78 9.78 0 0 0 0-3.449s-.766-1.15 0-1.533.766-3.449.766-3.449l3.449-23.373s3.065 15.71 4.981 17.243 1.531 5.365 1.531 5.365l1.533 33.719s-1.533 3.832 0 4.6 8.047 3.449 8.43-.383 2.3-37.167 2.3-38.7-.383-2.3 0-3.449-.383-1.15 0-1.15-.766-1.15-.766-1.916v-18.779a28.3 28.3 0 0 1 .766-4.6c.383-.766-.383-1.533 0-2.682s-.766-4.981-.766-4.981l-17.243-4.6z" fill="#2f2e41"/><path data-name="Path 7189" d="M209.084 179.516s1.916-1.916-.766-1.916a12.471 12.471 0 0 0-4.981 1.15l-1.916 6.9s-7.855 6.322.958 5.556 7.472-.192 7.472-.192 2.682-.766 3.065-1.533-.766-11.878-.766-11.878-1.15 3.062-3.066 1.913z" fill="#2f2e41"/><path data-name="Path 7190" d="M225.56 179.516s-1.916-1.916.766-1.916a12.471 12.471 0 0 1 4.981 1.15l1.916 6.9s7.855 6.322-.958 5.556-8.621-.192-8.621-.192-2.682-.766-3.065-1.533 1.916-11.878 1.916-11.878 1.149 3.062 3.065 1.913z" fill="#2f2e41"/><circle data-name="Ellipse 63" cx="9.962" cy="9.962" r="9.962" transform="translate(190.691 6.705)" fill="#a0616a"/><path data-name="Path 7191" d="M197.208 23.948s1.533 7.663 1.533 8.813 6.514 4.6 6.514 4.6l7.28-9.2s-4.6-6.514-4.6-8.047z" fill="#a0616a"/><path data-name="Path 7192" d="M202.952 33.911s-3.34-.889-4.352-2.36c0 0-10.592 10.407-10.592 12.323l8.43 14.944s0 5.364.766 5.748 0 0 0 1.533-2.3 11.5-1.533 13.028 1.533.383.766 2.682-2.682 14.56-2.682 14.56 6.9-2.3 16.859 1.533 21.841-1.533 21.841-1.533-3.065-6.9-2.3-9.2-1.916-6.514-1.916-6.514l-1.916-35.252s2.682-15.71.766-16.476l-3.832-1.533-12.271-1.508s-3.052 7.642-8.034 8.025z" fill="#d0cde1"/><path data-name="Path 7193" d="M191.841 41.191l-3.832 2.682s-1.916 5.748 0 8.43a19.651 19.651 0 0 1 2.682 6.514l7.663-.766z" fill="#d0cde1"/><path data-name="Path 7194" d="M193.047 6.139l-1.728-.692s3.613-3.978 8.641-3.632L198.546.258s3.456-1.384 6.6 2.248a30.667 30.667 0 0 1 4.752 6.682h1.851l-.772 1.7 2.7 1.7-2.775-.306a9.411 9.411 0 0 1-.262 4.4l.074 1.344s-3.216-4.976-3.216-5.668v1.73s-1.728-1.557-1.728-2.594l-.943 1.211-.471-1.9-5.813 1.9.943-1.557-3.613.519 1.414-1.9s-4.085 2.248-4.242 4.151-2.2 4.324-2.2 4.324l-.943-1.73s-1.411-7.779 3.145-10.373z" fill="#2f2e41"/><path data-name="Rectangle 1718" fill="#f2f2f2" d="M43.094 83.385h152.264v106.961H43.094z"/><path data-name="Rectangle 1719" fill="#3f3d56" d="M55.911 124.195h38.232v66.74H55.911z"/><path data-name="Rectangle 1720" fill="#f2f2f2" d="M62.983 128.199h10.299v9.6H62.983z"/><path data-name="Rectangle 1721" fill="#f2f2f2" d="M76.773 128.199h10.299v9.6H76.773z"/><path data-name="Rectangle 1722" fill="#f2f2f2" d="M62.983 141.291h10.299v9.95H62.983z"/><path data-name="Rectangle 1723" fill="#f2f2f2" d="M76.773 141.291h10.299v9.95H76.773z"/><circle data-name="Ellipse 64" cx="2.431" cy="2.431" r="2.431" transform="translate(86.85 159.628)" fill="#1784cf"/><path data-name="Rectangle 1724" fill="#3f3d56" d="M106.961 117.86h75.58v63.425h-75.58z"/><path data-name="Path 7195" d="M211.269 103.521H27.183l12.274-25.662 2.747-5.746 3.594-7.514 2.747-5.746 3.184-6.656h145.037l1.881 6.656 1.624 5.746 2.124 7.514 1.624 5.746z" fill="#3f3d56"/><path data-name="Rectangle 1725" fill="#1784cf" d="M109.613 144.158h2.652v16.354h-2.652z"/><path data-name="Rectangle 1726" fill="#f2f2f2" d="M109.613 146.589h2.652v1.989h-2.652z"/><path data-name="Rectangle 1727" fill="#f2f2f2" d="M109.613 156.092h2.652v1.989h-2.652z"/><path data-name="Rectangle 1728" fill="#1784cf" d="M113.591 144.158H120v16.354h-6.409z"/><path data-name="Rectangle 1729" fill="#f2f2f2" d="M113.591 146.589H120v1.989h-6.409z"/><path data-name="Rectangle 1730" fill="#f2f2f2" d="M113.591 156.092H120v1.989h-6.409z"/><path data-name="Rectangle 1731" fill="#1784cf" d="M121.546 144.158h2.652v16.354h-2.652z"/><path data-name="Rectangle 1732" fill="#f2f2f2" d="M121.546 146.589h2.652v1.989h-2.652z"/><path data-name="Rectangle 1733" fill="#f2f2f2" d="M121.546 156.092h2.652v1.989h-2.652z"/><path data-name="Rectangle 1734" fill="#1784cf" d="M125.524 144.158h2.652v16.354h-2.652z"/><path data-name="Rectangle 1735" fill="#f2f2f2" d="M125.524 146.589h2.652v1.989h-2.652z"/><path data-name="Rectangle 1736" fill="#f2f2f2" d="M125.524 156.092h2.652v1.989h-2.652z"/><path data-name="Rectangle 1737" fill="#1784cf" d="M128.252 145.151l2.482-.935 5.768 15.302-2.482.936z"/><path data-name="Rectangle 1738" fill="#f2f2f2" d="M129.109 147.426l2.482-.935.701 1.86-2.481.936z"/><path data-name="Rectangle 1739" fill="#f2f2f2" d="M132.461 156.318l2.482-.935.701 1.86-2.481.936z"/><path data-name="Rectangle 1740" fill="#1784cf" d="M173.701 144.158h6.409v16.354h-6.409z"/><path data-name="Rectangle 1741" fill="#f2f2f2" d="M173.701 146.589h6.409v1.989h-6.409z"/><path data-name="Rectangle 1742" fill="#f2f2f2" d="M173.701 156.092h6.409v1.989h-6.409z"/><path data-name="Rectangle 1743" fill="#1784cf" d="M169.502 144.158h2.652v16.354h-2.652z"/><path data-name="Rectangle 1744" fill="#f2f2f2" d="M169.502 146.589h2.652v1.989h-2.652z"/><path data-name="Rectangle 1745" fill="#f2f2f2" d="M169.502 156.092h2.652v1.989h-2.652z"/><path data-name="Rectangle 1746" fill="#1784cf" d="M165.524 144.158h2.652v16.354h-2.652z"/><path data-name="Rectangle 1747" fill="#f2f2f2" d="M165.524 146.589h2.652v1.989h-2.652z"/><path data-name="Rectangle 1748" fill="#f2f2f2" d="M165.524 156.092h2.652v1.989h-2.652z"/><path data-name="Rectangle 1749" fill="#1784cf" d="M157.202 159.519l5.768-15.303 2.482.936-5.768 15.302z"/><path data-name="Rectangle 1750" fill="#f2f2f2" d="M161.411 148.352l.702-1.861 2.481.935-.701 1.861z"/><path data-name="Rectangle 1751" fill="#f2f2f2" d="M158.059 157.244l.702-1.861 2.481.935-.701 1.861z"/><path data-name="Rectangle 1752" fill="#f2f2f2" d="M106.961 160.512h75.58v1.547h-75.58z"/><path data-name="Rectangle 1753" fill="#1784cf" d="M139.889 144.158h13.923v16.354h-13.923z"/><path data-name="Rectangle 1754" fill="#f2f2f2" d="M143.314 147.694h7.072v3.094h-7.072z"/><path data-name="Rectangle 1755" fill="#f2f2f2" d="M144.088 117.86h1.326v14.144h-1.326z"/><circle data-name="Ellipse 65" cx="2.21" cy="2.21" r="2.21" transform="translate(142.541 129.794)" fill="#f2f2f2"/><path data-name="Path 7196" d="M200.271 64.601H45.797l2.747-5.746h150.1z" fill="#1784cf"/><path data-name="Path 7197" d="M204.019 77.86H39.456l2.747-5.746h160.191z" fill="#1784cf"/><path data-name="Path 7198" d="M220.194 44.639a29.308 29.308 0 0 0-1.755 11.351 5.982 5.982 0 0 0 .989 2.826l-27.184 12.906s-12.283 1.272-9.217 6.636 14.177-2.682 14.177-2.682 29.121-4.215 31.42-8.43 3.832-21.841 3.832-21.841z" fill="#a0616a"/><path data-name="Path 7199" d="M221.345 28.93h5.747s4.215.766 5.364 8.43 2.3 9.579 1.15 9.579-14.944-.383-14.944-.766 2.683-17.243 2.683-17.243z" fill="#d0cde1"/><circle data-name="Ellipse 66" cx="29.482" cy="29.482" r="29.482" transform="translate(0 84.43)" fill="#1784cf"/><path data-name="Path 7200" d="M28.267 128.874v-3.686a8.569 8.569 0 0 1-4.921-1.608l.772-2.448a7.866 7.866 0 0 0 4.631 1.571 3.547 3.547 0 0 0 3.827-3.581c0-2.01-1.254-3.252-3.634-4.348-3.281-1.461-5.307-3.142-5.307-6.321a5.745 5.745 0 0 1 4.857-5.883v-3.69h1.994v3.544a7.825 7.825 0 0 1 4.181 1.279l-.8 2.412a7.107 7.107 0 0 0-4.052-1.242 3.088 3.088 0 0 0-3.409 3.142c0 1.9 1.19 2.85 3.988 4.165 3.313 1.535 4.985 3.435 4.985 6.686a6.114 6.114 0 0 1-5.082 6.211v3.8z" fill="#f2f2f2"/></g></g></svg>