<svg data-name="Group 818" xmlns="http://www.w3.org/2000/svg" width="281.183" height="164.874" viewBox="0 0 281.183 164.874"><path data-name="Path 7201" d="M275.931 139.27H71.954a5.258 5.258 0 0 1-5.252-5.252V8.242a3.852 3.852 0 0 1 3.848-3.848h206.719a3.919 3.919 0 0 1 3.914 3.914v125.71a5.258 5.258 0 0 1-5.252 5.252z" fill="#f2f2f2"/><path data-name="Path 7202" d="M268.49 131.833H78.39a4.907 4.907 0 0 1-5.054-4.732V17.575a3.637 3.637 0 0 1 3.745-3.51h192.655a3.7 3.7 0 0 1 3.807 3.568v109.47a4.907 4.907 0 0 1-5.053 4.73z" fill="#fff"/><path data-name="Path 7203" d="M281.11 7.941H66.629V5.267A5.275 5.275 0 0 1 71.9-.001h203.939a5.275 5.275 0 0 1 5.271 5.268z" fill="#ccc"/><circle data-name="Ellipse 67" cx="1.363" cy="1.363" r="1.363" transform="translate(74.844 2.615)" fill="#fff"/><circle data-name="Ellipse 68" cx="1.363" cy="1.363" r="1.363" transform="translate(80.019 2.615)" fill="#fff"/><circle data-name="Ellipse 69" cx="1.363" cy="1.363" r="1.363" transform="translate(85.194 2.615)" fill="#fff"/><path data-name="Path 7204" d="M108.73 111.461H61.355a5.577 5.577 0 0 1-5.57-5.57V49.822a4.171 4.171 0 0 1 4.166-4.166h50.117a4.237 4.237 0 0 1 4.232 4.233v56a5.577 5.577 0 0 1-5.57 5.572z" fill="#fff"/><path data-name="Path 7205" d="M108.73 111.461H61.355a5.577 5.577 0 0 1-5.57-5.57V49.822a4.171 4.171 0 0 1 4.166-4.166h50.117a4.237 4.237 0 0 1 4.232 4.233v56a5.577 5.577 0 0 1-5.57 5.572zM59.951 46.292a3.533 3.533 0 0 0-3.529 3.529v56.07a4.939 4.939 0 0 0 4.934 4.934h47.375a4.939 4.939 0 0 0 4.934-4.934v-56a3.6 3.6 0 0 0-3.6-3.6z" fill="#dbdbdb"/><circle data-name="Ellipse 70" cx="9.779" cy="9.779" r="9.779" transform="translate(75.264 61.944)" fill="#1784cf"/><path data-name="Path 7206" d="M100.714 95.173H69.376v-.1a10.889 10.889 0 0 1 10.877-10.877h9.58a10.889 10.889 0 0 1 10.881 10.877z" fill="#1784cf"/><path data-name="Path 7207" d="M57.725 90.202a3.2 3.2 0 0 1-4.507-1.942l-11.363-.5 3.466-4.788 10.26 1.205a3.218 3.218 0 0 1 2.145 6.021z" fill="#ffb8b8"/><path data-name="Path 7208" d="M26.176 85.666l-6.249-12.035a9.968 9.968 0 0 1 .816-10.516c.223-.3.459-.586.7-.859a9.676 9.676 0 0 1 7.982-3.212 10 10 0 0 1 7.675 4.482l3 4.536c.307.274 4.438 4.086 2.9 9.046l-.264 4.756a1.44 1.44 0 0 1-1.106 1.316l-13.859 3.223a1.431 1.431 0 0 1-1.6-.735z" fill="#1784cf"/><path data-name="Path 7209" d="M21.793 108.505a3.2 3.2 0 0 1 .5-4.882l-2.938-10.988 5.607 1.869 1.93 10.148a3.218 3.218 0 0 1-5.1 3.854z" fill="#ffb8b8"/><path data-name="Path 7210" d="M20.416 103.307a1.42 1.42 0 0 1-.783-1.055l-1.934-18.767a16.022 16.022 0 0 1-.114-4.612l2.319-14.043a3.2 3.2 0 0 1 3.416-2.821 3.211 3.211 0 0 1 2.96 3.578l-1.895 16.107 2.168 19a1.425 1.425 0 0 1-.748 1.425l-4.1 1.171a1.417 1.417 0 0 1-1.29.015z" fill="#1784cf"/><path data-name="Path 7211" d="M51.485 160.536l3.834-.727-.98-15.134-5.659 1.072z" fill="#ffb8b8"/><path data-name="Path 7212" d="M50.269 159.47l7.55-1.432a4.9 4.9 0 0 1 5.724 3.9l.03.156-12.362 2.344z" fill="#2f2e41"/><path data-name="Path 7213" d="M17.558 160.658h3.9l1.856-15.052h-5.757z" fill="#ffb8b8"/><path data-name="Path 7214" d="M16.562 159.381h7.685a4.9 4.9 0 0 1 4.9 4.9v.159H16.562z" fill="#2f2e41"/><circle data-name="Ellipse 71" cx="7.818" cy="7.818" r="7.818" transform="translate(21.158 40.032)" fill="#ffb8b8"/><path data-name="Path 7215" d="M16.915 154.606a1.44 1.44 0 0 1-.38-1.084l5.321-48.3c-.046-.452-.768-8.654 5.1-19.148l.032-.058 15.714-4.357 1.738 7.329 11.644 63.727a1.428 1.428 0 0 1-1.211 1.573l-4.053.608a1.433 1.433 0 0 1-1.587-1.014l-13.727-42.976a.478.478 0 0 0-.916 0l-11.258 43.132a1.44 1.44 0 0 1-1.376 1.033h-3.993a1.437 1.437 0 0 1-1.048-.456z" fill="#2f2e41"/><path data-name="Path 7216" d="M50.126 89.332l-16.931-2.9a5.541 5.541 0 0 1-4.508-4.336l-3.535-16.7a4.555 4.555 0 0 1 4.269-5.494 4.578 4.578 0 0 1 4.71 4.012l1.774 14.883 14.936 3.881a1.432 1.432 0 0 1 .966 1.358l-.006 3.889a1.431 1.431 0 0 1-1.674 1.408z" fill="#1784cf"/><path data-name="Path 7217" d="M35.625 46.035a3.539 3.539 0 0 0 2.787-2.312 3.7 3.7 0 0 0-.812-3.11 6.282 6.282 0 0 0-7.526-1.775 1.5 1.5 0 0 0-.94-1.523 4.377 4.377 0 0 0-1.9-.255c-2.034.028-4.2.1-5.881 1.241a7.042 7.042 0 0 0-2.634 3.974 20.949 20.949 0 0 0-.583 4.819 56.63 56.63 0 0 0 .991 8.818s3.935 1.082 5.659 1.583c1.853.539 4.978 1.077 6.831 1.616.474.138 1.109.215 1.347-.217.19-.345-.03-.766-.251-1.092a34.9 34.9 0 0 1-2.839-4.358 6.393 6.393 0 0 1-.457-5.039c.646-1.611 4.964-2.113 6.208-2.37z" fill="#2f2e41"/><path data-name="Path 7218" d="M158.373 101.044h101.8a5.093 5.093 0 0 0 5.093-5.093V49.943a5.093 5.093 0 0 0-5.093-5.093h-101.8a5.093 5.093 0 0 0-5.093 5.093v46.009a5.093 5.093 0 0 0 5.093 5.092z" fill="#f2f2f2"/><path data-name="Path 7219" d="M249.065 75.494h-81.168a2.546 2.546 0 1 1 0-5.093h81.168a2.546 2.546 0 1 1 0 5.093z" fill="#fff"/><path data-name="Path 7220" d="M249.065 86.317h-81.168a2.546 2.546 0 1 1 0-5.093h81.168a2.546 2.546 0 1 1 0 5.093z" fill="#fff"/><path data-name="Path 7221" d="M234.739 64.672h-66.842a2.546 2.546 0 1 1 0-5.093h66.842a2.546 2.546 0 1 1 0 5.093z" fill="#fff"/><path data-name="Path 7222" d="M76.392 164.874H.319a.319.319 0 0 1 0-.637h76.073a.319.319 0 0 1 0 .637z" fill="#ccc"/></svg>