<svg data-name="Group 212" xmlns="http://www.w3.org/2000/svg" width="218.686" height="167.068" viewBox="0 0 218.686 167.068"><ellipse data-name="Ellipse 48" cx="83.534" cy="83.534" rx="83.534" ry="83.534" transform="translate(28.649)" fill="#e0e0e0"/><g data-name="Group 600"><path data-name="Path 6980" d="M210.64 140.651c1.12 1.993 2.236 3.99 3.363 5.978a7.568 7.568 0 0 1 .971 3.139c-.344 2.264-2.021 2.549-3.855 2.6-2.692-2.814-4.9-6.069-8.01-8.525-1.375-1.087-2.7-2.254-4.114-3.3-1.173-1.145-2.868-1.78-3.455-3.505.562-3.127 4.768-6.065 8.2-5.731a9.275 9.275 0 0 1 2.84 3.187c1.3 1.915 2.562 3.848 3.84 5.775a.592.592 0 0 0 .22.382z" fill="#f29972"/><path data-name="Path 6981" d="M191.708 64.774a23.41 23.41 0 0 0 1.313 9.466q.788 2.528 1.664 5.027a10 10 0 0 1 .432 3.087 4.371 4.371 0 0 1-2.947 4.5c-.518.214-1.046.408-1.57.612-3.5 1.857-7.146 1.074-10.774.583a6.684 6.684 0 0 1-2.242-.8 6.064 6.064 0 0 1-2.538-2.711c-1.56-3.966-1.566-8.181-1.944-12.335-.081-.88.012-1.771-.059-2.656-.1-1.177-.627-1.331-1.6-.755a8.71 8.71 0 0 0-4.285 4.981c-.976 3.129-1.65 6.435-4.035 8.945a10.214 10.214 0 0 1-3.618 2.583 1.8 1.8 0 0 1-2.022-.6c-.807-2.277-.049-4.433.525-6.605.514-1.939 1.51-3.713 2.067-5.9-2.391.37-3.742 2.666-6.038 2.76a2.022 2.022 0 0 1-1.356-.891 6.266 6.266 0 0 0-3.857-2.763 1.521 1.521 0 0 1-.116-1.037c.218-.69.784-1.194.992-1.895.689-2.315-.074-3.632-2.4-4.223-1.287-.326-2.721-.316-3.683-1.475.157-1.3 1.3-1.335 2.164-1.531 5.011-1.144 8.457-4.477 11.627-8.2a7.425 7.425 0 0 0 1.642-5.178 50.99 50.99 0 0 1 1.239-11.008c.913-4.595 3.744-7.934 7.086-10.942.544-.489 1.151-.92 1.955-.531a3.056 3.056 0 0 1 .8 2.887 21.8 21.8 0 0 0-.135 3.612c.1 2.984 1.281 3.682 4.038 2.393a13.356 13.356 0 0 0 5.245-4.505c1.077-1.512 2.4-2.62 4.44-2.319 6.688 2.024 9.956 6.439 10.064 13.3.082 5.176-.757 10.268-1.2 15.394-.168 1.93-.238 3.852-.278 5.783a4.679 4.679 0 0 1-.596 2.947z" fill="#fefefe"/><path data-name="Path 6982" d="M179.577 87.385a31.029 31.029 0 0 0 11.022.083c-.713 1.121.044 2.206.215 3.25a15.224 15.224 0 0 1 .315 3.342c-.26 4.436.312 8.841.564 13.25a20.715 20.715 0 0 0 3.842 10.284c1.61 2.4 3.355 4.709 5.081 7.029 1.5 2.02 2.848 4.1 3.126 6.684a15.308 15.308 0 0 0-6.343 3.3 3.2 3.2 0 0 0-1.525 2.588c-1.909 1.408-3.291 1.344-5.288-.477a56.2 56.2 0 0 1-8.514-10.472c-3.67-5.464-5.962-11.578-8.329-17.661-.569-1.463-.8-3.751-2.385-3.893-1.736-.154-2.106 2.162-2.761 3.552-3.146 6.663-5.657 13.524-5.928 21.009a11.366 11.366 0 0 1-.212 1.433c-.83 4.977-.828 4.979-5.907 5.336-2.638-.721-5.371-.909-8.051-1.408-1.36-.556-1.6-1.739-1.562-2.991.439-13.011 1.273-25.94 7.737-37.724 1.2-2.189 2.054-4.549 3.095-6.816a3.462 3.462 0 0 1 1.843-2.185l3.008-2.376a1.67 1.67 0 0 1 1.807-.07 24.968 24.968 0 0 0 10.083 1.59 1.473 1.473 0 0 1 1.086.426 7.338 7.338 0 0 0 2.037 2.269c-.044.067-.073.168-.135.2-4.556 2.186-5.444 4.02-4.322 9.132a39.7 39.7 0 0 0 4.469 11.192 118.05 118.05 0 0 1 6.872 14.127 25.679 25.679 0 0 0 2.808 5.064 5.529 5.529 0 0 0 1.484 1.575c.983.628 2.154 1.254 3.09.278 1.026-1.069.2-2.214-.677-2.918-4.138-3.339-5.617-7.874-6.232-12.922a22.792 22.792 0 0 0-3.894-9.557c-.745-1.149-1.542-2.265-2.224-3.458-2.392-4.183-1.851-8.182.705-12.065z" fill="#4ba3a7"/><path data-name="Path 6983" d="M105.427 153.618c-.74 2.62-1.536 5.225-2.2 7.862-.26 1.045-.691 1.553-1.791 1.422a12.574 12.574 0 0 0-1.449-.009q-48.574 0-97.146-.006a6.789 6.789 0 0 1-2.844-.266c.8-3.151 1.611-6.323 2.418-9.494.516-.772-.276-1.469-.132-2.221a40.727 40.727 0 0 1 1.148-5.184c7.358-29.319 14.368-58.724 21.751-88.038.728-2.891 1.278-5.824 2.146-8.683 1.206-6.166 2.94-12.2 4.428-18.3.706-2.893 1.29-5.813 2.069-8.687.716-2.634 1.32-3.135 4.062-3.161 6.921-.062 13.841-.032 20.761-.019 9.575.017 19.151-.073 28.725.044 1.011-.049 2.022-.029 3.033 0q23.813-.048 47.624-.007c3.6 0 3.961.441 3.021 4-4.474 16.9-9.04 33.78-13.557 50.671-2.769 10.353-5.574 20.7-8.309 31.057-.452 1.713-.907 3.425-1.449 5.111-.166.765-.455 1.493-.683 2.241a11.863 11.863 0 0 0-.466 1.83c-2.261 9-4.793 17.937-7.091 26.931-.979 3.538-1.988 7.066-2.911 10.619a3.406 3.406 0 0 1-1.158 2.287z" fill="#161330"/><path data-name="Path 6984" d="M143.658 156.033l1.455-.715a3.934 3.934 0 0 1 4 1.2.329.329 0 0 0 .241.09c.1 1.51.657 3.065-.431 4.461a31.384 31.384 0 0 1-9.183-1.223c-1.022-.266-2.217-.541-2.556-1.857 1.212-.627 2.6-.607 3.86-1.015.883-.285 1.913-.166 2.614-.941z" fill="#16656d"/><path data-name="Path 6985" d="M137.189 157.99c2.356 1.775 5.263 1.748 7.957 2.407 1.242.3 2.52.453 3.782.673-1.428.838-2.969.409-4.443.306a15.6 15.6 0 0 1-7.083-1.938c-.493-.3-1.589-.763-.213-1.448z" fill="#c69d0b"/><path data-name="Path 6986" d="M212.941 159.009a8.143 8.143 0 0 1-2.429 2.018l-1.012-.07-.036-.047a.671.671 0 0 1 0-.66c1.21-1.383 2.271-3 4.466-2.842a.441.441 0 0 1-.012.616l.01-.013a1.286 1.286 0 0 0-.5.508l.019-.02a1.449 1.449 0 0 0-.506.51z" fill="#c09e14"/><path data-name="Path 6987" d="M213.816 157.282a36.805 36.805 0 0 0-4.353 3.356 4.92 4.92 0 0 1-.4-.129 2.728 2.728 0 0 1 .365-2.493 9.253 9.253 0 0 0 1.756-6.007 4.636 4.636 0 0 0 3.8-2.239c1.645.07 2.649 1.156 3.629 2.282-.927 1.939-2.566 3.287-3.984 4.82a.7.7 0 0 1-.813.41z" fill="#17656d"/><path data-name="Path 6988" d="M214.151 156.958c1.393-1.72 2.578-3.628 4.457-4.906.4 1.692-.851 2.618-1.771 3.64a10.236 10.236 0 0 1-1.929 1.359.516.516 0 0 1-.757-.093z" fill="#c59e11"/><path data-name="Path 6989" d="M214.152 156.957l.756.093a2.091 2.091 0 0 1-.992.975l-.1-.742z" fill="#c1a121"/><path data-name="Path 6990" d="M213.429 158.519l.5-.508a.658.658 0 0 1-.5.508z" fill="#c1a121"/><path data-name="Path 6991" d="M212.941 159.01a.708.708 0 0 1 .506-.509.679.679 0 0 1-.506.509z" fill="#c1a121"/><path data-name="Path 6992" d="M179.577 87.386a1.323 1.323 0 0 1-.068 1.74c-2.4 3.067-1.9 6.288-.365 9.521a9.61 9.61 0 0 0 .99 1.655 31.406 31.406 0 0 1 6.132 15.515 11.665 11.665 0 0 0 3.887 7.55 27.535 27.535 0 0 1 2.206 2.241 2.784 2.784 0 0 1 .492 3.118c-.665.983-1.716.844-2.643.708a4.9 4.9 0 0 1-3.073-2.135c-2.132-2.7-3.287-5.9-4.612-9a99.007 99.007 0 0 0-4.967-9.938 44.572 44.572 0 0 1-5.029-12.238 15.129 15.129 0 0 1-.181-5.048c.33-2.938 1.889-4.134 5.287-4.339z" fill="#14646d"/><path data-name="Path 6993" d="M139.335 72.804c.354-.515-.11-.487-.377-.53-.626-.1-1.31-.068-1.511-.885.61-.882 1.7-.622 2.543-1.075-1.2.36-2.363.726-3.544.089-.619-.356-1.2-.764-.252-1.357a16.337 16.337 0 0 1 3.757-1.552c1.241-.4 2.578-.682 3.542-1.924-1.419-1.033-3.111.1-4.6-.871a6.786 6.786 0 0 1 4.99-2.1 33.2 33.2 0 0 0 4.187 1.047c2.038.336 2.241.616 2.359 2.631a6.3 6.3 0 0 0 .04.959 2.446 2.446 0 0 1-1.555 3.068c-.224.383-.266.735.172 1.006a3.255 3.255 0 0 0 1.188-.027c.842-.361 1.359-.223 1.611.7.316 1.15 1.283 1.818 2.014 2.657a13.038 13.038 0 0 0-3.639 2.672 7.06 7.06 0 0 1-2.41 1.553c-1.817.833-3.326.967-4.907-.778-1.414-1.559-3.132-3.014-5.492-3.132-.191-.009-.37-.256-.525-.371.44-1 1.273-.682 1.931-.821 1.445-.574 2.988.063 4.411-.347-.09-.036-.133.029-.2.034-1.254-.231-2.718.839-3.733-.646z" fill="#f29972"/><path data-name="Path 6994" d="M175.595 84.463c-4.133.807-8.026-.112-11.839-1.633a10.052 10.052 0 0 0-1.137-.313 14.668 14.668 0 0 0 2.938-5.72c.23-.85.671-1.656.815-2.515.641-3.827 3.486-5.508 6.554-7.041.924.9.749 1.987.749 3a78.115 78.115 0 0 0 1.059 11.232 21.863 21.863 0 0 0 .861 2.99z" fill="#b6b6b7"/><path data-name="Path 6995" d="M176.957 20.618a20.445 20.445 0 0 0 4.866 5.475 4.345 4.345 0 0 1 1.572 1.743 4.05 4.05 0 0 0-3.539 2.1 13.519 13.519 0 0 1-6.166 5.147c-2.775 1.222-4.327.229-4.349-2.825a26.055 26.055 0 0 1 .175-3.832 5.019 5.019 0 0 0-.395-3.027v-.288a10.565 10.565 0 0 0 5.833-3.458c.499-.565 1.05-1.246 2.003-1.035z" fill="#f29972"/><path data-name="Path 6996" d="M149.088 71.31c-.365.017-.817.109-.905-.375-.1-.523.406-.51.735-.63.056.338.112.672.17 1.005z" fill="#6e97bc"/><path data-name="Path 6997" d="M147.891 140.491l.26-5.586a.789.789 0 0 1 .467-.582l.015.03a15.475 15.475 0 0 1 8.1 1.423 11.731 11.731 0 0 1-.3 4.646c-1.066 5.461-4.307 9.936-6.7 14.8-.211.428-.408.865-.611 1.3a18.764 18.764 0 0 1-4-1.2c1.041-3.945 1.756-7.958 2.453-11.974.156-.946.211-1.906.316-2.857z" fill="#f29972"/><path data-name="Path 6998" d="M7.729 156.653c1.031-4.231 2.047-8.444 3.084-12.65Q24.968 86.544 39.127 29.082c.826-3.347.81-3.351 4.349-3.351q43.436 0 86.872.008a6.537 6.537 0 0 1 2.621.173c.3.767-.1 1.418-.279 2.1Q115.7 91.471 98.7 154.935c-.526 1.967-.536 1.981-2.561 1.981q-43.194.005-86.388 0a4.009 4.009 0 0 1-2.022-.263z" fill="#fefefe"/><path data-name="Path 6999" d="M117.095 113.03a1.316 1.316 0 0 1-.975.607 1.965 1.965 0 0 1 .452-1.627 1.308 1.308 0 0 0 .523 1.02z" fill="#a48629"/><path data-name="Path 7000" d="M209.059 160.509a1.21 1.21 0 0 1 .4.128.287.287 0 0 1 0 .274.43.43 0 0 1-.4-.402z" fill="#b6b6b7"/><path data-name="Path 7001" d="M176.957 20.623c-1.152 1.086-2.269 2.215-3.468 3.247a4.406 4.406 0 0 1-4.361 1.247c-.369-.153-.742-.286-1.1-.462-3.392-1.673-4.728-3.817-3.485-7.5a1.252 1.252 0 0 1 .662-.32c1.421.084 2.847.128 4.267.222 4.33.29 4.784-.064 5.179-4.3a12.449 12.449 0 0 0 .325-2.379c-.019-.973-.35-1.9-1.361-2-2.733-.256-5.6-1.119-7.987 1.141a.9.9 0 0 1-1.054-.122c-.34-2.206-.34-2.206-2.892-3.109 1-.806.771-1.638.283-2.624-.58-1.171-.273-1.842.89-1.862 3.636-.064 7.115-1.39 10.783-1.186a10.742 10.742 0 0 1 6.017 2.2 5.436 5.436 0 0 1 2.272 4.325 15.722 15.722 0 0 1-1.053 6.626q-.177.261-.337.536l.013-.006a.6.6 0 0 1-.624.063c-.666-.4-.681-1.447-1.578-1.633-1.282 2.316-1.224 2.558.714 3.1a1.108 1.108 0 0 1 .536.384c-.576 1.652-2.279 2.63-2.641 4.412z" fill="#161330"/><path data-name="Path 7002" d="M175.079 12.794c.843 2.519-.219 3.828-1.888 4.926a1.908 1.908 0 0 1-1.83.357 9.4 9.4 0 0 0-4.513-.486 2.791 2.791 0 0 1-1.825-.5c-.324-.251-.246-.574-.164-.9l.029-4 .325-.088a1.1 1.1 0 0 1 .594.268c.9 1.363 2.068 1.235 3.331.612a1.885 1.885 0 0 1 .661.041 3.5 3.5 0 0 1 .863.5c1.164.908 2.018.2 2.864-.552.49-.31.976-.663 1.553-.178z" fill="#ef9771"/><path data-name="Path 7003" d="M136.447 70.404a13.7 13.7 0 0 0 4.916-.739c-.948 1.449-2.625 1.14-3.916 1.724q-.499-.493-1-.985z" fill="#6d8db5"/><path data-name="Path 7004" d="M139.334 72.804a4.541 4.541 0 0 0 4.38.009c.213.158.513.242.522.583-1.749.772-3.585.245-5.378.372.035-.383-.068-.833.476-.964z" fill="#bc9393"/><path data-name="Path 7005" d="M164.575 9.4h.835c.8 1.08.223 1.984-.369 2.886l-.152-.093a4.165 4.165 0 0 1-.314-2.793z" fill="#272944"/><path data-name="Path 7006" d="M179.601 16.21l-.482-.05c-.275-.626.138-.854.61-1.046l.335.134c-.008.391-.052.765-.463.962z" fill="#2e3257"/><path data-name="Path 7007" d="M164.86 16.192l.164.9a4.442 4.442 0 0 1-.479.061.98.98 0 0 1 .315-.961z" fill="#4e4c67"/><path data-name="Path 7008" d="M180.084 14.244a1.915 1.915 0 0 1 .468.054c-.012.4-.06.772-.49.952l-.036-.034a.622.622 0 0 1 .058-.972z" fill="#262b48"/><path data-name="Path 7009" d="M180.539 14.302c.113-.179.226-.357.337-.536a.459.459 0 0 1-.337.536z" fill="#262b48"/><path data-name="Path 7010" d="M144.237 73.393l-.522-.582c.268-.062.558-.389.8-.109s.003.535-.278.691z" fill="#748db5"/><path data-name="Path 7011" d="M148.618 134.322l-.467.582a.593.593 0 0 1 .467-.582z" fill="#4ba3a7"/><path data-name="Path 7012" d="M64.324 109.875q-16.205 0-32.411-.007a13.872 13.872 0 0 1-2.645-.157 3.233 3.233 0 0 1-2.707-3.238 3.291 3.291 0 0 1 2.612-3.329 8 8 0 0 1 1.913-.18q33.5-.012 67-.008a6.329 6.329 0 0 1 2.148.247 3.376 3.376 0 0 1-.13 6.475 9.225 9.225 0 0 1-2.642.2z" fill="#0d1c3d"/><path data-name="Path 7013" d="M73.036 73.779h32.9a15.649 15.649 0 0 1 2.174.047 3.452 3.452 0 0 1 2.982 3.539 3.392 3.392 0 0 1-3.075 3.2 17.238 17.238 0 0 1-1.934.036H40.052a17.908 17.908 0 0 1-1.934-.034 3.376 3.376 0 0 1-3.1-3.172 3.441 3.441 0 0 1 2.949-3.563 15.168 15.168 0 0 1 2.174-.05q16.449-.005 32.895-.003z" fill="#0c1b3c"/><path data-name="Path 7014" d="M78.712 60.562h32.669c.725 0 1.456-.034 2.177.031a3.292 3.292 0 0 1 3.233 3.257 3.433 3.433 0 0 1-3 3.527 10.448 10.448 0 0 1-1.69.058H45.557a9.413 9.413 0 0 1-2.162-.145 3.457 3.457 0 0 1-2.671-3.562 3.414 3.414 0 0 1 3.147-3.123 21.31 21.31 0 0 1 2.175-.041q16.333-.003 32.666-.002z" fill="#0c1b3c"/><path data-name="Path 7015" d="M69.706 94.715h-32.65c-.725 0-1.455.033-2.175-.038a3.206 3.206 0 0 1-3.114-3.1 3.333 3.333 0 0 1 2.61-3.573 8.208 8.208 0 0 1 1.919-.134q33.494-.011 66.991 0a5.739 5.739 0 0 1 2.146.229 3.51 3.51 0 0 1 2.344 3.562 3.408 3.408 0 0 1-3.008 3 18.418 18.418 0 0 1-2.174.056q-16.444.001-32.889-.002z" fill="#0d1b3c"/><path data-name="Path 7016" d="M64.012 146.203c.947-5.089 1.911-10.205 2.84-15.327.185-1.019.76-1.259 1.7-1.223 2.091.075 4.184.087 6.277.1 6.117.051 12.233.087 18.351.145a6.572 6.572 0 0 1 2.571.233c-.482 2.632-.96 5.29-1.457 7.944-.459 2.449-.979 4.887-1.389 7.344-.158.96-.5 1.4-1.539 1.381-8.932-.141-17.865-.242-26.8-.364-.142.002-.286-.115-.554-.233z" fill="#0d1c3d"/><path data-name="Path 7017" d="M50.334 130.137a35.023 35.023 0 0 1-.966 5.854 510.97 510.97 0 0 1-1.68 9.02c-.346 1.759-.385 1.786-2.156 1.769-7.091-.066-14.183-.16-21.274-.234-1.759-.019-3.517 0-5.42 0a31.056 31.056 0 0 1 .939-5.875c.589-3.247 1.253-6.479 1.835-9.727.148-.824.391-1.3 1.351-1.285q13.531.191 27.063.334c.069-.001.14.065.308.144z" fill="#0d1c3d"/><path data-name="Path 7018" d="M86.09 44.654a7.654 7.654 0 0 1-.94.127c-2.944.052-4.388-.934-4.746-3.222-.4-2.533 1-4.446 3.754-5.138q.7-.132.467.539a3.324 3.324 0 0 0-2.043 2.451c-.622 2.546.175 3.913 2.872 4.756.479-.185.679-.013.636.487z" fill="#202b4a"/><path data-name="Path 7019" d="M46.542 43.838c.407-.034.865-.093.9-.583.132-1.909.266-3.82.274-5.73 0-.423-.5-.849-.862-1.415h3.743c-.012 1.332-1.156 2.545-.408 3.957a3.492 3.492 0 0 1-.027 1.07 5.218 5.218 0 0 0-.068 1.395c0 .629.771 1.657-.158 1.805-1.079.169-2.454.83-3.394-.499z" fill="#1f2847"/><path data-name="Path 7020" d="M95.856 44.257a.829.829 0 0 0 .938-.821 5.806 5.806 0 0 0-.235-3.562c.929-1.161 2.093-.126 3.063-.494a1.019 1.019 0 0 1 1.019-.079.5.5 0 0 1 .15.417c-.02.15-.048.225-.083.225l-.126-.063c-.232.327-.365.826-.947.542-1.707 1.155-1.163 2.647-.555 4.331-1.1-.289-2.248.539-3.167-.552z" fill="#313d59"/><path data-name="Path 7021" d="M67.204 39.965c-3.012.3-3.81.7-2.777 4.323a4.337 4.337 0 0 1-2.42-.066 6.955 6.955 0 0 0 .412-3.44c-.081-1.421.309-2.07 1.512-1.759 1.172.3 2.2-.229 3.291-.127a.773.773 0 0 1-.018 1.069z" fill="#2b3452"/><path data-name="Path 7022" d="M49.825 40.762l-.023-.888c-.034-1.4.811-1.979 2.041-2.207a.844.844 0 0 1 .616.373c-1.387 1.666-1.431 1.7-.094 3.264.8.935 1.242 2.308 2.738 2.49-1.392 1.1-3.551 1.026-4.235-.266-.453-.859-1.394-1.585-1.043-2.766z" fill="#1f2847"/><path data-name="Path 7023" d="M49.827 40.763c.484 1.12 1.8 1.772 1.782 3.174 0 .2.068.343.245.331 1.1-.075 2.3.574 3.251-.473.614-.3.33-1.155.9-1.484a1.26 1.26 0 0 1 .138 1.926 4.335 4.335 0 0 1-1.321.492c-2.626.047-5.254.044-7.88.013-.595-.007-1.218-.181-.4-.9 1.049.957 2.241.278 3.478.453a2.809 2.809 0 0 1-.193-3.532z" fill="#e4ebee"/><path data-name="Path 7024" d="M103.956 44.288a1.208 1.208 0 0 0-.232.059c-.885.423-1.86.942-2.523-.2-.591-1.015-.056-1.834.855-2.424a.646.646 0 0 1 .576 0 1.741 1.741 0 0 1 .34.471c.16.267.26.673.7.292a.892.892 0 0 0 .2-.441 3.281 3.281 0 0 1-.153-.479 1.585 1.585 0 0 1 .012-.509 1.687 1.687 0 0 1 .221-.459c.267-.3-.244-.356-.187-.592a1.081 1.081 0 0 1 .145-.549.816.816 0 0 1 .826-.145.193.193 0 0 1 .267.164.891.891 0 0 1 .333.4 1.931 1.931 0 0 1 .1 1.479 2.183 2.183 0 0 0-.038 1.918l.563.589c.128.087.168.169.12.248s-.091.114-.137.114l-.019.012c-.236.31-.683.2-.938.473l-.487-.048c-.177-.13-.359-.255-.544-.373z" fill="#2c3351"/><path data-name="Path 7025" d="M67.204 39.965l.019-1.07c.4-.474.677-1.067 1.263-1.363.522.383.149.9.272 1.324a.817.817 0 0 1 .027.984c.084 1.33-.9 2.83.644 3.926.34.242.006.411-.129.513a1.3 1.3 0 0 1-2.236-.952 32.806 32.806 0 0 1 .14-3.362z" fill="#1e2d4b"/><path data-name="Path 7026" d="M75.075 44.324c-.756.49-1.6-.055-2.452.268-.834.315-1.494-.376-1.526-1.368-.037-1.125-.053-2.251-.077-3.376-.089-.86.777-.527 1.1-.878.5-.054.719.156.689.676-.056.96-.118 1.921-.106 2.881.012.908.584 1.03 1.327.795a1.192 1.192 0 0 1 1.045 1.002z" fill="#2c3754"/><path data-name="Path 7027" d="M106.406 44.235c.573.063.936-.162.967-.765a23.633 23.633 0 0 0 .07-2.409c-.091-1.8.414-2.076 2.286-1.2.5-.3.922-.286 1.175.322-1.552 1.175-1.328 2.939-1.511 4.57-.968-.251-2.147.572-2.937-.579z" fill="#232f4d"/><path data-name="Path 7028" d="M57.578 38.979c2.74-.249 2.88-.123 2.879 2.532a7.965 7.965 0 0 0 .086 1.644c.077.362.878.629.161 1.077-.544.338-1.153.62-1.676-.085a1.369 1.369 0 0 1-.484-.814c-.083-.627-.141-1.257-.224-1.885a.64.64 0 0 1 .227-.552c.508-1.042.334-1.283-.944-1.309a.412.412 0 0 1-.14-.4c.037-.139.075-.208.115-.208z" fill="#252e4c"/><path data-name="Path 7029" d="M110.752 40.474c-.162-.5-.58-.58-1.025-.611a1.242 1.242 0 0 1 1.767-.625c.712.274.795.9.8 1.563.018 1.287-.256 2.594.294 3.851a7.643 7.643 0 0 1-2.629.046 7.924 7.924 0 0 1 .793-4.224z" fill="#1f2847"/><path data-name="Path 7030" d="M116.097 44.178c.225-1.178-.822-1.394-1.453-1.931-1.223-1.041-1.223-1.393-.039-2.863.508-.265.607.048.641.453-.185 1.115.862 1.216 1.423 1.7 1.433 1.235 1.288 2.106-.56 3.165-.16-.112-.215-.227-.165-.345s.101-.179.153-.179z" fill="#232f4d"/><path data-name="Path 7031" d="M121.093 44.675a7.1 7.1 0 0 1-2.735-.011c1-1.1.688-2.369.681-3.552-.011-1.462-.084-1.461 1.7-1.691.188 1.728-.702 3.533.354 5.254z" fill="#222c4a"/><path data-name="Path 7032" d="M75.075 44.324a1.944 1.944 0 0 1-1.049-1 3.733 3.733 0 0 0 .33-2.79c-.627-1.712.358-1.581 1.494-1.543.516 1.579-.311 3.265.341 4.886.191.47-.688.38-1.116.447z" fill="#273451"/><path data-name="Path 7033" d="M110.752 40.475c-.1 1.436.523 3.01-.788 4.223l-.572.057a4.893 4.893 0 0 1-.346-3.393c.168-.968.758-1.32 1.706-.887z" fill="#dedfe4"/><path data-name="Path 7034" d="M95.913 44.201c-.847.161-1.687 1.083-2.543.016a.907.907 0 0 1-.3-.542 2.751 2.751 0 0 1 .055-.637 3.715 3.715 0 0 0-.243-2.169 2.2 2.2 0 0 1-.085-1.355 1.313 1.313 0 0 1 1.641-.123c.911.749.554 1.778.458 2.662a2.374 2.374 0 0 0 .96 2.2z" fill="#1c2a49"/><path data-name="Path 7035" d="M93.391 40.948c.408.771.816 1.543.063 2.344-.167.01-.349-.308-.463-.066-.081.171.193.309.336.44l.044.55c-.281.134-.554.283-.842.395a1.4 1.4 0 0 1-1.716-.287 1.481 1.481 0 0 1-.077-1.933 3.852 3.852 0 0 1 .676-.635c.493-.689.993-1.333 1.979-.808z" fill="#2a3350"/><path data-name="Path 7036" d="M51.813 37.951l-2.009 1.924c-.9-1.5-.349-2.695.791-3.766l1.264-.007c.98.641.746 1.252-.046 1.849z" fill="#e1e3e7"/><path data-name="Path 7037" d="M86.091 44.651l-.636-.488 1.121-.391c.528-.691.086-1.516.3-2.231.406-1.348 1.042-1.188 1.723-.171 0 .236.008.472 0 .709-.069 2.24-.069 2.24-2.508 2.572z" fill="#243553"/><path data-name="Path 7038" d="M58.937 43.163l.09.984c-.959.062-1.893.933-2.88.09a4.511 4.511 0 0 1-.138-1.926l.847-.57a2.923 2.923 0 0 1 .626-.073c.624.362.68 1.279 1.455 1.495z" fill="#283b57"/><path data-name="Path 7039" d="M103.969 40.015a.459.459 0 0 0 .109.368.327.327 0 0 1-.075.463c-.157.218-.247.477-.419.687a1.7 1.7 0 0 1-.494.228 1.512 1.512 0 0 1-.544.007l-.49-.045c-.755-.363-.867-1.209-1.347-1.781l-.218-.5a.255.255 0 0 1-.012-.4l1.171.395a.723.723 0 0 0 1.016.224 1.313 1.313 0 0 1 .9-.092.733.733 0 0 1 .403.446z" fill="#e7ebee"/><path data-name="Path 7040" d="M88.599 41.371c-.635-.643-1.188-.784-1.47.288-.187.705.247 1.57-.553 2.115.167-2.065.167-2.065-.7-3.292a16.918 16.918 0 0 1 3.757-.082c-.174.683-.802.593-1.034.971z" fill="#513754"/><path data-name="Path 7041" d="M51.813 37.951a1.546 1.546 0 0 0 .046-1.849 9.348 9.348 0 0 0 2.691-.012c.5.551-.191.616-.367.892-.761.049-1.07.831-1.72 1.06z" fill="#26445f"/><path data-name="Path 7042" d="M119.076 37.317a.884.884 0 0 1 .9-.9.808.808 0 0 1 .977.776.885.885 0 0 1-.983 1.041.9.9 0 0 1-.894-.917z" fill="#3f4a64"/><path data-name="Path 7043" d="M87.136 36.404c1.506.322 1.506.322 1.226 2.617-.791-.767-1.052-1.962-2.194-2.1-.069-.907.517-.586.968-.517z" fill="#25304e"/><path data-name="Path 7044" d="M93.391 40.948l-1.979.808q-.224-.453-.45-.9c.351-.377.47-.949 1-1.179a1.133 1.133 0 0 1 .921-.024.966.966 0 0 1 .508 1.295z" fill="#c3ccd3"/><path data-name="Path 7045" d="M72.116 38.97l-1.1.88c-.744-.464-1.492.2-2.234-.008-.008-.331-.017-.658-.027-.987z" fill="#6c3f5b"/><path data-name="Path 7046" d="M116.098 44.179l.012.524c-.386.056-.772.135-1.161.162-1.425.1-1.519-.681-1.116-2 .671.742 1.107 1.796 2.265 1.314z" fill="#292746"/><path data-name="Path 7047" d="M87.136 36.403c-.344.134-.745.157-.968.517l-1.543.036-.468-.54a3.491 3.491 0 0 1 2.979-.013z" fill="#285069"/><path data-name="Path 7048" d="M92.879 39.649l-.877.209-.227-.064a.447.447 0 0 1-.087-.447.471.471 0 0 1 .293-.348c.834.029 1.75-.444 2.454.394a3.044 3.044 0 0 0-1.556.256z" fill="#5a2c4a"/><path data-name="Path 7049" d="M115.246 39.838q-.318-.228-.639-.454a1.981 1.981 0 0 1 2.588-.08l-.066.272a.968.968 0 0 1-.415.362l-.278-.04a1.464 1.464 0 0 0-1.19-.06z" fill="#8a5971"/><path data-name="Path 7050" d="M57.577 38.979l.026.608c-.135.195-.264.4-.409.583s-.214.49-.525.355c-.243-.1-.261-.365-.226-.6.099-.645.426-1.027 1.134-.946z" fill="#413d59"/><path data-name="Path 7051" d="M102.579 39.936c-.251.278-.408.888-.786.737-.553-.222-.128-.8-.143-1.227l.906-.165a.438.438 0 0 1 .023.655z" fill="#333e5a"/><path data-name="Path 7052" d="M117.194 39.304c.559.462.559 1.031-.036 1.325-.489.24-.524-.427-.721-.73a.514.514 0 0 0 .23-.1c.118-.091.239-.178.364-.26.059-.076.116-.155.163-.235z" fill="#43536c"/><path data-name="Path 7053" d="M57.755 41.885l-.9-.143a3 3 0 0 1 1.69-.846c0 .161-.01.321-.022.482.134.76-.294.668-.768.507z" fill="#554e67"/><path data-name="Path 7054" d="M92.002 39.859c-.3.379-.454.912-1.041.993a1.385 1.385 0 0 1 .5-1.611l.164.149a.336.336 0 0 0 .267.323z" fill="#414b65"/><path data-name="Path 7055" d="M105.4 43.274a1.236 1.236 0 0 1 .038-1.918z" fill="#2c3955"/><path data-name="Path 7056" d="M103.969 40.016a1.054 1.054 0 0 1-.416-.207.613.613 0 0 1-.492-.7 1.575 1.575 0 0 1 1.676.211 1.39 1.39 0 0 0-.768.696z" fill="#2c3955"/><path data-name="Path 7057" d="M103.061 39.107l.491.7-.973.127-.024-.655a.339.339 0 0 1 .506-.172z" fill="#2b5770"/><path data-name="Path 7058" d="M54.183 36.982l.367-.892c.247 0 .478.113.467.359-.022.527-.443.527-.834.533z" fill="#e1e3e7"/><path data-name="Path 7059" d="M99.636 40.423l.947-.542c.084.879-.274.985-.947.542z" fill="#555b73"/><path data-name="Path 7060" d="M100.479 39.05a1.969 1.969 0 0 1 .012.4l-.87-.067c.199-.339.545-.293.858-.333z" fill="#555b73"/><path data-name="Path 7061" d="M104.988 44.712a1.019 1.019 0 0 1 .938-.473.842.842 0 0 1-.938.473z" fill="#2c3955"/><path data-name="Path 7062" d="M103.955 44.286l.545.376a.529.529 0 0 1-.545-.376z" fill="#2c3955"/><path data-name="Path 7063" d="M105.945 44.226c0-.121.009-.24.018-.362.306-.064.411.112.443.372l.05-.059-.511.049z" fill="#2c3955"/><path data-name="Path 7064" d="M105.337 39.878l-.333-.4c.249.02.384.131.333.4z" fill="#2c3955"/><path data-name="Path 7065" d="M91.981 38.999a1.252 1.252 0 0 0-.072.392.362.362 0 0 1-.459.112c0-.087 0-.175.009-.263a.366.366 0 0 1 .522-.241z" fill="#c3ccd3"/><path data-name="Path 7066" d="M165.041 12.285l.369-2.886c.4-1.616 1.456-2.088 3.042-1.93a32.766 32.766 0 0 0 3.819.015c2.922-.051 4.057 1.383 3.3 4.227a6.852 6.852 0 0 1-.494 1.083l-1.324.485c-.893-.873-1.557-2.338-3.212-1.238a2.682 2.682 0 0 1-.649.185 2.519 2.519 0 0 1-.659-.034c-1.3-.881-2.563-.442-3.823.118a3.17 3.17 0 0 1-.369-.025z" fill="#ee9771"/><path data-name="Path 7067" d="M180.084 14.243l-.058.972q-.455.472-.908.946c-.309.073-.624.127-.926.221-1.163.36-1.507-.3-1.367-1.239.185-1.247.534-2.471.839-3.814 1.695.327 2.054 1.627 2.42 2.914z" fill="#e28f6d"/><path data-name="Path 7068" d="M170.277 11.687c2.013-1.375 2.978-.932 3.479 1.591-1.564 1.793-1.791 1.833-3.472.6a2.1 2.1 0 0 1-.007-2.191z" fill="#3c312e"/><path data-name="Path 7069" d="M165.413 12.311c1.71-1.868 1.816-1.881 3.928-.472a.912.912 0 0 1-.042 1.4c-1.999 1.736-2.804 1.542-3.886-.928z" fill="#3e312e"/><path data-name="Path 7070" d="M170.277 11.688q0 1.1.007 2.19l-.506-.582a1.577 1.577 0 0 1 .025-1.489z" fill="#3e312e"/><path data-name="Path 7071" d="M169.803 11.807l-.024 1.49a3.159 3.159 0 0 1-.479-.054c.013-.469.028-.936.042-1.4a1.7 1.7 0 0 1 .461-.036z" fill="#cb8364"/><path data-name="Path 7072" d="M66.936 143.788c.653-3.494 1.311-7.031 1.976-10.567a1.165 1.165 0 0 1 1.305-1.093c7.476.022 14.953.012 22.689.012-.738 3.995-1.411 7.6-2.066 11.2-.172.949-.81 1.034-1.6 1.02-3.139-.048-6.279-.054-9.418-.092q-5.313-.062-10.625-.16a3.989 3.989 0 0 1-2.261-.32z" fill="#fefefe"/><path data-name="Path 7073" d="M47.289 132.304a6.773 6.773 0 0 1-.315 3.237c-.455 2.448-.98 4.883-1.368 7.34-.167 1.053-.5 1.517-1.664 1.494-7.154-.138-14.311-.2-21.466-.3a3.861 3.861 0 0 1-.842-.259c.686-3.628 1.378-7.24 2.045-10.856.137-.744.647-.829 1.239-.824 1.528.012 3.055.037 4.583.049q7.72.062 15.439.117c.791.006 1.583.002 2.349.002z" fill="#fefefe"/><path data-name="Path 7074" d="M104.092 42.311c-.034.149-.079.295-.1.445-.083.554-.22 1.146-.937.987-.757-.168-.405-.85-.447-1.338a1.991 1.991 0 0 1 .421-.7 1.408 1.408 0 0 1 .536-.113.463.463 0 0 1 .439.26v-.005a.324.324 0 0 1 .152.288c-.014.12-.035.176-.064.176z" fill="#edf1f3"/><path data-name="Path 7075" d="M104.007 41.856a2.285 2.285 0 0 0-.468-.122c-.165-.087-.219-.172-.164-.256s.11-.125.167-.125l.465-.5z" fill="#2c3955"/><path data-name="Path 7076" d="M103.067 41.871a.661.661 0 0 1-.461.535l-.062-.638a.416.416 0 0 1 .509-.307c.138.087.187.175.144.269s-.085.141-.13.141z" fill="#2c3955"/><path data-name="Path 7077" d="M104.002 40.847a1.9 1.9 0 0 1 .075-.463c.176.092.228.218.123.356-.04.055-.127.073-.198.107z" fill="#2c3955"/><path data-name="Path 7078" d="M104.092 42.311a1 1 0 0 1-.093-.46 2.762 2.762 0 0 1 .241.3c.01.019-.096.106-.148.16z" fill="#2c3955"/><path data-name="Path 7079" d="M57.756 41.884a.916.916 0 0 0 .768-.507c.859.427.277 1.19.415 1.785-.383.209-.729.816-1.211.3-.44-.472-.226-1.054.028-1.578z" fill="#d5d8de"/><path data-name="Path 7080" d="M93.327 43.667c-.69.185-1.352.223-1.309-.752.026-.59.431-1.188 1.048-1.049.73.167.225.947.389 1.427a.412.412 0 0 0-.128.374z" fill="#dde2e6"/><path data-name="Path 7081" d="M103.067 41.872a8.13 8.13 0 0 1-.013-.411l.484-.108v.381z" fill="#2c3351"/><path data-name="Path 7082" d="M91.45 39.504l.459-.113c-.01.109-.017.217-.019.324-.221.089-.348-.025-.44-.211z" fill="#131b3c"/><path data-name="Path 7083" d="M117.03 39.538c-.046.192-.144.309-.363.262-.002-.26.149-.305.363-.262z" fill="#0c1b3c"/></g></svg>