<svg xmlns="http://www.w3.org/2000/svg" width="215.188" height="195.054" viewBox="0 0 215.188 195.054"><g data-name="Group 206" transform="translate(-11813.485 -339.801)"><circle data-name="Ellipse 16" cx="91.071" cy="91.071" r="91.071" transform="translate(11834.751 352.713)" fill="#e0e0e0"/><g data-name="Group 204"><path data-name="Path 2736" d="M12014.413 339.8a15.125 15.125 0 0 0-1.7 6.788 77.139 77.139 0 0 0-.25 9.555c.662 11.894-.063 23.8.342 35.688.583 16.969.167 33.937.268 50.906.1 16.927-.058 33.853.087 50.78.032 3.84.215 7.69.288 11.537a11.243 11.243 0 0 0 .382 2.266 1.166 1.166 0 0 0 1.328.96c1.378-.04 2.758-.012 4.136-.01a1.285 1.285 0 0 1 1.075.287 1.076 1.076 0 0 1-.833.457 30.964 30.964 0 0 1-7.306-.155 1.2 1.2 0 0 1-.663-1.067V343.845c-.009-2.445-.009-2.445-2.264-3.2-.062-.912.1-.981 1.405-.587l1.646.018a.419.419 0 0 1 .488 0 .206.206 0 0 1 .189 0c.112-.054.229-.1.346-.146z" fill="#bed6ec"/><path data-name="Path 2737" d="M12013.373 339.92c-.114.05-.231.1-.346.146z" fill="#bbcae0"/><path data-name="Path 2738" d="M12012.836 340.07h-.487a.517.517 0 0 1 .169-.209z" fill="#bbcae0"/><path data-name="Path 2739" d="M11963.098 508.317a66.719 66.719 0 0 1-12.166-.742 8.169 8.169 0 0 1-5.7-3.279c-1.4-.991-1.536-2.546-1.736-4.036a7.866 7.866 0 0 0-.386-2.224 7.126 7.126 0 0 1-.358-1.947c-.521-10.79-.373-21.588-.316-32.384-.113-.744.063-1.489-.033-2.232-.036-15.347.009-30.694-.032-46.036a1.969 1.969 0 0 1 2.6-.672c.278.228.278.228-.182 1.271a5.686 5.686 0 0 0 4.914-1.252 13.019 13.019 0 0 1 5.4-2.3 25.946 25.946 0 0 0 2.271 1.593 6.884 6.884 0 0 0 7.019-.1 3.566 3.566 0 0 0 1.47-1.4 26.624 26.624 0 0 1 5.039-4.081c.687-.424 1.438-1.057 2.345-.369a16.663 16.663 0 0 1-.746 5.653c-.637 2.442-1.446 4.834-2.3 7.2a5.911 5.911 0 0 0-.257 4 85.028 85.028 0 0 1-2.565 16.63c-1.418 5.781-2.833 11.563-3.867 17.426a126.11 126.11 0 0 0-1.545 23.865c.23 4.92-.483 9.818-.333 14.732a11.076 11.076 0 0 1-.064 1.137c-.238 2.041.3 3.66 2.362 4.485a5.592 5.592 0 0 1 .476 4.119 1.4 1.4 0 0 1-1.31.943z" fill="#398ac9"/><path data-name="Path 2740" d="M11902.201 517.931c.74 1.927-.2 3.314-1.548 4.482a18.265 18.265 0 0 1-5.628 3.077 76.347 76.347 0 0 1-15.527 3.677c-10.178 1.566-20.417 1.487-30.65 1.206a106.33 106.33 0 0 1-11.968-1.151 85.119 85.119 0 0 1-13.21-2.77 24.6 24.6 0 0 1-7.634-3.462c-.22-.164-.464-.3-.676-.474-2.428-2.011-2.485-4.272-.228-6.481.835-.818 1.962-1.225 2.755-2.082 1.473.111 2.405 1.129 3.35 2.071a24.416 24.416 0 0 0 2.634 2.412c.5.372 1.042.88 1.732.3.646-1.126-.1-1.992-.56-2.89a9.611 9.611 0 0 1-1.267-2.647 1.753 1.753 0 0 1 .513-1.94 65.9 65.9 0 0 1 12.921-2.73 154.675 154.675 0 0 1 48.207 1.133 16.379 16.379 0 0 1 1.918.485 1.778 1.778 0 0 1 1.231 1.189 18.134 18.134 0 0 0 1.8 3.237c-.7 1.549-1.134 3.1-.022 4.656a4.069 4.069 0 0 0 2.873.4 31.285 31.285 0 0 0 7.718-1.644 1.292 1.292 0 0 1 1.266-.054z" fill="#aaa"/><path data-name="Path 2741" d="M12024.958 523.825a52.193 52.193 0 0 1-14.542 4.69c-3.345.665-6.726 1.054-10.095 1.519-1.409.195-2.846.25-4.268.369a158.243 158.243 0 0 1-17.338.337 138.425 138.425 0 0 1-15.436-1.24 78.874 78.874 0 0 1-16.045-3.633 16.759 16.759 0 0 1-6.425-3.6c-2.036-2.026-2.027-3.784.013-5.822a16.2 16.2 0 0 1 5.963-3.44 73.41 73.41 0 0 1 13.577-3.376c.366-.063.778-.149 1.051.255-.874 1.391-2.38 1.871-3.743 2.5-1.247.578-2.487 1.167-3.737 1.739a2.849 2.849 0 0 0-1.905 3.114c.139.909.795 1.11 1.562 1.114q8.216.046 16.436 0c1.181-.006 1.546-.612 1.308-1.7a42.675 42.675 0 0 0-.7-7.968.951.951 0 0 1 .45-.4 33.048 33.048 0 0 1 7.236-.132 232.9 232.9 0 0 0 23.732 0 6 6 0 0 1 1.477.028 1.563 1.563 0 0 1 .528.224.473.473 0 0 1 .172.477.744.744 0 0 1-.6.189.243.243 0 0 1-.181-.086c.216.281.952-.009 1.021.64a35.87 35.87 0 0 1 .161 5.533 2.429 2.429 0 0 0 .158 1.23 26.416 26.416 0 0 0 7.411 6.617 5.333 5.333 0 0 0 6.86-.918 3.851 3.851 0 0 0-.687-3.687c-1.344-2.112-2.94-4.053-4.214-6.216a2.145 2.145 0 0 1-.261-.7.891.891 0 0 1 .108-.492 1.237 1.237 0 0 1 1.254-.129 33.393 33.393 0 0 1 10.262 4c.093.06.186.119.275.183 3.8 2.726 3.833 5.61.092 8.449-.284.198-.663.1-.93.332z" fill="#aaa"/><path data-name="Path 2742" d="M11823.124 499.414c1.884-2.912 3.62-5.917 5.608-8.758a7.557 7.557 0 0 1 2.7-2.833 3.092 3.092 0 0 1 2.1.167 15.831 15.831 0 0 1 6.149 4.048c.6.657 1.167 1.375.589 2.352-1.874 2.148-4.392 3.532-6.463 5.45a38.917 38.917 0 0 0-5.308 5.012 29.938 29.938 0 0 0-2.978 3.541 3.283 3.283 0 0 1-3.7 1.517 2.793 2.793 0 0 1-1.691-2.016 5.181 5.181 0 0 1 .451-3.1c.131-1.644 1.623-4.026 2.543-5.38z" fill="#f29972"/><path data-name="Path 2743" d="M11891.309 499.606a15.739 15.739 0 0 0 .9 4.741c.083 2.374.876 4.622 1.249 6.945.054.323.126.646.191.968a1.325 1.325 0 0 1 .07 1.357c-1.065.82-2.16 1.54-3.606 1.058a6.533 6.533 0 0 1-1.732-2.7 3.618 3.618 0 0 0-.764-1.407 22.25 22.25 0 0 1-3.677-6 9.643 9.643 0 0 0-1.025-2.18 6.456 6.456 0 0 0-.527-1.883c-.133-.465-.25-.935-.4-1.4a45.205 45.205 0 0 1-.9-4.149 3.061 3.061 0 0 1 .8-2.859 14.6 14.6 0 0 1 8.113-1.353c1.818.946 1.316 2.67 1.407 4.2.035.659-.013 1.318-.006 1.976-.118.894.45 1.81-.093 2.686z" fill="#f29972"/><path data-name="Path 2744" d="M11970.621 508.529a7.812 7.812 0 0 1 1.072 4.024c.068 1.351.062 2.707.087 4.059a1.281 1.281 0 0 1-.929.259 124.6 124.6 0 0 0-18.136.293 1.564 1.564 0 0 1-1.112-.2 2.974 2.974 0 0 1 2.057-3.158 66.042 66.042 0 0 0 7.753-3.923c.748-.323.984-1.193 1.684-1.568a2.8 2.8 0 0 1 .968-.751c2.206.183 4.509-.297 6.556.965z" fill="#14646d"/><path data-name="Path 2745" d="M11820.127 507.894c.766.384.979 1.3 1.678 1.746a2.371 2.371 0 0 0 1.107.123c1.555.056 1.7.28 1.188 1.861a4.218 4.218 0 0 0 .746 3.106c.43.761.9 1.5 1.289 2.284a1.576 1.576 0 0 1-.365 2.193 23.549 23.549 0 0 1-7.752-6.8 11.031 11.031 0 0 1-1.926-2.453 7.5 7.5 0 0 1 1.953-1.863 1.791 1.791 0 0 1 2.082-.197z" fill="#15646d"/><path data-name="Path 2746" d="M11890.114 514.675a20.826 20.826 0 0 0 3.553-1.194.752.752 0 0 1 .766-.2c1.438.771 3.122.994 4.448 2.011.754.531 1.692.16 2.513.53a10.3 10.3 0 0 1 1.493.593 3.582 3.582 0 0 1-2.364 1.37c-3.447.954-6.9 1.927-10.539 1.786-1.2-1.372-.608-2.969-.528-4.49.007-.145.428-.27.658-.406z" fill="#15646d"/><path data-name="Path 2747" d="M11889.984 519.573c.768-.574 1.7-.379 2.555-.515a43.83 43.83 0 0 0 10.349-2.641c.554.861-.311 1.075-.688 1.511a26.4 26.4 0 0 1-9.561 2.165 3.272 3.272 0 0 1-2.655-.52z" fill="#d09d06"/><path data-name="Path 2748" d="M11816.094 509.949a5.257 5.257 0 0 1 1.89 1.79 26.239 26.239 0 0 0 6.617 6.336 3.3 3.3 0 0 1 1.171 1.132c-.534.629-1.061.338-1.586-.012a13.709 13.709 0 0 1-2.638-2.227 16.645 16.645 0 0 0-3.665-3.018 15.952 15.952 0 0 1-1.7-2.358c-.251-.529-.615-1.068-.089-1.643z" fill="#d19d05"/><path data-name="Path 2749" d="M11898.881 515.294c-1.435-.345-2.917-.53-4.117-1.541-.259-.218-.729-.187-1.1-.272 0-.407-.012-.814-.018-1.221a28.368 28.368 0 0 1 5.363 2.489c.523.363.237.442-.128.545z" fill="#89a2c3"/><path data-name="Path 2750" d="M11942.557 358.699c.063-2.862.1-5.724.337-8.581a36.318 36.318 0 0 1 .532-3.752c.564-3 2.242-4.8 5.392-5.124.88-.088 1.755-.135 2.636-.158 11.292-.313 22.589-.217 33.881-.411q9.833-.169 19.664-.247c.605 0 1.211.022 1.817.034a2.984 2.984 0 0 1 .518 2.2q.015 27.386 0 54.775a4.518 4.518 0 0 1-.275 1.946c-.675.805-.921.059-1.136-.376a15.135 15.135 0 0 1-1.041-2.948c-2-7.782-7.423-11.731-14.9-13.4a.84.84 0 0 1-.649-.438 11.588 11.588 0 0 1 .233-5.832c1.156-1.809 2.772-3.272 3.9-5.112s2.067-3.651 1.142-5.886a9.485 9.485 0 0 1-.2-1.965 1.776 1.776 0 0 1 1.053-2.137 4.37 4.37 0 0 0 2.271-3.629 2.791 2.791 0 0 0-1.416-2.786c-.987-.619-1.788-.053-2.574.473a7.06 7.06 0 0 0-2.69 2.841 2.2 2.2 0 0 1-1.819 1.224 31.657 31.657 0 0 1-5.928.328c-3.089-.028-5.546 2.912-5.347 6.674.031.569.559.785.861 1.162a2.045 2.045 0 0 1 .184 1.484 1.726 1.726 0 0 1-.686.884c-1.678 1.435-1.541 2.512.434 3.61a2.486 2.486 0 0 1 .41.277 4.708 4.708 0 0 1 .707 1.651 4.554 4.554 0 0 0 1.618 2.617c2.03 1.174 1.925 2.811 1.291 4.655a1.009 1.009 0 0 1-.931.19c-4.183-.621-6.98 1.66-9.526 4.5-3.953 4.412-6.87 9.555-10.113 14.457a6.8 6.8 0 0 1-6.1 3.487 4.459 4.459 0 0 0-2.3.782 10.954 10.954 0 0 1-4.17-.773c-1.951-.628-3.451.233-5.174 1.224.892.735 1.653.258 2.363.285s1.536 0 1.8.821c.274.852-.412 1.338-1.053 1.638-1.462.687-2.914 1.5-4.642 1.17-.03-6.325.051-12.652-.114-18.973-.247-9.568-.128-19.136-.214-28.7 0-.384-.045-.769-.071-1.151a15.513 15.513 0 0 0 .025-3.01z" fill="#398ac9"/><path data-name="Path 2751" d="M11873.141 350.363c.762.091 1.531.151 2.287.28.959.164 1.193.546.887 1.484a7.189 7.189 0 0 1-.641 1.332c-.365.635-.465 1.135.463 1.3a.645.645 0 0 1 .463.429c-.279.539-.836.435-1.3.553-1.48.382-1.756.7-1.857 2.27-.057.877-.062 1.757-.1 2.635a1.191 1.191 0 0 1-.277.758 1.042 1.042 0 0 1-.291-.353c-.154-.359-.291-.725-.436-1.088-.9-2.859-.9-2.859-3.863-2.862-1.094 0-2.187-.006-3.279 0-2.725.016-3.389.745-3.164 3.472.072.315.17.622.264.931a2.812 2.812 0 0 1 .1.476c-.3 1.97-.043 3.726 1.83 4.892.477.3 1.006.7 1.52.49 2.166-.878 4.486-.231 6.678-.767a2.847 2.847 0 0 1 .473-.123h.246l.205.133c1.182 4.292.131 6.52-3.914 8.281-.352.154-.713.287-1.07.43-1.266 1.225-2.461.331-3.553-.246a13.98 13.98 0 0 1-3.482-2.922 15.6 15.6 0 0 1-1.332-1.432 19.08 19.08 0 0 0-2.273-3.516 2.654 2.654 0 0 1-.742-1.577.811.811 0 0 1 .2-.42c.053-.013.105-.028.16-.038.82-.168 1.867 1.055 2.369.042.559-1.126-.209-2.433-.41-3.655-.072-.439-.518-.293-.793-.081a3.575 3.575 0 0 0-1.045 1.637c-.318.523-.045 1.4-.932 1.581-1.064-.7-1.014-1.926-1.42-2.941a2.663 2.663 0 0 1-.021-1.771 17.562 17.562 0 0 1 .053-5.068 4.937 4.937 0 0 1 1.379-2.566 10.653 10.653 0 0 1 6.6-3 30.875 30.875 0 0 1 7.514.629 5.491 5.491 0 0 0 2.504.391z" fill="#161330"/><path data-name="Path 2752" d="M12006.476 399.686c.57-.545.316-1.249.316-1.878q.021-27.6.01-55.2c0-.716.008-1.432.012-2.148l2.25-.075c.715.016 1.428.045 2.145.044.617 0 .912.278.9.9-.006.385.006.771.006 1.158q0 81.743-.014 163.486c0 .678.295 1.452-.379 2.019a1.416 1.416 0 0 1-1.549-.883 40.365 40.365 0 0 0-.687-5.3 6.69 6.69 0 0 0 .357-4.008 3.282 3.282 0 0 1-.127-.53c-.922-5.962-2.115-11.876-3.176-17.812a9.593 9.593 0 0 1-.209-2.291c-.133-20.812-.027-41.624-.064-62.434 0-.549-.027-1.1.027-1.645a1.756 1.756 0 0 1 .873-1.653c1.645-1.344 1.791-3.026 1.178-4.9-.6-1.821-1.187-3.645-1.838-5.449-.164-.455-.412-.922-.031-1.401z" fill="#f4f5f5"/><path data-name="Path 2753" d="M12010.477 507.231l1.243.763.392.631q.958 1.309 1.911 2.616a1.221 1.221 0 0 1 .1.31 1.727 1.727 0 0 0 .266.35q2.228 3.259 4.458 6.517a3.982 3.982 0 0 1 .675 3.726c-3.465 1-6.729.736-9.676-1.531-1.754-1.347-3.342-2.879-5.024-4.3a4.724 4.724 0 0 1-.617-.811l-.1-6.216c-.094-.094-.109-.167-.057-.22a.194.194 0 0 1 .135-.064l.055-.07c.2-.263.428-.561.767-.587a11.554 11.554 0 0 0 4.543-1.282.942.942 0 0 1 .929.168z" fill="#14646d"/><path data-name="Path 2754" d="M12006.476 399.69c.74 2.161 1.488 4.318 2.219 6.482a8.4 8.4 0 0 1 .408 1.575 3.752 3.752 0 0 1-1.393 3.788c-.432.326-.832.7-1.24 1.045-.139.748-.8 1-1.312 1.4a78.7 78.7 0 0 1-6.746 4.457 2.111 2.111 0 0 0-1.1 2.468c.191.972.234 1.972.441 2.937a2.21 2.21 0 0 1-1.1 2.661c-1.637 1.105-3.566 1.237-5.418 1.632a4.318 4.318 0 0 1-.795.124 14.655 14.655 0 0 0-3.523.231 7.891 7.891 0 0 1-1.691.141 85.124 85.124 0 0 1-9.318-1.016 8.53 8.53 0 0 1-1.82-.461c-.969-.387-1.988-.643-2.953-1.038-.609-.249-1.227-.518-1.414-1.257a2.528 2.528 0 0 1-.361-2.754c.871-2.6 1.785-5.191 2.551-7.83a45.229 45.229 0 0 0 1.143-6.293c.516-.537 1.135-.325 1.709-.192a37.341 37.341 0 0 0 9.664 1.094 2.534 2.534 0 0 1 .332.019c2.846.334 3.566.87 1.852 3.415a4.771 4.771 0 0 0-.83 2.486c-.035 1.042.537 1.5 1.461 1.048a12.479 12.479 0 0 0 4.568-4.213 2.074 2.074 0 0 0-.121-2.064c-.455-1.064-.93-2.121-1.34-3.206-1.039-2.759-.562-4.417 1.8-6.214 1.313-1 2.818-1.771 3.752-3.2.406-.621 1.277-1.376.664-2-.525-.53-1.252.367-1.83.732-1.625 1.038-3.213 2.137-4.824 3.2a11.917 11.917 0 0 1-10.248 1.749c-1.961-.561-3.953-1.029-5.863-1.748a2.42 2.42 0 0 0-3.246.924 60.268 60.268 0 0 1-5.3 5.453 4.154 4.154 0 0 0-1.383 2.379c-.137 1.048-.607 1.582-1.783 1.334-.986-.206-1.291.413-.787 1.148.885 1.3 1.512 2.863 3.139 3.506.221.148.408.312.316.616-.439.225-.867.473-1.314.675a7.944 7.944 0 0 1-8.213-1.937.815.815 0 0 1-.086-.313 5.244 5.244 0 0 0-1.273-6.766 1.7 1.7 0 0 1 1.787-.921 10.726 10.726 0 0 0 2.932-.359 3.979 3.979 0 0 0 2.615-2.1c2.377-3.563 4.779-7.111 7.146-10.682a30.385 30.385 0 0 1 6.748-7.577 7.673 7.673 0 0 1 7.414-1.468 4.723 4.723 0 0 0 3.58 2.442c1.713.145 2.348-.126 2.988-1.787.137-.353.188-.749.533-.987.814-.594 1.652-.138 2.361.117a27.882 27.882 0 0 1 8.354 4.551 14.37 14.37 0 0 1 4.041 6.138c.815 2.098 1.415 4.276 2.107 6.416z" fill="#fefefe"/><path data-name="Path 2755" d="M11974.04 426.793l1.665.4c3.6.927 4.807 2.89 4.243 6.917-.636 1.262.07 2.538-.137 3.777.292.091.173.123.118-.019-.25-.66.027-1.394-.23-2.068a34.578 34.578 0 0 1 1.2-5.456 2.65 2.65 0 0 1 2.435-1.926c.646-.1 1.325.088 1.936-.25l1.671-.063c1.192-.309 2.434.124 3.624-.243l.693-.057a8.783 8.783 0 0 1 3.1-.079c.458.06 1.122.018 1.154.66.028.574-.562.754-1.019.944a15.27 15.27 0 0 1-3.2.815 15.778 15.778 0 0 0-3.33.975c-1.179.5-1.316 1.025-.518 2.007a21.488 21.488 0 0 1 1.983 2.433c.6 1.017.311 1.515-.889 1.577a4.953 4.953 0 0 1-.985-.1c-.662-.1-1.376-.24-1.81.429s-.006 1.294.317 1.85c1.914 3.3 4.2 6.341 6.372 9.465a16.182 16.182 0 0 1 1.266 1.938c.346.688.826 1.445.278 2.165-.6.789-1.509.5-2.3.285a27.758 27.758 0 0 1-3.13-1.069c-.337-.135-.655-.446-1.09-.224-.093.628.381 1 .667 1.439a507.954 507.954 0 0 0 5.044 7.576c4.214 6.186 6.469 13.109 7.764 20.406a65.3 65.3 0 0 0 1.977 8.872 8.745 8.745 0 0 0 4.709 5.47 4.467 4.467 0 0 1 2.519 2.019c.454 1.435-.215 2.215-1.546 2.508a51.576 51.576 0 0 1-6.972 1.105c-1.963.155-2.926-1.2-3.684-2.745-2.214-5.122-3.515-10.541-5.095-15.868-2.472-8.34-4.856-16.706-7.71-24.928-1.082-3.119-2.756-6.009-3.58-9.228a15.2 15.2 0 0 1-.271-1.774c.373 1.246-.143 2.737-.2 4.247-.689 3.753-1.968 7.346-2.933 11.024a79.765 79.765 0 0 0-1.947 14.391c-.54 7.189-.678 14.406-1.377 21.585a4.809 4.809 0 0 1-.458 1.749 2.947 2.947 0 0 1-3.07 1.743c-2.352-.083-4.715.206-7.05-.316-2.31-.517-2.729-.927-3.083-3.152-.046-5.072.251-10.137.348-15.207a2.826 2.826 0 0 1 1.531-2.368c4.916-3.057 7.624-7.734 9.131-13.108.979-3.487.5-7.1-.015-10.658-.346-2.4-.718-4.793-1.1-7.186a7.526 7.526 0 0 1 2.416-7.325 27.468 27.468 0 0 0 3.008-3.064c.936-1.145.806-1.762-.476-2.488a7.519 7.519 0 0 1-2.124-1.547c-.863-1.009-.731-1.549.479-2.152.693-.344 1.924-.274 1.8-1.347-.115-.965-1.274-1.082-2.075-1.405a21.818 21.818 0 0 1-3.084-1.171c-.62-.369-1.276-.855-1.023-1.694s1.066-.881 1.791-.831a12.765 12.765 0 0 1 2.272.345z" fill="#14646d"/><path data-name="Path 2756" d="M11974.039 426.793c-.989.016-1.981.02-2.97.056-.4.015-.781.148-.873.6-.077.376.23.585.444.83a3.494 3.494 0 0 0 1.611.793 27.047 27.047 0 0 1 3.56 1.3c.54.284 1.185.556 1.158 1.26-.032.766-.72 1.063-1.332 1.316-.453.187-.959.246-1.413.429-.814.325-.855.523-.3 1.161a7.173 7.173 0 0 0 2.385 1.736c1.64.788 1.817 1.629.632 3.024-.569.67-1.229 1.263-1.851 1.887-.469.468-.916.96-1.419 1.386-2.237 1.887-2.561 4.314-2.163 7.037.684 4.662 1.713 9.284 1.595 14.049a15.34 15.34 0 0 1-1.039 5.636c-1.473 3.522-3.16 6.909-6.1 9.508a19.026 19.026 0 0 1-2.66 1.944 4 4 0 0 0-1.8 2.045 154.987 154.987 0 0 1 .5-16.006c.533-7.059 2.213-13.894 3.8-20.752 1.114-4.82 2.423-9.6 3.06-14.522.221-1.691.331-3.393.5-5.09.054-.531-.115-1.12.345-1.563 1.284 1.011 2.914 1.239 4.33 1.936z" fill="#4ba3a7"/><path data-name="Path 2757" d="M11964.424 413.918a1.785 1.785 0 0 1-1.77-.992 27.443 27.443 0 0 0-1.722-2.418 2.093 2.093 0 0 1-.367-.735c-.312-1.016.267-1.62 1.307-1.386 1.345.3 1.359.3 1.57-1.082a3.487 3.487 0 0 1 1.13-1.966q2.527-2.505 5.041-5.021a3.228 3.228 0 0 0 1.1-1.42c.213-.862.87-.931 1.554-.839a7.918 7.918 0 0 1 1.592.41c1.918.682 3.891 1.183 5.845 1.748a11.347 11.347 0 0 0 9.9-1.644q2.813-1.882 5.646-3.733a5.438 5.438 0 0 1 1.142-.651c.734-.256 1.156.168.938.953a7.175 7.175 0 0 1-2.481 3.6c-1.057.883-2.276 1.53-3.307 2.456a3.658 3.658 0 0 0-1.028 4.342c.435 1.187.934 2.351 1.439 3.51.9 2.074.847 2.5-.729 4.086a16.18 16.18 0 0 1-3.206 2.844 4.706 4.706 0 0 1-1.181.562c-.977.237-1.457-.152-1.543-1.151a5.472 5.472 0 0 1 .7-2.852c.215-.444.5-.85.76-1.275.748-1.249.666-1.37-.824-1.721a6.592 6.592 0 0 0-1.792-.231 35.318 35.318 0 0 1-9.778-1.183 5.726 5.726 0 0 0-1.306-.141c-2.834.916-4.846 3-6.96 4.927a4.184 4.184 0 0 1-1.67 1.003z" fill="#d8d8d8"/><path data-name="Path 2758" d="M11953.865 405.907c.319.081.637.18.959.24a1.5 1.5 0 0 1 1.283 1.653c.05 1.263.088 2.533.223 3.79.1.988-.859.657-1.19 1.083-1.014.416-2.011.867-3.041 1.234a7.312 7.312 0 0 0-2.52 1.518c-1.61 1.477-3.538 1.247-5.458 1.113a.571.571 0 0 1-.384-.249c-.145-.24.055-.389.227-.528.283-.234.74-.228.936-.722h-2.225c-.289-.113-.694-.19-.629-.586.072-.42.516-.485.863-.612 1-.7 2.273-.628 3.256-1.274-1.061.378-2.115 1.035-3.354.771a4.846 4.846 0 0 1-2.242-.385c-.625-.347-.687-.691-.082-1.074.78-.5 1.621-.9 2.438-1.339 1.047-.31 2.105-.59 3.138-.944a12.155 12.155 0 0 0 1.783-.83c.322-.176.74-.388.636-.852-.12-.537-.615-.564-1.053-.566a12.216 12.216 0 0 0-1.309.081 6.227 6.227 0 0 1-.97.139c-.544-.034-1.232-.075-1.357-.687-.11-.546.5-.782.949-.976.9-.4 1.8-.785 2.73-1.121a2.959 2.959 0 0 1 1.928.12 23.046 23.046 0 0 0 4.465 1.003z" fill="#f29972"/><path data-name="Path 2759" d="M11954.099 433.477a4.632 4.632 0 0 1-4.86-4.529c-.026-2.408 2.251-4.352 4.817-4.459a4.968 4.968 0 0 1 4.761 4.539c-.036 2.359-2.245 4.743-4.718 4.449z" fill="#92a8cb"/><path data-name="Path 2760" d="M11970.624 508.529a1.891 1.891 0 0 0-1.262-.211 13.66 13.66 0 0 1-5.3-.752 18.241 18.241 0 0 0-.214-4.2c.01-.054 0-.12.026-.16 1.324-1.855 6.47-1.859 7.8-.01.208 1.849.523 3.721-.974 5.255z" fill="#f19972"/><path data-name="Path 2761" d="M11971.403 503.353a1.478 1.478 0 0 0-1.465-1.058 34.7 34.7 0 0 0-5.019.378 1.966 1.966 0 0 0-1.069.691c-2.138-.486-2.678-1.111-2.732-3.229-.019-.711.027-1.423.041-2.134.394 1.727 1.543 2.412 3.238 2.707a54.309 54.309 0 0 0 7.723.3c1.019.031 1.387-.744 1.915-1.347a2.777 2.777 0 0 1-.3 3.455 1.6 1.6 0 0 1-2.332.237z" fill="#4ba3a7"/><path data-name="Path 2762" d="M11964.424 413.918a3.631 3.631 0 0 1 1.668-1.007 3.027 3.027 0 0 1-1.341 1.338z" fill="#eaf0f6"/><path data-name="Path 2763" d="M11971.404 503.353c2.355-.091 2.451-.182 2.62-2.541.027-.382.01-.767.012-1.151a81.734 81.734 0 0 0 .872-9.208c.315-4.45.511-8.911.744-13.368a81.228 81.228 0 0 1 3.787-21.566c.522-1.562.847-3.188 1.262-4.785.4-.774-.119-2.036 1.231-2.3 1.348 4.257 3.414 8.231 4.8 12.481 3.044 9.318 5.642 18.765 8.452 28.152.929 3.112 1.869 6.22 3.037 9.255a2.177 2.177 0 0 1 .15.464c.635 2.458 1.522 4.632 4.729 4.22.206-.026.4.162.557.322.572 1.724 1.518 3.414.487 5.285-7.692.583-15.4.375-23.088.215-3.442-.072-6.914.012-10.356-.378a12.868 12.868 0 0 0 .704-5.097z" fill="#398ac9"/><path data-name="Path 2764" d="M11951.604 516.966a20.833 20.833 0 0 1 5.706-.684c3.679-.079 7.36-.04 11.043-.06a13.535 13.535 0 0 1 3.429.391 2.781 2.781 0 0 1 .276 1.114.939.939 0 0 1-.948 1.1 13.92 13.92 0 0 1-1.323.053q-8.186-.009-16.376-.025h-.332c-1.655-.057-1.704-.118-1.475-1.889z" fill="#d59e01"/><path data-name="Path 2765" d="M12004.149 508.612c.26-1.823-.527-3.5-.727-5.26a13.5 13.5 0 0 1 6.277-1.7 11.575 11.575 0 0 1 .779 5.582 2.865 2.865 0 0 0-1.656.574 3.75 3.75 0 0 1-3.006.871 4.9 4.9 0 0 0-1.582.253 5.564 5.564 0 0 0-.085-.32z" fill="#f29972"/><path data-name="Path 2766" d="M12004.837 515.846c1.424 1.2 2.893 2.344 4.264 3.6a10.272 10.272 0 0 0 8.451 2.78c.652-.072 1.313-.057 1.969-.082-.5 1.411-1.756 1.768-3 1.963a7.134 7.134 0 0 1-5.342-1.14 69.34 69.34 0 0 1-6.285-5.542 1.289 1.289 0 0 1-.437-.862c-.157-.39-.237-.739.38-.717z" fill="#d49e03"/><path data-name="Path 2767" d="M12004.18 508.998a.657.657 0 0 1-.078.284l-1.1-.066a1.252 1.252 0 0 1 1.178-.218z" fill="#6590ba"/><path data-name="Path 2768" d="M12004.836 515.846c-.293.149-.33.438-.379.716a1.07 1.07 0 0 1-.252-1.063c.252.037.506.076.631.347z" fill="#a89b2b"/><path data-name="Path 2769" d="M12014.391 511.901a.383.383 0 0 1-.265-.35c.088.117.175.233.265.35z" fill="#39619a"/><path data-name="Path 2770" d="M11831.369 488.08c.177-.332.6-.463.646-.916.246-2.471 1.725-4.354 3.081-6.28 1.893-2.686 4.064-5.166 5.75-8.012a26.873 26.873 0 0 0 3.837-11.425c.284-3.084.134-6.148.252-9.218.1-2.572.3-5.132.648-7.685.139-1.038.787-1.95.689-3.033.477-.587 1.134-.37 1.675-.261 2.564.523 5.106.145 7.656-.076a3.587 3.587 0 0 1 1.3-.006c1.5 2.468 3.137 4.84 2.716 8.022a16.218 16.218 0 0 1-2.834 6.8c-1.875 2.866-3.761 5.7-4.683 9.072a41.14 41.14 0 0 0-1.091 5.513 14.084 14.084 0 0 1-4.754 9.356 12.761 12.761 0 0 0-2.254 2.635 1.945 1.945 0 0 0-.3 2.164 2.1 2.1 0 0 0 2.161.9 3.422 3.422 0 0 0 2.163-1.086 16.694 16.694 0 0 0 4.148-6.7c2.63-6.64 6.273-12.762 9.422-19.134 1.893-3.827 3.383-7.8 3.11-12.207a10 10 0 0 0-.524-2.916 3.315 3.315 0 0 0-3.208-2.414 2.951 2.951 0 0 1-1.76-.322 7.679 7.679 0 0 1 2.764-3.032 23.047 23.047 0 0 0 12.115-1.8 2.026 2.026 0 0 1 .964-.193 7.276 7.276 0 0 1 3.658 2.869c2.3 4.93 4.456 9.926 6.837 14.82a46.3 46.3 0 0 1 3.719 12.071 107.758 107.758 0 0 1 1.415 11.559 91.462 91.462 0 0 0 .878 9.8 8.533 8.533 0 0 1 .04 1.484c0 1.9 0 1.9-1.651 2.626a24.06 24.06 0 0 0-7.961 1.29c-4.474.919-5.434.195-6.049-4.381-.675-5.011-.868-10.112-2.66-14.923a92.385 92.385 0 0 0-5.143-11.986c-.477-.877-.86-2.165-2.108-2.044-1.145.111-1.288 1.386-1.639 2.279a158.773 158.773 0 0 1-7.146 16.7 66.825 66.825 0 0 1-11.133 15.117c-2.231 2.3-4.047 2.591-6.107 1.252a1.282 1.282 0 0 0-.148-1.53 14.224 14.224 0 0 0-7.835-4.768 2.755 2.755 0 0 0-.656.019z" fill="#4ba3a7"/><path data-name="Path 2771" d="M11857.153 441.429c-1.025.12-2.055.208-3.075.364a27.071 27.071 0 0 1-7.81-.282 13.143 13.143 0 0 1-2.932-1.092 4.587 4.587 0 0 1-2.414-3.89 12.913 12.913 0 0 1 .835-5.017c.737-2.19 1.6-4.34 2.145-6.593a36.588 36.588 0 0 0 .821-8.53 130.264 130.264 0 0 0-1-14.661 84.9 84.9 0 0 1-.8-10.206c.066-6.11 3.188-10.572 8.953-12.747a2.647 2.647 0 0 0 1.177-.565c1.068-.754 2-.217 2.875.369a6.51 6.51 0 0 1 1.92 2.011 12.692 12.692 0 0 0 6.7 5.059 2.186 2.186 0 0 0 3.211-1.518 4.672 4.672 0 0 0 .089-2.44 20.847 20.847 0 0 1-.155-4.595c.019-.55-.089-1.285.811-1.36a3 3 0 0 1 1.8 1.079 46.94 46.94 0 0 1 4 4.4 19.042 19.042 0 0 1 3.395 8.673 40.13 40.13 0 0 1 .718 8.708 10.578 10.578 0 0 0 3.352 8.3c1.3 1.275 2.613 2.525 4.014 3.689a18.153 18.153 0 0 0 7.363 3.583 4.474 4.474 0 0 1 1.838.67c-.625.862-1.625.834-2.507.975-1.394.223-2.126.829-2.126 2.347 0 1.24-.421 2.477-.027 3.726a5.624 5.624 0 0 1-.1 2.36c-2.026.123-2.518 1.966-3.555 3.2a1.945 1.945 0 0 1-1.1.678 12.05 12.05 0 0 1-3.257-1.534c-1.044-.6-2.058-1.26-3.105-1.858-.6-.34-1.307-1.079-1.891-.641-.678.511.064 1.3.254 1.943a17.625 17.625 0 0 0 .675 1.677 40.25 40.25 0 0 1 2.255 7.035 12.514 12.514 0 0 1 .279 2.777c-.017 1.294-.32 1.508-1.591 1.265-.162-.032-.322-.061-.485-.092a22.073 22.073 0 0 1-3.335-2.585 4.674 4.674 0 0 1-2.235-2.528 36.889 36.889 0 0 1-2.444-7.174c-.744-2.954-3.025-4.193-5.349-5.444-1.042-.561-1.06.386-1.083 1.019-.107 3.077-.4 6.138-.7 9.2a43.493 43.493 0 0 1-.736 4.891 2.987 2.987 0 0 1-1.044 1.994 6.273 6.273 0 0 1-2.588 2.657 1.835 1.835 0 0 1-2.036.703z" fill="#fefefe"/><path data-name="Path 2772" d="M11885.58 428.12c1.01-1.268 2.221-2.411 2.506-4.111.7-.161 1.124.511 1.732.439a9.809 9.809 0 0 1 3.263-1.07c.479.061.2-.34.267-.129.172.544-2.13-.414-3.291-1.372a1.3 1.3 0 0 1-.419-1.181c.112-1.3.208-2.607.322-3.911.072-.808.657-1.055 1.345-1.192 1.229-.244 2.455-.5 3.683-.754a4.486 4.486 0 0 0 .8-.186c2.109-.918 3.835.19 5.6 1.048a.7.7 0 0 1 .463.793c-.09.4-.452.461-.779.466-.713.009-1.429-.034-2.142-.037a5.875 5.875 0 0 0-1.148.066.777.777 0 0 0-.493.378.549.549 0 0 0 .3.688 10.757 10.757 0 0 0 3.007 1.328 16.585 16.585 0 0 1 3.992 1.521c1.239.687 1.228.864-.071 1.653-1.335.19-2.676.474-3.963-.22a20.706 20.706 0 0 1 2.009.813c.105.029.214.053.317.091.312.111.658.218.608.644-.036.34-.367.414-.615.46-.578.106-1.169.146-1.771.215.146.526.818.416.934.9-.033.168-.1.321-.286.342-1.646.186-3.3.409-4.835-.486a.9.9 0 0 0-1.079.037.845.845 0 0 0-.429.672c.021.291.3.433.586.492a12.339 12.339 0 0 0 4.569.473 7.192 7.192 0 0 1 2.781.247.428.428 0 0 1 .375.458.6.6 0 0 1-.284.375 3.022 3.022 0 0 1-1.421.391 3.364 3.364 0 0 0-2.258.9c-1.185 1.063-2.618 1.836-3.621 3.111a1.641 1.641 0 0 1-1.776.6 10.044 10.044 0 0 1-5.368-2.742 7.343 7.343 0 0 0-3.41-2.21z" fill="#f29972"/><path data-name="Path 2773" d="M11868.506 375.736a2.037 2.037 0 0 0-.436 1.694 26.887 26.887 0 0 0 .266 4.427 5.137 5.137 0 0 1-.258 2.915 2.386 2.386 0 0 1-3.2 1.492c-2.926-1.076-5.592-2.537-7.312-5.3-1.035-1.664-2.357-2.891-4.508-2.751a5.086 5.086 0 0 1 .664-.919 34.584 34.584 0 0 0 6.465-6.885 46.017 46.017 0 0 0 4.191 3.923 4.483 4.483 0 0 0 3.988.987z" fill="#f29972"/><path data-name="Path 2774" d="M11872.768 366.895a4.409 4.409 0 0 1-2.559.332c-1.312-.037-2.628-.2-3.831.545a1.559 1.559 0 0 1-1.122.113 4.527 4.527 0 0 1-3.359-4.449c.06-.593.14-1.184.208-1.776a.635.635 0 0 1 .414-.192 1.667 1.667 0 0 1 1.611.908c.4.935 1 1.638 2.126 1.277 1.145-.367 1.147-1.315.982-2.292a1.165 1.165 0 0 1 .075-.641 1.319 1.319 0 0 1 1.531-.079 1.113 1.113 0 0 1 .11.792 1.524 1.524 0 0 0 .869 1.91c.964.375 1.545-.2 1.976-.99.343-.425.21-1.417 1.231-1.05l.038.1.03 4.515c.135.23.2.451-.076.634h.008a1.585 1.585 0 0 1-.262.343z" fill="#f19872"/><path data-name="Path 2775" d="M11902.562 423.151a4.272 4.272 0 0 1-3.266-1.338c1.735.36 3.416 1.012 5.22.745-.512.653-1.423.01-1.954.593z" fill="#638db6"/><path data-name="Path 2776" d="M11942.81 413.34l3.724-1.111c-.926 1.293-2.3 1.385-3.627 1.613-.033-.167-.067-.334-.097-.502z" fill="#ced4e1"/><path data-name="Path 2777" d="M11873.025 366.552l.074-.634a.648.648 0 0 1 .249.687 1.211 1.211 0 0 1-.323-.053z" fill="#363758"/><path data-name="Path 2778" d="M11978.733 367.742c-1.406-.378-1.407-.378-1.249-1.748a11.551 11.551 0 0 0 .154-1.31c0-3.111 3.295-5.719 6.112-5.43a36.056 36.056 0 0 0 5.436-.187c.55-.026 1.108-.042 1.327-.726a6.926 6.926 0 0 1 3.285-3.562 2.751 2.751 0 0 1 4.41 2.336 4.913 4.913 0 0 1-2.635 4.617 7.211 7.211 0 0 1-1.021.4c.613 1.511.363 3.128.862 4.661a4.086 4.086 0 0 1-.64 3 21.232 21.232 0 0 1-4.864 6.372 2 2 0 0 1 .076-2.819 3.327 3.327 0 0 0 .779-2.6c-.045-.388-.132-.782-.6-.871a.881.881 0 0 0-.85.392c-.106.126-.187.271-.284.4-.342.46-.552 1.238-1.323.941-.708-.272-.767-1-.749-1.683.048-2.066.041-2.111-2.058-1.941-1.56.126-2.176-.7-2.324-2.206-.964 2.226-1.614 2.539-3.844 1.964z" fill="#161330"/><path data-name="Path 2779" d="M11978.734 367.742a1.268 1.268 0 0 1 .956-.154c1.418.284 1.905-.066 2.336-1.61.118-.42.273-.829.413-1.247.517.151.447.583.52.932.441 2.149.518 2.2 2.576 1.8.216-.042.426-.121.643-.143 1.068-.111 1.405.192 1.383 1.282-.008.382-.1.763-.142 1.145a1.738 1.738 0 0 0 .446 1.7c.616-.293.65-.985.99-1.451.379-.518.8-.954 1.494-.8s.891.748.963 1.38a2.778 2.778 0 0 1-.6 2.484 2.979 2.979 0 0 0-.8 3.1 25.361 25.361 0 0 0-.3 6.306c-.085 2.836-1.348 3.7-4.2 3.052-2.059-.47-2.58-.874-2.9-2.72.032-.217.061-.433.1-.65.281-1.556.282-2.881-1.479-3.771-1.085-.547-1.412-1.906-1.767-3.07-.145-.471-.236-.959-.352-1.437a7.9 7.9 0 0 1 1.745-2.468 1.615 1.615 0 0 1 1.162.018c.3.186.38.515.513.81.326.708.819 1.2 1.654 1a1.486 1.486 0 0 0 1.073-1.481 1.564 1.564 0 0 0-.967-1.72 1.266 1.266 0 0 0-1.676.593c-.125.179-.229.372-.364.542-.483.28-1.022.018-1.52.152-.724-.613-1.342-1.331-2.016-2a4.894 4.894 0 0 1 .116-1.574z" fill="#f29972"/><path data-name="Path 2780" d="M11978.613 369.323a2.49 2.49 0 0 1 2.008 1.855.289.289 0 0 1 .044.508 3.2 3.2 0 0 1-1.656 2.191c-1.324-.228-2.162-.914-2.31-1.89-.16-1.051.514-1.985 1.914-2.664z" fill="#f3f4f4"/><path data-name="Path 2781" d="M11862.594 361.673l-.489-.012h.016c-.146-.212-.1-.518-.335-.688a2.776 2.776 0 0 1-.339-2.046 2.552 2.552 0 0 1 2.534-2.329c2.129.013 4.26.119 6.39-.019a1.611 1.611 0 0 1 1.8 1.328c.212.791.407 1.585.611 2.377a.441.441 0 0 1 .02.43.944.944 0 0 1-.513.436 1.044 1.044 0 0 1-.671-.038c-.85-.593-1.852-.261-2.768-.447a1.877 1.877 0 0 1-1.525.019c-1.064.3-2.365-.36-3.225.789a1.889 1.889 0 0 1-.625.264 1.22 1.22 0 0 1-.881-.064z" fill="#f19972"/><path data-name="Path 2782" d="M11857.104 362.971a3.643 3.643 0 0 1 1.6-2.2c.61-.35.985-.22 1.013.43.046 1.162.472 2.24.622 3.373.18 1.339-.273 1.724-1.542 1.382a4.683 4.683 0 0 1-1.591-.808 3.659 3.659 0 0 1-.102-2.177z" fill="#ec9570"/><path data-name="Path 2783" d="M11872.674 360.646l.111-.363a.9.9 0 0 1 .246 1.02c-.314.034-.636.054-.646.492a1.052 1.052 0 0 1-.286.853 1.365 1.365 0 0 1-.294-1.754l.6.073a1.373 1.373 0 0 0 .269-.321z" fill="#71524b"/><path data-name="Path 2784" d="M11857.103 362.971l.1 2.18-.033.461a1.618 1.618 0 0 1-.593-1.053c.5-.417 0-1.175.526-1.588z" fill="#2f395b"/><path data-name="Path 2785" d="M11861.785 360.973c.309.133.35.4.336.688-.369-.104-.336-.404-.336-.688z" fill="#f19872"/><path data-name="Path 2786" d="M11872.767 366.895a.362.362 0 0 1 .264-.345.32.32 0 0 1-.264.345z" fill="#363758"/><path data-name="Path 2787" d="M12010.136 497.661a12.383 12.383 0 0 0-3.1-1.856 8.16 8.16 0 0 1-4.276-4.794 53.942 53.942 0 0 1-2.251-9.609 55.583 55.583 0 0 0-4.644-15.081 98.2 98.2 0 0 0-6.591-10.475q-1.015-1.506-2.012-3.026a8.712 8.712 0 0 1-.493-.858c-.126-.246-.229-.524-.012-.766s.511-.167.759-.044a27.451 27.451 0 0 0 4.157 1.6 4.033 4.033 0 0 0 1.288.25c.849-.021 1.107-.344.825-1.145a10.554 10.554 0 0 0-1.5-2.562c-2.018-2.821-4.036-5.639-5.9-8.564-.386-.6-.728-1.232-1.055-1.868-.277-.539-.617-1.139-.182-1.705a1.994 1.994 0 0 1 1.943-.663c.436.054.857.2 1.292.25a1.508 1.508 0 0 0 1.061-.16 5.893 5.893 0 0 0-1.489-2.216c-.368-.477-.86-.865-1.2-1.359-.727-1.038-.531-1.7.646-2.186a22.841 22.841 0 0 1 4.926-1.328 12.666 12.666 0 0 0 3.238-1.064 17.937 17.937 0 0 0-4.325-.628 30.558 30.558 0 0 1 3.019-.71 8.606 8.606 0 0 0 2.286-.915c1.07-.347 1.022.574 1.155 1.115.423 1.713.63 3.469.936 5.207 2.338 13.3 4.977 26.544 7.459 39.819.323 1.732.373 3.493.649 5.227.288 2.956 1.037 5.832 1.528 8.753.559 3.3 1.2 6.589 1.777 9.885a11.574 11.574 0 0 1 .086 1.476z" fill="#4ba3a7"/><path data-name="Path 2788" d="M12006.756 477.548a77.764 77.764 0 0 1-1.59-7.732q-1.784-9.064-3.479-18.149c-1.439-7.675-2.916-15.343-4.17-23.052-.105-.651-.248-1.3-.371-1.945-.062-.326-.309-.426-.59-.49a1.819 1.819 0 0 0 .783-2.237 43.166 43.166 0 0 1-.646-4.384c-.107-.646.371-.719.713-.938 3.059-1.956 6.123-3.9 9.063-6.038.459.376.328.9.328 1.382q.009 31.545 0 63.091a4.675 4.675 0 0 1-.041.492z" fill="#398ac9"/><path data-name="Path 2789" d="M12009.701 501.649a35.168 35.168 0 0 1-6.276 1.7c-.87-.028-1.743 0-2.6-.1-1.3-.145-1.765-.606-2.036-1.909-.21-1-.374-2.016-.559-3.024.345.227.416.631.615.951.839 1.36 1.651 1.661 3.281 1.483 2.062-.225 4.1-.58 6.128-.981 1.717-.34 1.717-.413 1.886-2.117.387 1.396.848 2.793-.439 3.997z" fill="#4ba3a7"/><path data-name="Path 2790" d="M11975.591 418.667a7.791 7.791 0 0 1 6-1.24 10.631 10.631 0 0 1 1.243.441 3.875 3.875 0 0 0 3.772-.149 9.52 9.52 0 0 0 2.706 4.307 7.869 7.869 0 0 0-3.86 2.547 10.546 10.546 0 0 1-5.127 2.511 1.717 1.717 0 0 1-1.9-.665c-1.072-1.357-2.617-2.161-3.87-3.307a4.69 4.69 0 0 0-2.295-.836c-.372-.089-.762-.121-1.123-.239a.532.532 0 0 1-.371-.492c-.011-.277.2-.384.391-.474a4.135 4.135 0 0 1 1.787-.2 17.78 17.78 0 0 0 4.927-.319c.262-.078.545-.094.8-.19s.558-.16.555-.517c0-.3-.224-.483-.425-.67a1.486 1.486 0 0 0-1.088-.28 5.539 5.539 0 0 1-2.122-.228z" fill="#f29972"/><path data-name="Path 2791" d="M11979.642 434.093c0-.651.019-1.3-.006-1.953a4.65 4.65 0 0 0-2.945-4.45c-.334-.145-.766-.121-.987-.5 3.171.482 6.368.713 9.561.973-.687.518-1.575.344-2.326.681-.845.376-1.605.8-1.723 1.811-.206 1.755-.94 3.376-1.243 5.1-.852-.401-.424-1.062-.331-1.662z" fill="#4ca3a7"/><path data-name="Path 2792" d="M11995.66 409.637a5.587 5.587 0 0 1 1.326-4.553c.566-.732 1.272-.5 1.549.43a2.8 2.8 0 0 1-.77 2.7 5.959 5.959 0 0 1-2.105 1.423z" fill="#c7e0f5"/><path data-name="Path 2793" d="M11990.563 427.862a7.669 7.669 0 0 1-3.626.243 10.755 10.755 0 0 1 3.626-.243z" fill="#4ba3a7"/><path data-name="Path 2794" d="M11981.931 448.434c-.977.464-.605 1.647-1.23 2.3a24.69 24.69 0 0 0 .2-5.367 7.234 7.234 0 0 1 1.03 3.067z" fill="#40979c"/><path data-name="Path 2795" d="M11979.642 434.096c.12.553-.205 1.195.329 1.666v2.266c-.029-1.322-1.139-2.568-.329-3.932z" fill="#3f969a"/><path data-name="Path 2796" d="M11857.157 441.429l2.046-.707h1.981a3.358 3.358 0 0 1 3.05 1.91 8.233 8.233 0 0 1 .912 3.478 22.541 22.541 0 0 1-1.951 10.109 81.339 81.339 0 0 1-5.07 10.016 96.976 96.976 0 0 0-4.915 10.451c-.8 1.878-1.726 3.693-2.7 5.484a12.825 12.825 0 0 1-2.529 3.035 3.492 3.492 0 0 1-3.059.886 2.114 2.114 0 0 1-1.624-3.317 16.868 16.868 0 0 1 1.623-2.077 8.65 8.65 0 0 1 1.049-1.053 13.645 13.645 0 0 0 4.629-9.366 27.851 27.851 0 0 1 5.09-13.419 16.763 16.763 0 0 0 3.275-6.428c.54-2.683.5-5.283-1.641-7.381a1.151 1.151 0 0 1-.166-1.621z" fill="#14646d"/><path data-name="Path 2797" d="M11861.788 438.065a33.519 33.519 0 0 0 1.385-7.587c.286-3.008.584-6.012.657-9.034a3.629 3.629 0 0 1 .12-.812c.152-.59.453-.855 1.064-.473 1.306.815 2.65 1.571 3.922 2.434a5.208 5.208 0 0 1 1.836 2.872c.649 1.984 1.286 3.971 1.944 5.954a12.576 12.576 0 0 0 2.662 4.689c-.607-.105-1.014.337-1.515.536a24 24 0 0 1-10.479 1.787 9.792 9.792 0 0 1-1.596-.366z" fill="#b6b6b7"/><path data-name="Path 2798" d="M11890.058 421.879c1.307.206 2.313 1.134 3.6 1.452-1.3.405-2.392 1.379-3.838 1.118q.117-1.284.238-2.57z" fill="#438cc7"/><path data-name="Path 2799" d="M11862.596 361.672a1.209 1.209 0 0 0 .871-.031c.095-.127.233-.214.32-.348 1.283-1.315 1.763-1.4 3.541-.609.152.4.469.711.493 1.192a2.1 2.1 0 0 1-1.627 2.32 1.939 1.939 0 0 1-2.322-1.329 1.436 1.436 0 0 0-1.276-1.195z" fill="#39302d"/><path data-name="Path 2800" d="M11871.803 360.896a5.358 5.358 0 0 1 .3 1.754c-.848 1.259-1.645 1.579-2.639 1.063-1.1-.574-1.3-1.55-.609-3.046 1.032-.554 2.042-.837 2.948.229z" fill="#362e2c"/><path data-name="Path 2801" d="M11981.849 371.236c.615-1.817 1.771-2.352 3-1.391a2.29 2.29 0 0 1 .652 2.547 2.015 2.015 0 0 1-1.847 1.394 2.054 2.054 0 0 1-1.744-1.716 4.213 4.213 0 0 1-.087-.486.388.388 0 0 1 .026-.348z" fill="#f4f3f3"/><path data-name="Path 2802" d="M11981.851 371.236l-.019.347-1.165.1c-.016-.168-.029-.337-.046-.507a.955.955 0 0 1 1.23.06z" fill="#795248"/><path data-name="Path 2803" d="M11863.786 361.294c-.016.2-.1.341-.32.348z" fill="#f19872"/><path data-name="Path 2804" d="M11872.671 360.647a.256.256 0 0 1-.265.322z" fill="#f19872"/></g></g></svg>