<svg xmlns="http://www.w3.org/2000/svg" width="354.01" height="286.731" viewBox="0 0 354.01 286.731"><g data-name="Group 862"><g data-name="Group 597" transform="translate(0 33.317)"><ellipse data-name="Ellipse 47" cx="118.319" cy="118.319" rx="118.319" ry="118.319" transform="translate(27.628 16.776)" fill="#e0e0e0"/><g data-name="Group 596"><path data-name="Path 6911" d="M261.051 0c-1.586 2.729-2 5.7-2.213 8.82a99.567 99.567 0 0 0-.324 12.412c.858 15.453-.083 30.919.445 46.365.754 22.046.214 44.091.347 66.136.13 21.992-.077 43.986.11 65.976.043 4.988.281 9.991.375 14.989a14.434 14.434 0 0 0 .5 2.941 1.514 1.514 0 0 0 1.725 1.25c1.789-.051 3.58-.017 5.371-.013a1.671 1.671 0 0 1 1.4.372 1.4 1.4 0 0 1-1.082.592c-3.167.125-6.339.422-9.492-.2a1.549 1.549 0 0 1-.861-1.385q0-50.078-.005-100.158V5.256c-.009-3.176-.009-3.176-2.941-4.161-.08-1.185.135-1.276 1.826-.763l2.138.023a.543.543 0 0 1 .634 0 .27.27 0 0 1 .247-.009 4.682 4.682 0 0 1 .45-.188z" fill="#bed6ec"/><path data-name="Path 6912" d="M259.698.155c-.149.064-.3.126-.45.188.15-.063.301-.124.45-.188z" fill="#bbcae0"/><path data-name="Path 6913" d="M259.001.352l-.634.006a.642.642 0 0 1 .22-.276c.138.087.276.182.414.27z" fill="#bbcae0"/><path data-name="Path 6914" d="M194.378 218.937a86.659 86.659 0 0 1-15.8-.964 10.615 10.615 0 0 1-7.411-4.261c-1.816-1.287-1.992-3.306-2.255-5.243a10.211 10.211 0 0 0-.5-2.89 9.362 9.362 0 0 1-.467-2.528c-.675-14.019-.485-28.047-.41-42.075-.147-.965.082-1.934-.043-2.9-.049-19.938.012-39.876-.043-59.81.8-1.147 2.51-1.589 3.386-.871.362.294.362.294-.236 1.648a7.379 7.379 0 0 0 6.383-1.624 16.911 16.911 0 0 1 7.014-2.985 33.093 33.093 0 0 0 2.948 2.069c3.065 1.468 6.1 1.743 9.118-.123a4.634 4.634 0 0 0 1.909-1.814 34.623 34.623 0 0 1 6.548-5.3c.891-.551 1.868-1.375 3.045-.48a21.676 21.676 0 0 1-.97 7.345c-.825 3.173-1.879 6.28-2.992 9.358a7.683 7.683 0 0 0-.336 5.193 110.666 110.666 0 0 1-3.331 21.6c-1.841 7.509-3.68 15.024-5.026 22.641a164.115 164.115 0 0 0-2.006 31.007c.3 6.392-.627 12.754-.432 19.14a14.63 14.63 0 0 1-.083 1.477c-.31 2.651.39 4.755 3.066 5.829a7.247 7.247 0 0 1 .62 5.349 1.824 1.824 0 0 1-1.696 1.212z" fill="#398ac9"/><path data-name="Path 6915" d="M115.258 231.422c.962 2.5-.26 4.307-2.014 5.824a23.665 23.665 0 0 1-7.311 4 99.1 99.1 0 0 1-20.174 4.781c-13.22 2.034-26.523 1.931-39.82 1.566a137.913 137.913 0 0 1-15.546-1.5 110.491 110.491 0 0 1-17.163-3.6 31.919 31.919 0 0 1-9.918-4.5c-.287-.213-.6-.391-.877-.617-3.157-2.611-3.232-5.548-.3-8.418 1.086-1.064 2.548-1.593 3.581-2.705 1.911.145 3.126 1.466 4.351 2.69a31.771 31.771 0 0 0 3.424 3.135c.649.483 1.352 1.144 2.253.4.836-1.463-.134-2.589-.73-3.754a12.445 12.445 0 0 1-1.645-3.439 2.279 2.279 0 0 1 .666-2.519c5.436-1.94 11.123-2.734 16.788-3.547a179.519 179.519 0 0 1 28.472-1.767c11.448.192 22.9.86 34.159 3.237a21.526 21.526 0 0 1 2.493.631 2.3 2.3 0 0 1 1.6 1.544 23.5 23.5 0 0 0 2.345 4.206c-.91 2.011-1.472 4.027-.03 6.05a5.3 5.3 0 0 0 3.734.513 40.757 40.757 0 0 0 10.029-2.137 1.679 1.679 0 0 1 1.633-.074z" fill="#aaa"/><path data-name="Path 6916" d="M274.748 239.084c-5.938 3.149-12.348 4.8-18.894 6.1-4.346.861-8.736 1.369-13.114 1.973-1.831.252-3.7.324-5.546.478a205.058 205.058 0 0 1-22.526.438 179.989 179.989 0 0 1-20.054-1.61 102.493 102.493 0 0 1-20.842-4.72c-3.04-1.1-6-2.344-8.35-4.681-2.646-2.632-2.633-4.915.017-7.562a21.049 21.049 0 0 1 7.746-4.469 95.234 95.234 0 0 1 17.641-4.385c.475-.083 1.013-.193 1.364.332-1.135 1.805-3.09 2.429-4.865 3.252-1.619.752-3.232 1.516-4.852 2.26a3.7 3.7 0 0 0-2.476 4.045c.18 1.182 1.032 1.442 2.029 1.446q10.677.061 21.352 0c1.536-.008 2.011-.795 1.7-2.206a55.288 55.288 0 0 0-.909-10.352 1.241 1.241 0 0 1 .585-.516 42.914 42.914 0 0 1 9.4-.172 302.481 302.481 0 0 0 30.833.006 7.932 7.932 0 0 1 1.919.037 2.031 2.031 0 0 1 .685.291.618.618 0 0 1 .225.619.98.98 0 0 1-.78.249.308.308 0 0 1-.233-.116c.278.366 1.236-.009 1.323.831.442 2.388.14 4.8.212 7.191a3.151 3.151 0 0 0 .205 1.6 34.306 34.306 0 0 0 9.627 8.6c3.273 1.894 7.051 1.163 8.913-1.193.724-1.789.049-3.309-.892-4.791-1.746-2.745-3.821-5.267-5.475-8.074a2.863 2.863 0 0 1-.338-.908 1.154 1.154 0 0 1 .142-.638 1.6 1.6 0 0 1 1.627-.168c4.656 1.185 9.25 2.535 13.332 5.193.12.078.242.155.358.239 4.941 3.541 4.981 7.289.118 10.977-.365.228-.859.103-1.207.404z" fill="#aaa"/><path data-name="Path 6917" d="M12.522 207.363c2.448-3.781 4.7-7.685 7.288-11.377.975-1.4 1.877-2.889 3.5-3.678a4.008 4.008 0 0 1 2.729.215 20.554 20.554 0 0 1 7.989 5.258c.779.855 1.518 1.787.766 3.056-2.435 2.791-5.707 4.589-8.4 7.08-2.356 2.11-4.946 3.973-6.894 6.514a38.5 38.5 0 0 0-3.869 4.6A4.267 4.267 0 0 1 10.825 221a3.621 3.621 0 0 1-2.2-2.618 6.734 6.734 0 0 1 .585-4.033c.177-2.126 2.117-5.22 3.312-6.986z" fill="#f29972"/><path data-name="Path 6918" d="M101.109 207.619a20.5 20.5 0 0 0 1.172 6.16c.105 3.086 1.137 6 1.623 9.021.068.423.164.84.245 1.258a1.715 1.715 0 0 1 .093 1.764c-1.381 1.065-2.8 2-4.685 1.375-1.189-.886-1.643-2.248-2.251-3.5a4.678 4.678 0 0 0-.989-1.829 28.829 28.829 0 0 1-4.779-7.8 12.586 12.586 0 0 0-1.333-2.833 8.283 8.283 0 0 0-.684-2.444c-.172-.6-.324-1.216-.521-1.816-.465-1.781-.874-3.571-1.169-5.39a3.978 3.978 0 0 1 1.041-3.714 18.968 18.968 0 0 1 10.541-1.757c2.363 1.228 1.711 3.47 1.829 5.452.045.856-.016 1.713-.007 2.568-.157 1.157.581 2.347-.126 3.485z" fill="#f29972"/><path data-name="Path 6919" d="M204.154 219.214a10.121 10.121 0 0 1 1.394 5.227c.089 1.757.08 3.516.114 5.274a1.666 1.666 0 0 1-1.209.336c-7.859-.258-15.718-.506-23.559.38a2.032 2.032 0 0 1-1.446-.257c-.168-2.059.837-3.247 2.669-4.1a86.029 86.029 0 0 0 10.074-5.1c.972-.419 1.282-1.548 2.189-2.036a3.563 3.563 0 0 1 1.256-.976c2.865.236 5.858-.39 8.518 1.252z" fill="#14646d"/><path data-name="Path 6920" d="M8.634 218.387c1 .5 1.272 1.685 2.179 2.268a3.105 3.105 0 0 0 1.439.16c2.021.074 2.208.364 1.547 2.415a5.462 5.462 0 0 0 .969 4.037c.555.99 1.174 1.949 1.672 2.967a2.05 2.05 0 0 1-.474 2.85 30.537 30.537 0 0 1-10.072-8.84c-.817-1.079-1.993-1.875-2.5-3.187a9.774 9.774 0 0 1 2.538-2.423 2.326 2.326 0 0 1 2.702-.247z" fill="#15646d"/><path data-name="Path 6921" d="M99.556 227.197a27.163 27.163 0 0 0 4.616-1.552.982.982 0 0 1 1-.258c1.868 1 4.057 1.291 5.778 2.613.98.691 2.2.208 3.266.687a13.622 13.622 0 0 1 1.94.771 4.659 4.659 0 0 1-3.073 1.78c-4.477 1.24-8.967 2.5-13.691 2.322-1.557-1.783-.791-3.857-.687-5.834.006-.192.555-.353.851-.529z" fill="#15646d"/><path data-name="Path 6922" d="M99.388 233.563c1-.745 2.208-.493 3.318-.669a56.925 56.925 0 0 0 13.445-3.434c.719 1.12-.4 1.4-.893 1.964a34.317 34.317 0 0 1-12.42 2.814c-1.181.089-2.437.232-3.45-.675z" fill="#d09d06"/><path data-name="Path 6923" d="M3.392 221.058a6.831 6.831 0 0 1 2.454 2.325 34.033 34.033 0 0 0 8.6 8.232 4.3 4.3 0 0 1 1.52 1.471c-.693.816-1.381.439-2.063-.015a17.919 17.919 0 0 1-3.425-2.891 21.529 21.529 0 0 0-4.763-3.922 20.627 20.627 0 0 1-2.212-3.065c-.321-.689-.793-1.388-.111-2.135z" fill="#d19d05"/><path data-name="Path 6924" d="M110.946 227.999c-1.863-.449-3.788-.687-5.35-2-.335-.284-.943-.242-1.424-.353l-.023-1.586c2.356 1.008 4.835 1.738 6.969 3.234.676.472.304.573-.172.705z" fill="#89a2c3"/><path data-name="Path 6925" d="M167.691 24.563c.082-3.719.132-7.436.438-11.147a47.642 47.642 0 0 1 .69-4.876c.733-3.9 2.914-6.243 7.006-6.657a47.911 47.911 0 0 1 3.422-.206c14.672-.406 29.348-.28 44.02-.532Q236.04.922 248.815.82c.787 0 1.574.027 2.36.044a3.876 3.876 0 0 1 .672 2.854q.023 35.583 0 71.167a5.86 5.86 0 0 1-.357 2.526c-.876 1.048-1.2.077-1.474-.489a19.74 19.74 0 0 1-1.356-3.83c-2.594-10.111-9.642-15.241-19.362-17.407a1.1 1.1 0 0 1-.845-.57 15.106 15.106 0 0 1 .3-7.577c1.5-2.352 3.6-4.249 5.068-6.64s2.686-4.743 1.481-7.649a12.321 12.321 0 0 1-.255-2.55 2.309 2.309 0 0 1 1.368-2.779 5.678 5.678 0 0 0 2.949-4.714 3.629 3.629 0 0 0-1.839-3.62c-1.284-.8-2.323-.066-3.345.614a9.18 9.18 0 0 0-3.5 3.693 2.863 2.863 0 0 1-2.366 1.59 41 41 0 0 1-7.7.426c-4.011-.038-7.2 3.783-6.944 8.668.04.741.727 1.022 1.12 1.511a2.682 2.682 0 0 1 .238 1.929 2.22 2.22 0 0 1-.894 1.148c-2.178 1.866-2 3.264.566 4.692a2.988 2.988 0 0 1 .53.361 6.083 6.083 0 0 1 .92 2.143c.469 1.279.909 2.71 2.1 3.4 2.637 1.525 2.5 3.651 1.677 6.048a1.313 1.313 0 0 1-1.211.247c-5.433-.806-9.065 2.156-12.375 5.851-5.135 5.734-8.923 12.416-13.139 18.784-1.979 2.992-4.419 4.566-7.926 4.532a5.779 5.779 0 0 0-2.988 1.014 14.3 14.3 0 0 1-5.418-1c-2.536-.816-4.484.3-6.722 1.59 1.157.955 2.15.334 3.07.37.94.035 1.995 0 2.34 1.066.354 1.108-.536 1.737-1.368 2.13-1.9.891-3.786 1.951-6.031 1.519-.038-8.217.063-16.437-.149-24.651-.32-12.429-.167-24.859-.279-37.289 0-.5-.059-1-.09-1.5a20.121 20.121 0 0 0 .05-3.909z" fill="#398ac9"/><path data-name="Path 6926" d="M77.505 13.719c.992.118 1.991.2 2.973.365 1.246.213 1.55.71 1.154 1.93a9.279 9.279 0 0 1-.834 1.73c-.475.826-.6 1.473.6 1.687a.845.845 0 0 1 .6.559c-.367.7-1.089.563-1.688.719-1.924.5-2.28.91-2.411 2.949-.073 1.139-.082 2.282-.127 3.423a1.553 1.553 0 0 1-.362.984 1.336 1.336 0 0 1-.378-.458c-.2-.466-.377-.94-.568-1.413-1.168-3.714-1.168-3.714-5.017-3.717-1.422 0-2.842-.008-4.263 0-3.539.022-4.4.97-4.108 4.514.1.408.221.808.345 1.209a3.494 3.494 0 0 1 .12.618c-.388 2.562-.053 4.842 2.382 6.354.618.387 1.305.91 1.973.639 2.814-1.14 5.828-.3 8.674-1a3.882 3.882 0 0 1 .614-.161h.32c.09.057.178.114.269.174 1.536 5.574.17 8.468-5.086 10.759-.456.2-.925.372-1.387.557-1.649 1.592-3.2.429-4.619-.32a18.191 18.191 0 0 1-4.524-3.794 20.04 20.04 0 0 1-1.728-1.86 24.931 24.931 0 0 0-2.955-4.569 3.446 3.446 0 0 1-.965-2.049 1.046 1.046 0 0 1 .256-.543c.067-.019.137-.036.205-.051 1.066-.22 2.428 1.373 3.082.055.724-1.463-.274-3.161-.535-4.748-.094-.57-.671-.38-1.031-.1a4.658 4.658 0 0 0-1.359 2.125c-.41.681-.054 1.813-1.208 2.053-1.384-.9-1.317-2.5-1.843-3.819a3.448 3.448 0 0 1-.03-2.3c-.115-2.195-.454-4.374.065-6.583a6.459 6.459 0 0 1 1.795-3.334 13.848 13.848 0 0 1 8.581-3.9 40.228 40.228 0 0 1 9.762.817 7.046 7.046 0 0 0 3.256.499z" fill="#161330"/><path data-name="Path 6927" d="M250.735 77.81c.743-.71.41-1.624.41-2.441q.029-35.858.016-71.717c0-.93.008-1.861.013-2.79l2.921-.1c.93.02 1.858.058 2.787.057.8 0 1.188.36 1.173 1.164-.01.5.005 1 .005 1.505q0 106.2-.017 212.4c0 .881.384 1.886-.491 2.622a1.835 1.835 0 0 1-2.011-1.147c-.335-2.289-.257-4.634-.9-6.885.5-1.7 1.03-3.406.463-5.209a4.461 4.461 0 0 1-.163-.687c-1.2-7.749-2.747-15.432-4.126-23.145a12.386 12.386 0 0 1-.271-2.975c-.172-27.04-.037-54.076-.082-81.114a21.288 21.288 0 0 1 .031-2.137 2.286 2.286 0 0 1 1.137-2.148c2.135-1.744 2.328-3.93 1.527-6.368-.775-2.367-1.541-4.736-2.385-7.079-.208-.585-.531-1.192-.037-1.806z" fill="#f4f5f5"/><path data-name="Path 6928" d="M255.934 217.525l1.614.991.511.819 2.481 3.4a1.52 1.52 0 0 1 .13.4 2.319 2.319 0 0 0 .343.455q2.9 4.233 5.794 8.468a5.166 5.166 0 0 1 .875 4.839c-4.5 1.3-8.739.958-12.57-1.99-2.275-1.75-4.341-3.741-6.527-5.59a6.061 6.061 0 0 1-.8-1.051l-.137-8.077c-.118-.123-.142-.217-.072-.285a.25.25 0 0 1 .177-.084l.068-.092c.267-.342.557-.728 1-.762a15.013 15.013 0 0 0 5.9-1.666 1.223 1.223 0 0 1 1.213.225z" fill="#14646d"/><path data-name="Path 6929" d="M250.734 77.81c.963 2.805 1.937 5.608 2.884 8.42a11.254 11.254 0 0 1 .532 2.046 4.881 4.881 0 0 1-1.809 4.923c-.561.424-1.079.9-1.616 1.357-.175.972-1.039 1.3-1.7 1.82a102.167 102.167 0 0 1-8.766 5.791 2.732 2.732 0 0 0-1.427 3.205c.246 1.263.3 2.562.57 3.815a2.868 2.868 0 0 1-1.429 3.457c-2.126 1.436-4.632 1.608-7.037 2.122a5.822 5.822 0 0 1-1.033.162c-1.526.1-3.075-.174-4.578.3a10.429 10.429 0 0 1-2.2.185c-4.041-.4-8.115-.482-12.1-1.322a11.157 11.157 0 0 1-2.37-.6c-1.259-.5-2.578-.834-3.834-1.347-.792-.325-1.6-.674-1.836-1.633a3.286 3.286 0 0 1-.47-3.58c1.134-3.379 2.32-6.744 3.314-10.172a58.74 58.74 0 0 0 1.484-8.176c.67-.7 1.475-.422 2.221-.249a48.652 48.652 0 0 0 12.556 1.42 3.017 3.017 0 0 1 .43.026c3.7.431 4.636 1.129 2.407 4.433a6.161 6.161 0 0 0-1.077 3.232c-.047 1.351.7 1.948 1.9 1.359a16.166 16.166 0 0 0 5.935-5.472c.589-.834.214-1.814-.156-2.682-.592-1.384-1.208-2.756-1.74-4.166-1.351-3.586-.732-5.738 2.338-8.075 1.705-1.295 3.659-2.3 4.873-4.159.527-.806 1.659-1.787.861-2.593-.68-.689-1.628.477-2.373.951-2.113 1.348-4.176 2.777-6.27 4.155a15.473 15.473 0 0 1-13.314 2.271c-2.548-.728-5.136-1.335-7.618-2.269a3.143 3.143 0 0 0-4.218 1.2c-1.989 2.612-4.572 4.732-6.882 7.084a5.411 5.411 0 0 0-1.8 3.091c-.174 1.36-.784 2.054-2.317 1.732-1.279-.269-1.675.536-1.022 1.49 1.153 1.684 1.966 3.72 4.082 4.557.285.191.527.4.408.8-.568.293-1.124.614-1.705.878-3.142 1.42-8.469.162-10.669-2.516a1.092 1.092 0 0 1-.113-.408 6.819 6.819 0 0 0-1.655-8.791 2.2 2.2 0 0 1 2.323-1.193 13.99 13.99 0 0 0 3.807-.468c1.614-.245 2.55-1.448 3.4-2.724 3.087-4.63 6.207-9.238 9.281-13.878a39.5 39.5 0 0 1 8.771-9.845c2.847-2.176 6.058-3.1 9.631-1.906 1.14 1.652 2.418 2.984 4.651 3.171s3.049-.162 3.882-2.321c.177-.459.245-.973.7-1.284 1.056-.77 2.145-.179 3.066.153A36.2 36.2 0 0 1 242.76 61.5a18.683 18.683 0 0 1 5.25 7.975c1.04 2.724 1.821 5.555 2.724 8.335z" fill="#fefefe"/><path data-name="Path 6930" d="M208.593 113.02l2.167.522c4.677 1.2 6.242 3.753 5.509 8.984-.825 1.639.092 3.3-.177 4.906.379.12.223.162.155-.022-.325-.859.033-1.812-.3-2.687a44.92 44.92 0 0 1 1.553-7.088 3.444 3.444 0 0 1 3.165-2.5c.838-.133 1.721.114 2.513-.324l2.17-.082c1.551-.4 3.163.159 4.709-.315l.9-.076a11.392 11.392 0 0 1 4.033-.1c.594.078 1.459.022 1.5.857.038.746-.733.979-1.323 1.228a19.966 19.966 0 0 1-4.159 1.059 20.534 20.534 0 0 0-4.324 1.266c-1.532.652-1.713 1.331-.674 2.607a27.392 27.392 0 0 1 2.576 3.163c.784 1.32.4 1.965-1.155 2.047a6.422 6.422 0 0 1-1.281-.129c-.859-.126-1.785-.311-2.35.559s-.008 1.678.413 2.4c2.486 4.283 5.458 8.24 8.278 12.3a21.073 21.073 0 0 1 1.645 2.517c.45.893 1.074 1.877.361 2.813-.782 1.026-1.961.651-2.99.372a36.406 36.406 0 0 1-4.067-1.387c-.438-.177-.85-.583-1.415-.292-.12.815.493 1.3.865 1.869a669.496 669.496 0 0 0 6.554 9.842c5.474 8.039 8.4 17.031 10.085 26.512a84.438 84.438 0 0 0 2.569 11.527 11.363 11.363 0 0 0 6.118 7.108c1.291.614 2.628 1.19 3.27 2.623.592 1.864-.278 2.877-2.008 3.258a66.918 66.918 0 0 1-9.056 1.434c-2.55.2-3.8-1.555-4.786-3.564-2.876-6.655-4.566-13.7-6.618-20.616-3.213-10.837-6.312-21.706-10.017-32.387-1.406-4.053-3.582-7.808-4.649-11.991a18.846 18.846 0 0 1-.355-2.3c.483 1.62-.186 3.558-.259 5.52-.9 4.874-2.56 9.542-3.812 14.32-1.609 6.138-2.058 12.423-2.528 18.7-.7 9.34-.881 18.715-1.791 28.045a6.323 6.323 0 0 1-.592 2.272 3.833 3.833 0 0 1-3.991 2.265c-3.055-.109-6.127.269-9.16-.411-3-.671-3.547-1.2-4.006-4.094-.058-6.591.325-13.171.454-19.757a3.66 3.66 0 0 1 1.986-3.076c6.389-3.972 9.906-10.049 11.865-17.031 1.272-4.53.646-9.229-.018-13.848a682.386 682.386 0 0 0-1.428-9.335c-.591-3.727.229-6.928 3.138-9.52a35.187 35.187 0 0 0 3.907-3.98c1.216-1.486 1.049-2.287-.617-3.231a9.769 9.769 0 0 1-2.758-2.01c-1.122-1.31-.95-2.011.62-2.8.9-.448 2.5-.356 2.334-1.75-.149-1.254-1.657-1.407-2.7-1.826a28.363 28.363 0 0 1-4.006-1.522c-.808-.48-1.659-1.11-1.331-2.2s1.386-1.144 2.327-1.08a16.416 16.416 0 0 1 2.962.436z" fill="#14646d"/><path data-name="Path 6931" d="M208.593 113.019c-1.286.021-2.571.026-3.857.073-.519.019-1.013.19-1.135.787-.1.489.3.76.579 1.077a4.527 4.527 0 0 0 2.093 1.03 35.123 35.123 0 0 1 4.626 1.688c.7.369 1.539.722 1.5 1.637-.04.994-.934 1.38-1.73 1.709-.587.244-1.244.321-1.835.557-1.059.424-1.112.679-.392 1.509a9.33 9.33 0 0 0 3.1 2.256c2.129 1.023 2.359 2.115.82 3.927-.739.871-1.595 1.643-2.4 2.454-.607.606-1.189 1.246-1.843 1.8-2.906 2.453-3.327 5.606-2.81 9.142.885 6.06 2.225 12.063 2.071 18.254a19.96 19.96 0 0 1-1.35 7.321c-1.912 4.578-4.1 8.977-7.918 12.353a24.813 24.813 0 0 1-3.455 2.525 5.2 5.2 0 0 0-2.337 2.658 200.82 200.82 0 0 1 .648-20.794c.694-9.172 2.875-18.05 4.936-26.961 1.451-6.264 3.15-12.475 3.979-18.868.283-2.2.427-4.409.654-6.611.07-.692-.151-1.454.448-2.031 1.656 1.307 3.769 1.603 5.608 2.508z" fill="#4ba3a7"/><path data-name="Path 6932" d="M196.101 96.294a2.33 2.33 0 0 1-2.3-1.288 35.948 35.948 0 0 0-2.234-3.144 2.7 2.7 0 0 1-.479-.957c-.4-1.318.347-2.1 1.7-1.8 1.746.393 1.762.394 2.037-1.405a4.52 4.52 0 0 1 1.47-2.553q3.282-3.254 6.55-6.523a4.231 4.231 0 0 0 1.426-1.846c.275-1.12 1.128-1.208 2.017-1.089a10.516 10.516 0 0 1 2.069.53c2.493.889 5.054 1.541 7.59 2.275a14.742 14.742 0 0 0 12.864-2.137c2.436-1.631 4.886-3.241 7.335-4.85a7.178 7.178 0 0 1 1.484-.846c.956-.333 1.5.219 1.217 1.237a9.309 9.309 0 0 1-3.222 4.674c-1.374 1.145-2.959 1.986-4.3 3.19a4.752 4.752 0 0 0-1.333 5.639c.564 1.543 1.212 3.058 1.867 4.563 1.173 2.691 1.1 3.252-.947 5.306a21.049 21.049 0 0 1-4.164 3.7 6.136 6.136 0 0 1-1.536.731c-1.267.306-1.891-.2-2-1.5a7.085 7.085 0 0 1 .91-3.7c.279-.576.655-1.1.985-1.657.972-1.623.866-1.781-1.07-2.237a8.62 8.62 0 0 0-2.328-.3 45.944 45.944 0 0 1-12.7-1.536 7.331 7.331 0 0 0-1.7-.183c-3.681 1.191-6.293 3.892-9.042 6.4a5.469 5.469 0 0 1-2.166 1.306z" fill="#d8d8d8"/><path data-name="Path 6933" d="M182.384 85.887c.415.1.825.234 1.247.311a1.95 1.95 0 0 1 1.666 2.147c.063 1.644.115 3.29.287 4.924.136 1.284-1.115.854-1.546 1.409-1.316.539-2.613 1.125-3.951 1.6a9.5 9.5 0 0 0-3.275 1.971c-2.089 1.919-4.6 1.619-7.087 1.447a.747.747 0 0 1-.5-.324c-.188-.312.07-.506.292-.687.372-.3.964-.3 1.219-.938h-2.892c-.377-.149-.9-.251-.815-.764.09-.544.67-.629 1.119-.795 1.3-.911 2.955-.816 4.231-1.654-1.379.489-2.748 1.344-4.358 1a6.292 6.292 0 0 1-2.912-.5c-.812-.451-.893-.9-.11-1.4 1.014-.648 2.111-1.165 3.171-1.739 1.361-.406 2.735-.768 4.076-1.227a15.743 15.743 0 0 0 2.316-1.079c.42-.227.96-.5.825-1.109-.155-.7-.8-.73-1.367-.736a16.244 16.244 0 0 0-1.7.108 8.272 8.272 0 0 1-1.261.178c-.7-.042-1.6-.1-1.762-.892-.145-.71.657-1.015 1.231-1.27 1.169-.513 2.348-1.017 3.548-1.455a3.852 3.852 0 0 1 2.5.155 29.854 29.854 0 0 0 5.808 1.319z" fill="#f29972"/><path data-name="Path 6934" d="M182.689 121.703a6.016 6.016 0 0 1-6.315-5.884c-.034-3.127 2.925-5.652 6.26-5.792 3.092-.13 6.227 3.062 6.183 5.9-.048 3.063-2.916 6.16-6.128 5.776z" fill="#92a8cb"/><path data-name="Path 6935" d="M204.154 219.213a2.457 2.457 0 0 0-1.637-.274 17.747 17.747 0 0 1-6.881-.977 23.573 23.573 0 0 0-.276-5.46c.01-.069 0-.157.033-.208 1.72-2.41 8.407-2.414 10.133-.011.27 2.4.678 4.832-1.264 6.828z" fill="#f19972"/><path data-name="Path 6936" d="M205.169 212.487a1.917 1.917 0 0 0-1.9-1.376 45.009 45.009 0 0 0-6.518.49 2.57 2.57 0 0 0-1.391.9c-2.777-.631-3.477-1.444-3.55-4.2-.025-.923.035-1.848.055-2.772.509 2.243 2.007 3.132 4.208 3.517 3.346.58 6.689.286 10.033.39 1.319.042 1.8-.966 2.488-1.749a3.6 3.6 0 0 1-.392 4.486 2.077 2.077 0 0 1-3.033.314z" fill="#4ba3a7"/><path data-name="Path 6937" d="M196.102 96.294a4.705 4.705 0 0 1 2.167-1.311 3.913 3.913 0 0 1-1.741 1.738z" fill="#eaf0f6"/><path data-name="Path 6938" d="M205.17 212.489c3.06-.119 3.187-.235 3.405-3.3.035-.5.012-1 .017-1.494a106.791 106.791 0 0 0 1.132-11.963c.411-5.784.662-11.58.965-17.369a105.544 105.544 0 0 1 4.923-28.019c.676-2.029 1.1-4.144 1.637-6.218.516-1.005-.155-2.646 1.6-2.987 1.75 5.532 4.437 10.693 6.242 16.216 3.955 12.1 7.329 24.38 10.978 36.576 1.21 4.042 2.435 8.081 3.949 12.021a2.677 2.677 0 0 1 .195.6c.824 3.192 1.979 6.018 6.145 5.484.266-.034.517.209.723.418.743 2.24 1.971 4.436.632 6.864-9.991.757-20 .487-29.993.283-4.475-.1-8.984.013-13.458-.493a16.6 16.6 0 0 0 .908-6.619z" fill="#398ac9"/><path data-name="Path 6939" d="M179.447 230.175a27.068 27.068 0 0 1 7.413-.891c4.781-.1 9.566-.052 14.348-.076a17.418 17.418 0 0 1 4.454.507 3.608 3.608 0 0 1 .36 1.447 1.223 1.223 0 0 1-1.234 1.432c-.57.057-1.146.068-1.718.068q-10.638-.011-21.276-.032c-.144 0-.287 0-.43-.007-2.154-.069-2.216-.15-1.917-2.448z" fill="#d59e01"/><path data-name="Path 6940" d="M247.711 219.314c.338-2.367-.684-4.546-.942-6.831a17.505 17.505 0 0 1 8.156-2.212 15.083 15.083 0 0 1 1.012 7.25 3.724 3.724 0 0 0-2.153.746 4.87 4.87 0 0 1-3.905 1.131 6.353 6.353 0 0 0-2.056.329c-.034-.133-.072-.27-.112-.413z" fill="#f29972"/><path data-name="Path 6941" d="M248.605 228.716c1.851 1.555 3.759 3.044 5.54 4.678a13.354 13.354 0 0 0 10.981 3.612c.846-.095 1.7-.074 2.558-.108-.65 1.833-2.281 2.3-3.893 2.55a9.263 9.263 0 0 1-6.942-1.481 89.679 89.679 0 0 1-8.167-7.2 1.683 1.683 0 0 1-.57-1.121c-.207-.504-.307-.956.493-.93z" fill="#d49e03"/><path data-name="Path 6942" d="M247.756 219.824a.941.941 0 0 1-.105.369l-1.434-.087a1.634 1.634 0 0 1 1.539-.282z" fill="#6590ba"/><path data-name="Path 6943" d="M248.608 228.718c-.382.2-.427.568-.494.93a1.391 1.391 0 0 1-.325-1.378c.326.048.657.097.819.448z" fill="#a89b2b"/><path data-name="Path 6944" d="M261.016 223.593a.5.5 0 0 1-.343-.456c.118.152.23.303.343.456z" fill="#39619a"/><path data-name="Path 6945" d="M23.237 192.645c.227-.432.78-.6.839-1.191.322-3.209 2.24-5.656 4-8.159 2.46-3.49 5.281-6.711 7.471-10.41a34.907 34.907 0 0 0 4.986-14.844c.367-4.006.174-7.986.325-11.977.128-3.341.4-6.667.842-9.982.182-1.348 1.024-2.533.9-3.944.62-.759 1.472-.479 2.176-.337 3.332.679 6.637.189 9.949-.1a4.655 4.655 0 0 1 1.687-.008c1.946 3.207 4.074 6.288 3.529 10.423a21.116 21.116 0 0 1-3.682 8.836c-2.438 3.723-4.886 7.409-6.085 11.786a53.665 53.665 0 0 0-1.417 7.159c-.635 4.8-2.411 8.959-6.175 12.157a16.551 16.551 0 0 0-2.928 3.421 2.532 2.532 0 0 0-.387 2.815c.617 1.1 1.693 1.2 2.806 1.168a4.439 4.439 0 0 0 2.81-1.414c2.676-2.361 4.139-5.538 5.392-8.7 3.415-8.625 8.148-16.578 12.24-24.858 2.458-4.972 4.392-10.133 4.04-15.86a12.992 12.992 0 0 0-.682-3.79 4.307 4.307 0 0 0-4.167-3.136 3.82 3.82 0 0 1-2.286-.417c.7-1.766 2.176-2.822 3.588-3.938a29.981 29.981 0 0 0 15.742-2.341 2.657 2.657 0 0 1 1.251-.252 9.46 9.46 0 0 1 4.754 3.728c2.989 6.4 5.788 12.9 8.884 19.256a60.227 60.227 0 0 1 4.831 15.681 140.68 140.68 0 0 1 1.838 15.017 119.891 119.891 0 0 0 1.141 12.735 11.121 11.121 0 0 1 .052 1.929c.007 2.473 0 2.473-2.145 3.413a31.273 31.273 0 0 0-10.342 1.674c-5.812 1.2-7.061.253-7.861-5.692-.876-6.509-1.124-13.138-3.453-19.387a119.957 119.957 0 0 0-6.682-15.57c-.62-1.142-1.119-2.815-2.74-2.657-1.486.145-1.673 1.8-2.129 2.962-2.885 7.324-5.57 14.726-9.285 21.7a86.765 86.765 0 0 1-14.463 19.64c-2.9 2.983-5.256 3.367-7.932 1.625a1.668 1.668 0 0 0-.194-1.986 18.471 18.471 0 0 0-10.183-6.195 3.434 3.434 0 0 0-.855.02z" fill="#4ba3a7"/><path data-name="Path 6946" d="M56.737 132.034c-1.331.155-2.671.27-3.995.474a35.129 35.129 0 0 1-10.148-.369 17.047 17.047 0 0 1-3.809-1.417 5.969 5.969 0 0 1-3.135-5.055 16.747 16.747 0 0 1 1.086-6.516c.959-2.845 2.079-5.641 2.785-8.564a47.533 47.533 0 0 0 1.067-11.085 168.87 168.87 0 0 0-1.292-19.047 109.664 109.664 0 0 1-1.04-13.258c.083-7.938 4.139-13.735 11.629-16.561a3.471 3.471 0 0 0 1.53-.734c1.387-.98 2.6-.281 3.732.479a8.5 8.5 0 0 1 2.5 2.613c2.049 3.338 5.174 5.22 8.7 6.573 2.05.785 3.475.094 4.174-1.974a6.1 6.1 0 0 0 .116-3.168 26.962 26.962 0 0 1-.2-5.971c.02-.713-.117-1.668 1.049-1.768a3.922 3.922 0 0 1 2.344 1.4 60.925 60.925 0 0 1 5.2 5.714c2.608 3.312 3.668 7.226 4.409 11.267a52.2 52.2 0 0 1 .934 11.315 13.742 13.742 0 0 0 4.354 10.788c1.688 1.656 3.4 3.28 5.213 4.792a23.633 23.633 0 0 0 9.566 4.655 5.755 5.755 0 0 1 2.387.872c-.809 1.119-2.111 1.084-3.255 1.268-1.811.289-2.761 1.075-2.761 3.047 0 1.612-.548 3.217-.036 4.84a7.3 7.3 0 0 1-.125 3.065c-2.633.161-3.27 2.557-4.617 4.156a2.545 2.545 0 0 1-1.429.877 15.7 15.7 0 0 1-4.229-1.993c-1.359-.781-2.673-1.638-4.035-2.413-.777-.442-1.7-1.4-2.456-.833-.88.663.082 1.684.33 2.524a23.146 23.146 0 0 0 .875 2.178 52.362 52.362 0 0 1 2.93 9.141 16.363 16.363 0 0 1 .363 3.605c-.023 1.684-.416 1.963-2.067 1.644l-.629-.118a28.546 28.546 0 0 1-4.333-3.359 6.066 6.066 0 0 1-2.906-3.286 47.785 47.785 0 0 1-3.173-9.318c-.967-3.84-3.932-5.447-6.95-7.074-1.353-.729-1.379.5-1.408 1.323-.136 4-.519 7.978-.906 11.954a56.151 56.151 0 0 1-.958 6.353 3.868 3.868 0 0 1-1.358 2.592 8.173 8.173 0 0 1-3.361 3.453 2.381 2.381 0 0 1-2.662.919z" fill="#fefefe"/><path data-name="Path 6947" d="M93.666 114.745c1.314-1.648 2.888-3.131 3.257-5.341.912-.209 1.461.665 2.252.571 1.486-.583 2.9-1.4 4.237-1.389.623.08.261-.442.348-.169.224.707-2.768-.539-4.275-1.781a1.692 1.692 0 0 1-.544-1.535c.146-1.692.269-3.389.419-5.081.094-1.051.854-1.373 1.746-1.549 1.6-.318 3.19-.651 4.784-.979a5.862 5.862 0 0 0 1.037-.242c2.739-1.192 4.981.248 7.281 1.361a.918.918 0 0 1 .6 1.031c-.116.513-.587.6-1.012.6-.927.012-1.856-.042-2.783-.046a7.584 7.584 0 0 0-1.491.085 1.011 1.011 0 0 0-.64.489.715.715 0 0 0 .387.9 14.059 14.059 0 0 0 3.907 1.723 21.654 21.654 0 0 1 5.188 1.977c1.61.892 1.595 1.122-.093 2.146-1.735.249-3.477.617-5.15-.284a27.117 27.117 0 0 1 2.61 1.055c.138.04.279.07.414.118.4.146.853.284.79.838-.048.44-.477.54-.8.6-.752.139-1.52.191-2.3.281.19.682 1.062.54 1.214 1.167-.043.219-.134.418-.373.446-2.137.241-4.283.53-6.281-.632a1.172 1.172 0 0 0-1.4.047 1.108 1.108 0 0 0-.558.873c.028.378.388.562.763.639 1.959.4 3.9.962 5.937.615a9.305 9.305 0 0 1 3.611.321.557.557 0 0 1 .489.595.764.764 0 0 1-.367.487 3.959 3.959 0 0 1-1.848.51 4.369 4.369 0 0 0-2.931 1.166c-1.541 1.381-3.4 2.385-4.708 4.043a2.13 2.13 0 0 1-2.306.773 13.036 13.036 0 0 1-6.975-3.562 9.526 9.526 0 0 0-4.436-2.867z" fill="#f29972"/><path data-name="Path 6948" d="M71.485 46.687a2.659 2.659 0 0 0-.568 2.2 35.084 35.084 0 0 0 .344 5.751 6.625 6.625 0 0 1-.334 3.785 3.1 3.1 0 0 1-4.156 1.938c-3.8-1.4-7.266-3.3-9.5-6.888-1.345-2.162-3.065-3.758-5.856-3.573a6.452 6.452 0 0 1 .862-1.2 45.022 45.022 0 0 0 8.4-8.943 59.343 59.343 0 0 0 5.445 5.1 5.828 5.828 0 0 0 5.183 1.282z" fill="#f29972"/><path data-name="Path 6949" d="M77.022 35.203a5.749 5.749 0 0 1-3.325.433c-1.7-.05-3.412-.257-4.976.706a2.024 2.024 0 0 1-1.455.146 5.882 5.882 0 0 1-4.365-5.778c.075-.771.178-1.54.268-2.309a.826.826 0 0 1 .539-.248 2.166 2.166 0 0 1 2.094 1.179c.524 1.214 1.3 2.127 2.763 1.658 1.486-.478 1.489-1.709 1.274-2.979a1.509 1.509 0 0 1 .1-.834 1.713 1.713 0 0 1 1.987-.1 1.456 1.456 0 0 1 .145 1.03 1.98 1.98 0 0 0 1.127 2.48c1.252.487 2.008-.261 2.567-1.286.449-.552.277-1.841 1.6-1.364l.051.128.038 5.865c.178.3.258.588-.1.824h.009a1.972 1.972 0 0 1-.341.449z" fill="#f19872"/><path data-name="Path 6950" d="M115.729 108.29c-1.579-.136-3.123-.362-4.243-1.737 2.254.469 4.439 1.314 6.783.967-.666.845-1.845.009-2.54.77z" fill="#638db6"/><path data-name="Path 6951" d="M168.021 95.542l4.837-1.443c-1.2 1.679-2.993 1.8-4.711 2.094q-.065-.322-.126-.651z" fill="#ced4e1"/><path data-name="Path 6952" d="M77.356 34.753l.095-.823a.84.84 0 0 1 .324.893 1.584 1.584 0 0 1-.419-.07z" fill="#363758"/><path data-name="Path 6953" d="M214.699 36.303c-1.829-.493-1.829-.493-1.623-2.272a15.627 15.627 0 0 0 .2-1.7c0-4.04 4.279-7.431 7.941-7.052a46.88 46.88 0 0 0 7.063-.246c.714-.033 1.439-.055 1.723-.944.7-2.2 2.466-3.466 4.269-4.625a3.573 3.573 0 0 1 5.73 3.034 6.386 6.386 0 0 1-3.424 6 9.311 9.311 0 0 1-1.324.52c.8 1.962.469 4.063 1.118 6.056.437 1.341-.235 2.681-.831 3.9a27.662 27.662 0 0 1-6.319 8.28 2.6 2.6 0 0 1 .1-3.667 4.31 4.31 0 0 0 1.012-3.381c-.057-.5-.17-1.018-.782-1.132a1.151 1.151 0 0 0-1.106.51c-.138.16-.242.352-.369.522-.445.6-.717 1.609-1.719 1.225-.918-.357-.993-1.295-.973-2.187.063-2.685.055-2.744-2.672-2.523-2.026.164-2.827-.91-3.02-2.867-1.256 2.891-2.101 3.291-4.994 2.549z" fill="#161330"/><path data-name="Path 6954" d="M214.694 36.302a1.639 1.639 0 0 1 1.241-.2c1.843.368 2.478-.085 3.037-2.095.153-.544.355-1.074.535-1.618.674.2.584.757.677 1.211.574 2.791.672 2.861 3.345 2.339.281-.055.553-.159.835-.187 1.389-.145 1.826.251 1.8 1.666-.011.5-.125.991-.184 1.487a2.255 2.255 0 0 0 .578 2.215c.8-.379.847-1.28 1.289-1.884.493-.673 1.033-1.24 1.94-1.037.924.208 1.157.971 1.252 1.792a3.615 3.615 0 0 1-.785 3.229c-1.308 1.178-1.312 2.526-1.034 4.026a32.888 32.888 0 0 0-.4 8.193c-.112 3.683-1.751 4.811-5.454 3.966-2.675-.611-3.352-1.136-3.772-3.535.042-.282.077-.565.129-.842.364-2.022.365-3.745-1.923-4.9-1.407-.712-1.834-2.477-2.3-3.989-.187-.612-.3-1.245-.455-1.869a10.254 10.254 0 0 1 2.268-3.2 2.081 2.081 0 0 1 1.51.021c.4.24.493.668.669 1.051.42.921 1.062 1.567 2.144 1.3a1.928 1.928 0 0 0 1.4-1.927 2.027 2.027 0 0 0-1.256-2.232 1.648 1.648 0 0 0-2.178.768c-.16.234-.3.484-.474.7-.627.363-1.325.023-1.973.2-.939-.8-1.746-1.729-2.619-2.594a6.387 6.387 0 0 1 .158-2.055z" fill="#f29972"/><path data-name="Path 6955" d="M214.536 38.354a3.234 3.234 0 0 1 2.607 2.41.376.376 0 0 1 .058.66 4.161 4.161 0 0 1-2.151 2.848c-1.721-.3-2.808-1.187-3-2.457-.209-1.365.663-2.577 2.486-3.461z" fill="#f3f4f4"/><path data-name="Path 6956" d="M63.805 28.415l-.635-.015h.022c-.192-.274-.135-.67-.437-.893a3.6 3.6 0 0 1-.438-2.66 3.313 3.313 0 0 1 3.29-3.024c2.768.017 5.534.153 8.3-.026a2.091 2.091 0 0 1 2.34 1.727c.276 1.026.531 2.059.8 3.087a.57.57 0 0 1 .025.559 1.242 1.242 0 0 1-.665.568 1.386 1.386 0 0 1-.872-.05c-1.1-.773-2.405-.34-3.6-.583a2.428 2.428 0 0 1-1.981.026c-1.384.395-3.076-.47-4.192 1.027a2.452 2.452 0 0 1-.811.338 1.578 1.578 0 0 1-1.146-.081z" fill="#f19972"/><path data-name="Path 6957" d="M56.672 30.1a4.728 4.728 0 0 1 2.074-2.853c.793-.454 1.281-.284 1.314.56.06 1.509.614 2.91.81 4.381.232 1.74-.355 2.24-2 1.793a6.039 6.039 0 0 1-2.067-1.048 4.746 4.746 0 0 1-.131-2.833z" fill="#ec9570"/><path data-name="Path 6958" d="M76.9 27.083l.145-.472a1.163 1.163 0 0 1 .318 1.327c-.408.044-.825.069-.839.639a1.373 1.373 0 0 1-.372 1.108 1.772 1.772 0 0 1-.384-2.278l.784.094a1.735 1.735 0 0 0 .348-.418z" fill="#71524b"/><path data-name="Path 6959" d="M56.672 30.101l.129 2.833-.043.6a2.1 2.1 0 0 1-.771-1.369c.653-.545 0-1.527.685-2.064z" fill="#2f395b"/><path data-name="Path 6960" d="M62.758 27.506a.794.794 0 0 1 .437.895c-.482-.135-.442-.524-.437-.895z" fill="#f19872"/><path data-name="Path 6961" d="M77.021 35.202a.474.474 0 0 1 .344-.45.414.414 0 0 1-.344.45z" fill="#363758"/><path data-name="Path 6962" d="M255.492 205.093a16.107 16.107 0 0 0-4.02-2.414 10.6 10.6 0 0 1-5.557-6.228c-1.536-4.033-2.151-8.276-2.925-12.483-1.246-6.769-2.928-13.417-6.033-19.592-2.413-4.8-5.57-9.16-8.563-13.61q-1.318-1.958-2.613-3.931a11.6 11.6 0 0 1-.642-1.115c-.163-.321-.3-.683-.016-1a.765.765 0 0 1 .988-.056 35.888 35.888 0 0 0 5.4 2.076 5.3 5.3 0 0 0 1.675.323c1.1-.026 1.438-.446 1.071-1.487a13.712 13.712 0 0 0-1.942-3.329c-2.622-3.664-5.244-7.326-7.664-11.126-.5-.783-.947-1.6-1.371-2.426-.359-.7-.8-1.48-.235-2.216a2.59 2.59 0 0 1 2.526-.861c.563.07 1.114.255 1.677.325a1.948 1.948 0 0 0 1.375-.206c-.26-1.2-1.224-1.966-1.931-2.88-.48-.62-1.119-1.124-1.566-1.764-.942-1.35-.687-2.207.843-2.84a29.633 29.633 0 0 1 6.4-1.724 16.515 16.515 0 0 0 4.208-1.383 23.148 23.148 0 0 0-5.62-.817c1.25-.549 2.641-.5 3.922-.922a11.167 11.167 0 0 0 2.971-1.187c1.389-.451 1.327.745 1.5 1.448.547 2.225.819 4.507 1.215 6.764 3.035 17.28 6.466 34.488 9.689 51.732.42 2.251.485 4.538.844 6.792.375 3.84 1.347 7.577 1.988 11.374.722 4.289 1.553 8.559 2.308 12.841a15.023 15.023 0 0 1 .098 1.922z" fill="#4ba3a7"/><path data-name="Path 6963" d="M251.1 178.961a101.78 101.78 0 0 1-2.066-10.045q-2.317-11.777-4.516-23.579c-1.875-9.971-3.789-19.935-5.42-29.948-.136-.847-.322-1.686-.483-2.528-.08-.424-.4-.552-.764-.635a2.366 2.366 0 0 0 1.015-2.909 56.676 56.676 0 0 1-.839-5.694c-.138-.841.482-.934.927-1.22 3.973-2.541 7.954-5.069 11.77-7.846.6.489.43 1.172.43 1.8q.011 40.986.005 81.969a6.422 6.422 0 0 1-.059.635z" fill="#398ac9"/><path data-name="Path 6964" d="M254.922 210.275a45.663 45.663 0 0 1-8.156 2.211c-1.127-.035-2.263 0-3.38-.126-1.686-.187-2.292-.787-2.646-2.478-.271-1.3-.485-2.62-.725-3.931.447.3.54.818.8 1.235 1.09 1.767 2.143 2.158 4.266 1.926 2.676-.293 5.324-.752 7.959-1.271 2.229-.443 2.231-.538 2.45-2.751.511 1.806 1.107 3.619-.568 5.185z" fill="#4ba3a7"/><path data-name="Path 6965" d="M210.61 102.464c2.69-1.571 5.095-2.258 7.79-1.61a13.668 13.668 0 0 1 1.616.57c2 .763 2.773.748 4.9-.194.477 2.159 1.848 3.788 3.517 5.593a10.243 10.243 0 0 0-5.018 3.311c-1.809 1.845-4.22 2.627-6.66 3.263a2.235 2.235 0 0 1-2.475-.865c-1.39-1.764-3.4-2.807-5.026-4.3a6.129 6.129 0 0 0-2.984-1.086c-.483-.115-.987-.158-1.457-.309a.69.69 0 0 1-.483-.639c-.015-.359.26-.5.507-.616a5.384 5.384 0 0 1 2.324-.26c2.139-.034 4.3.211 6.4-.416.34-.1.707-.122 1.037-.247.314-.119.725-.207.72-.67 0-.393-.29-.627-.55-.872a1.94 1.94 0 0 0-1.414-.363 7.2 7.2 0 0 1-2.744-.29z" fill="#f29972"/><path data-name="Path 6966" d="M215.874 122.51c0-.846.025-1.692-.007-2.536a6.04 6.04 0 0 0-3.826-5.782c-.437-.19-1-.157-1.284-.649 4.121.626 8.273.926 12.421 1.264-.894.674-2.046.447-3.022.884-1.1.491-2.084 1.042-2.238 2.353-.266 2.279-1.22 4.387-1.614 6.63-1.107-.53-.55-1.39-.43-2.164z" fill="#4ca3a7"/><path data-name="Path 6967" d="M236.685 90.731a7.235 7.235 0 0 1 1.723-5.912c.733-.954 1.652-.648 2.008.557a3.634 3.634 0 0 1-1 3.513 7.756 7.756 0 0 1-2.731 1.842z" fill="#c7e0f5"/><path data-name="Path 6968" d="M230.056 114.409a9.973 9.973 0 0 1-4.709.315 13.894 13.894 0 0 1 4.709-.315z" fill="#4ba3a7"/><path data-name="Path 6969" d="M218.848 141.141c-1.269.6-.788 2.139-1.6 2.987.135-2.163.61-4.3.26-6.975a9.391 9.391 0 0 1 1.34 3.988z" fill="#40979c"/><path data-name="Path 6970" d="M215.874 122.509c.155.719-.264 1.551.43 2.164v2.944c-.04-1.718-1.483-3.337-.43-5.108z" fill="#3f969a"/><path data-name="Path 6971" d="M56.738 132.036l2.658-.919c.859 0 1.716-.007 2.575 0a4.36 4.36 0 0 1 3.962 2.48 10.632 10.632 0 0 1 1.184 4.52 29.232 29.232 0 0 1-2.535 13.133 105.627 105.627 0 0 1-6.585 13.012 126.173 126.173 0 0 0-6.386 13.578c-1.042 2.439-2.243 4.8-3.508 7.125a16.608 16.608 0 0 1-3.285 3.942 4.541 4.541 0 0 1-3.975 1.151 2.748 2.748 0 0 1-2.11-4.311 21.815 21.815 0 0 1 2.108-2.7 11.163 11.163 0 0 1 1.364-1.367c3.779-3.184 5.452-7.362 6.015-12.167a36.154 36.154 0 0 1 6.613-17.437c1.847-2.537 3.617-5.188 4.255-8.349.7-3.489.647-6.864-2.131-9.589a1.492 1.492 0 0 1-.219-2.102z" fill="#14646d"/><path data-name="Path 6972" d="M62.76 127.664a43.445 43.445 0 0 0 1.8-9.859c.372-3.907.757-7.809.852-11.736a4.708 4.708 0 0 1 .157-1.054c.2-.767.589-1.112 1.382-.615 1.7 1.061 3.444 2.04 5.095 3.164a6.746 6.746 0 0 1 2.386 3.729c.844 2.579 1.672 5.163 2.527 7.737a16.328 16.328 0 0 0 3.46 6.091c-.791-.136-1.319.438-1.97.7a31.186 31.186 0 0 1-13.612 2.321 12.877 12.877 0 0 1-2.077-.478z" fill="#b6b6b7"/><path data-name="Path 6973" d="M99.486 106.636c1.7.269 3.006 1.474 4.679 1.886-1.691.527-3.108 1.791-4.987 1.452q.152-1.67.308-3.338z" fill="#438cc7"/><path data-name="Path 6974" d="M63.805 28.416a1.584 1.584 0 0 0 1.132-.038c.122-.167.3-.279.417-.455 1.666-1.708 2.289-1.814 4.6-.789.2.521.609.923.643 1.547a2.733 2.733 0 0 1-2.12 3.015 2.523 2.523 0 0 1-3.015-1.728 1.861 1.861 0 0 0-1.657-1.552z" fill="#39302d"/><path data-name="Path 6975" d="M75.768 27.405a6.907 6.907 0 0 1 .383 2.279c-1.1 1.634-2.134 2.053-3.424 1.381-1.434-.745-1.688-2.014-.791-3.959 1.341-.717 2.655-1.085 3.832.299z" fill="#362e2c"/><path data-name="Path 6976" d="M218.742 40.841c.8-2.36 2.3-3.056 3.906-1.806a2.975 2.975 0 0 1 .845 3.307 2.615 2.615 0 0 1-2.4 1.811 2.673 2.673 0 0 1-2.267-2.228 6.164 6.164 0 0 1-.112-.633.5.5 0 0 1 .028-.451z" fill="#f4f3f3"/><path data-name="Path 6977" d="M218.742 40.84l-.027.453-1.514.13-.059-.659a1.247 1.247 0 0 1 1.6.076z" fill="#795248"/><path data-name="Path 6978" d="M65.355 27.924c-.02.261-.125.444-.417.455z" fill="#f19872"/><path data-name="Path 6979" d="M76.899 27.083a.331.331 0 0 1-.347.416z" fill="#f19872"/></g></g><path data-name="Icon awesome-check-circle" d="M354.01 43.231A43.231 43.231 0 1 1 310.779.001a43.231 43.231 0 0 1 43.231 43.23zm-48.231 22.891l32.074-32.075a2.789 2.789 0 0 0 0-3.944l-3.944-3.944a2.789 2.789 0 0 0-3.944 0l-26.158 26.157-12.213-12.212a2.789 2.789 0 0 0-3.944 0l-3.945 3.944a2.789 2.789 0 0 0 0 3.944l18.129 18.129a2.789 2.789 0 0 0 3.945.001z" fill="#3eac39"/></g></svg>