<svg xmlns="http://www.w3.org/2000/svg" width="158" height="158" viewBox="0 0 158 158"><g data-name="Group 630" transform="translate(-985 -367)"><circle data-name="Ellipse 51" cx="79" cy="79" r="79" transform="translate(985 367)" fill="#f79b02"/><text transform="translate(1064 481)" fill="#fff" font-size="20" font-family="Roboto-Bold, Roboto" font-weight="700"><tspan x="-48.76" y="0">Bergaransi</tspan></text><path data-name="Icon awesome-id-card" d="M1088.071 402h-48.246a4.826 4.826 0 0 0-4.825 4.825v1.608h57.9v-1.608a4.826 4.826 0 0 0-4.829-4.825zM1035 442.205a4.826 4.826 0 0 0 4.825 4.825h48.246a4.826 4.826 0 0 0 4.829-4.825V411.65H1035zm35.381-23.319a.806.806 0 0 1 .8-.8h14.478a.806.806 0 0 1 .8.8v1.608a.806.806 0 0 1-.8.8h-14.474a.806.806 0 0 1-.8-.8zm0 6.433a.806.806 0 0 1 .8-.8h14.478a.806.806 0 0 1 .8.8v1.608a.806.806 0 0 1-.8.8h-14.474a.806.806 0 0 1-.8-.8zm0 6.433a.806.806 0 0 1 .8-.8h14.478a.806.806 0 0 1 .8.8v1.608a.806.806 0 0 1-.8.8h-14.474a.806.806 0 0 1-.8-.8zm-17.691-13.67a6.433 6.433 0 1 1-6.433 6.433 6.439 6.439 0 0 1 6.433-6.433zm-10.946 20.525a6.442 6.442 0 0 1 6.121-4.443h.824a10.353 10.353 0 0 0 8 0h.824a6.442 6.442 0 0 1 6.121 4.443 1.583 1.583 0 0 1-1.568 1.99h-18.754a1.586 1.586 0 0 1-1.568-1.99z" fill="#fff"/></g></svg>