<svg xmlns="http://www.w3.org/2000/svg" width="158" height="158" viewBox="0 0 158 158"><g data-name="Group 632" transform="translate(-476 -367)"><circle data-name="Ellipse 53" cx="79" cy="79" r="79" transform="translate(476 367)" fill="#f79b02"/><text transform="translate(555 481)" fill="#fff" font-size="20" font-family="Roboto-Bold, Roboto" font-weight="700"><tspan x="-50.786" y="0">Terpercaya</tspan></text><path data-name="Icon awesome-medal" d="M551.49 409.142l-6.949-11.58a3.216 3.216 0 0 0-2.758-1.562h-11.172a1.608 1.608 0 0 0-1.318 2.531l11.185 15.977a20.8 20.8 0 0 1 11.012-5.366zM578.852 396h-11.173a3.216 3.216 0 0 0-2.758 1.562l-6.948 11.58a20.808 20.808 0 0 1 11.012 5.365l11.184-15.976a1.608 1.608 0 0 0-1.317-2.531zm-24.121 16.082a17.69 17.69 0 1 0 17.69 17.69 17.691 17.691 0 0 0-17.69-17.69zm9.3 15.807l-3.813 3.711.9 5.249a1.154 1.154 0 0 1-1.674 1.215l-4.713-2.474-4.714 2.478a1.154 1.154 0 0 1-1.674-1.215l.9-5.249-3.812-3.715a1.154 1.154 0 0 1 .638-1.969l5.27-.768 2.361-4.777a1.156 1.156 0 0 1 2.072 0l2.355 4.776 5.27.768a1.154 1.154 0 0 1 .634 1.97z" fill="#fff"/></g></svg>