<svg xmlns="http://www.w3.org/2000/svg" width="158" height="158" viewBox="0 0 158 158"><g data-name="Group 631" transform="translate(-731 -367)"><circle data-name="Ellipse 52" cx="79" cy="79" r="79" transform="translate(731 367)" fill="#f79b02"/><text transform="translate(810 481)" fill="#fff" font-size="20" font-family="Roboto-Bold, Roboto" font-weight="700"><tspan x="-30.947" y="0">Mudah</tspan></text><path data-name="Icon awesome-thumbs-up" d="M794.453 418.515h-8.041a2.412 2.412 0 0 0-2.412 2.412v24.123a2.412 2.412 0 0 0 2.412 2.412h8.041a2.412 2.412 0 0 0 2.412-2.412v-24.123a2.412 2.412 0 0 0-2.412-2.412zm-4.02 24.927a2.412 2.412 0 1 1 2.412-2.412 2.412 2.412 0 0 1-2.412 2.412zm32.167-39.255c0 4.263-2.61 6.655-3.345 9.5h10.222a6.006 6.006 0 0 1 5.986 5.84 7.277 7.277 0 0 1-1.954 4.945l-.011.011a8.4 8.4 0 0 1-.936 7.988 7.948 7.948 0 0 1-1.647 7.514 5.336 5.336 0 0 1-.618 4.486c-2.051 2.947-7.136 2.989-11.436 2.989h-.286c-4.853 0-8.826-1.769-12.017-3.189a15.819 15.819 0 0 0-5.292-1.626 1.206 1.206 0 0 1-1.184-1.206v-21.484a1.2 1.2 0 0 1 .358-.856c3.982-3.934 5.694-8.1 8.957-11.369 1.488-1.491 2.029-3.743 2.552-5.92.451-1.861 1.382-5.81 3.411-5.81 2.412 0 7.24.8 7.24 8.187z" fill="#fff"/></g></svg>