<svg xmlns="http://www.w3.org/2000/svg" width="158" height="158" viewBox="0 0 158 158"><g data-name="Group 629" transform="translate(-1287 -367)"><circle data-name="Ellipse 50" cx="79" cy="79" r="79" transform="translate(1287 367)" fill="#f79b02"/><text transform="translate(1366 481)" fill="#fff" font-size="20" font-family="Roboto-Bold, Roboto" font-weight="700"><tspan x="-45.635" y="0">Berhadiah</tspan></text><path data-name="Icon awesome-gift" d="M1343.216 445.813a3.213 3.213 0 0 0 3.217 3.217h16.082v-16.08h-19.299zm25.732 3.217h16.082a3.213 3.213 0 0 0 3.216-3.216V432.95h-19.3zm19.3-32.164h-4.233a8.764 8.764 0 0 0 1.015-4.016 8.858 8.858 0 0 0-8.845-8.85c-4.185 0-6.885 2.141-10.353 6.865-3.468-4.724-6.172-6.865-10.353-6.865a8.858 8.858 0 0 0-8.845 8.85 8.641 8.641 0 0 0 1.015 4.021h-4.433a3.213 3.213 0 0 0-3.216 3.211v8.041a1.613 1.613 0 0 0 1.608 1.608h48.247a1.613 1.613 0 0 0 1.608-1.608v-8.041a3.213 3.213 0 0 0-3.217-3.216zm-32.777 0a4.021 4.021 0 1 1 0-8.041c2 0 3.478.332 8.654 8.041h-8.656zm20.716 0h-8.656c5.166-7.689 6.6-8.041 8.654-8.041a4.021 4.021 0 1 1 0 8.041z" fill="#fff"/></g></svg>